<svg xmlns="http://www.w3.org/2000/svg" viewBox="0 0 859.8 899.76"><defs><style>.cls-1{fill:#9a9cce;}.cls-2{opacity:0.62;}.cls-3{fill:#95a2c4;}.cls-4{opacity:0.58;}.cls-5{fill:#e6e8ef;}.cls-6{opacity:0.64;}.cls-7{fill:#fff;}.cls-8{opacity:0.18;}.cls-9{fill:#323086;}.cls-10{opacity:0.28;}.cls-11{fill:#010101;}.cls-12{opacity:0.25;}.cls-13{fill:#481f54;}.cls-14{fill:#f79e86;}.cls-15{fill:#c43f52;}.cls-16{opacity:0.37;}.cls-17{fill:#25132b;}.cls-18{fill:#6c72b6;}.cls-19{fill:#231f55;}.cls-20{opacity:0.32;}.cls-21{opacity:0.44;}.cls-22{opacity:0.57;}</style></defs><g id="Calque_2" data-name="Calque 2"><g id="Layer_1" data-name="Layer 1"><polygon class="cls-1" points="114.24 96.31 113.14 109.35 247.69 109.35 247.69 96.31 114.24 96.31"/><polygon class="cls-1" points="448.87 96.31 445.03 109.35 670.03 109.35 670.47 96.31 448.87 96.31"/><g class="cls-2"><ellipse class="cls-3" cx="488.89" cy="867.09" rx="175.99" ry="30.05"/></g><g class="cls-4"><path class="cls-5" d="M242,22.13l18.9,236.41S356.71,236,391,233s57.25,3.15,57.25,3.15L453,22.13S400.65-4.13,336.32.56,242,22.13,242,22.13Z"/></g><g class="cls-6"><path class="cls-7" d="M330.63,99.82c-3.06.14-6.3.3-9.6.49-8.37.47-17.15,1.09-24.42,1.89a187.63,187.63,0,0,0-19.8,3.63c-4,.9-8,1.9-12,2.92l-7.26-75.13c13.9-9.29,69-11.88,69-11.88Z"/></g><g class="cls-6"><path class="cls-7" d="M335.69,195.56l-8.37.84-9.43.95c-10.69,1.08-24.21,4.8-33.31,7.6-6.06,1.86-10.16,3.32-10.16,3.32l-7.2-74.54c22.83-3.19,48.87-4.26,65-4.6Z"/></g><g class="cls-8"><ellipse class="cls-9" cx="294.11" cy="54.85" rx="11.88" ry="14.04"/><path class="cls-9" d="M321,100.31c-8.37.47-17.15,1.09-24.42,1.89a187.63,187.63,0,0,0-19.8,3.63,30.42,30.42,0,0,1-.2-3.6c0-14.93,10-27,22.24-27C310.6,75.2,320.22,86.28,321,100.31Z"/></g><g class="cls-8"><ellipse class="cls-9" cx="302.04" cy="159.37" rx="11.88" ry="14.04"/><path class="cls-9" d="M327.32,196.4l-9.43.95c-10.69,1.08-24.21,4.8-33.31,7.6.77-14.09,10.41-25.23,22.19-25.23C316,179.72,324,186.61,327.32,196.4Z"/></g><g class="cls-8"><path class="cls-9" d="M425.26,43.94a3.07,3.07,0,0,1-1.4-.34c-.12-.06-12.3-6.1-33.68-12.18-21.12-6-47-2.86-47.3-2.83a3.12,3.12,0,0,1-.78-6.2c1.12-.14,27.46-3.34,49.79,3,22,6.26,34.26,12.36,34.78,12.62a3.13,3.13,0,0,1-1.41,5.92Z"/><path class="cls-9" d="M404.43,61.74c-1.37-.11-7.72-1.68-21.44-5.74-17.5-5.18-38.3-3.65-38.51-3.63a3.13,3.13,0,0,1-.49-6.24c.9-.07,22.14-1.65,40.78,3.87,17,5,20.15,5.51,20.28,5.52H405Z"/></g><g class="cls-10"><path class="cls-1" d="M558.09,416.05c-.84,10.25-5,32.61-10.28,58-10.63,51.46-25.57,115.28-25.57,115.28l-43.15-15.84c-3.74-1.38-7.42-2.58-11-3.63-38-11.07-67.94-5.37-67.94-5.37V377.84s9.53-1.52,23.61-2.77c24.75-2.22,63.57-3.63,89.35,5.4,40.43,14.17,45,30.43,45,30.43A20.6,20.6,0,0,1,558.09,416.05Z"/></g><g class="cls-8"><path class="cls-9" d="M558.09,446.4v8.1A141.19,141.19,0,0,0,545.48,445c-10.14-6.85-25.08-15.21-39.86-17.26L478.46,424a3.12,3.12,0,1,1,.85-6.19l27.16,3.75c16.1,2.22,31.9,11,42.55,18.24C552.73,442.32,555.83,444.63,558.09,446.4Z"/><path class="cls-9" d="M558.09,503.61v8.33l-.17-.15C537,490.17,479.84,496.88,479.27,497a3.12,3.12,0,0,1-.76-6.2C480.84,490.46,532.8,484.36,558.09,503.61Z"/></g><g class="cls-4"><path class="cls-5" d="M558.09,411.63V564.7s-5,7.93-23.76,20.85-66.28,29.59-66.28,29.59V483.42C511.31,477,533.8,460.58,545.48,445q2-2.62,3.54-5.21C557.25,426.43,558,414.63,558.09,411.63Z"/></g><path class="cls-7" d="M558.09,411.63v0Z"/><path class="cls-11" d="M558.59,411.64h-1v-.73h1Z"/><g class="cls-12"><polygon class="cls-9" points="468.05 615.14 460.63 613.41 460.63 481.36 468.05 483.43 468.05 615.14"/></g><g class="cls-12"><path class="cls-9" d="M558.09,416.05v-4.42c-.14,6.8-4,58.94-90,71.79l-7.43-2.06s72.53-24.87,85-46.49,11.74-24.86,0-35.18S506.82,380,490.14,377.84s-66.42,0-66.42,0v-2.77c24.75-2.22,63.57-3.63,89.35,5.4,40.43,14.17,45,30.43,45,30.43A20.6,20.6,0,0,1,558.09,416.05Z"/></g><g class="cls-6"><path class="cls-7" d="M558.09,463.22v10.91c-5,6.47-13.24,15.91-23,21.56-15.36,8.95-38.75,13.14-39.74,13.32a2.84,2.84,0,0,1-.58.05,3.19,3.19,0,0,1-3.16-2.56,3.13,3.13,0,0,1,2.58-3.64c.23,0,23.24-4.17,37.59-12.53,14.18-8.26,25.59-26.27,25.7-26.45A2.76,2.76,0,0,1,558.09,463.22Z"/><path class="cls-7" d="M558.09,501.43v8.18c-4.71,3.71-12.69,9.53-20.25,12.92l-11.17,5A3.26,3.26,0,0,1,522.4,526a3.08,3.08,0,0,1,1.57-4.15l11.17-5c10.59-4.74,22.71-15.22,22.83-15.32A.4.4,0,0,1,558.09,501.43Z"/><path class="cls-7" d="M558.09,531.44v8.07c-5.25,4-14.78,10.59-24.66,14.52-14.4,5.74-24,7.05-24.42,7.1a3.42,3.42,0,0,1-.44,0,3.19,3.19,0,0,1-3.19-2.71,3.15,3.15,0,0,1,2.76-3.52c.08,0,9.27-1.29,22.84-6.69s26.89-16.63,27-16.74A.31.31,0,0,1,558.09,531.44Z"/></g><g class="cls-6"><ellipse class="cls-7" cx="440.16" cy="420.49" rx="20.46" ry="25.43"/></g><g class="cls-6"><ellipse class="cls-7" cx="440.16" cy="491.31" rx="20.46" ry="23.31"/></g><ellipse class="cls-7" cx="332.19" cy="164.14" rx="15.39" ry="21.87"/><path class="cls-11" d="M332.19,186.51c-8.77,0-15.9-10-15.9-22.37s7.13-22.36,15.9-22.36,15.89,10,15.89,22.36S341,186.51,332.19,186.51Zm0-43.73c-8.21,0-14.9,9.58-14.9,21.36s6.69,21.37,14.9,21.37,14.89-9.58,14.89-21.37S340.4,142.78,332.19,142.78Z"/><path class="cls-13" d="M497.67,181.52l-7.37,4.17s8.33-1.17,3.52,4.39-21.16,8-21.16,8,13.79,2.54,9.3,4.55-22.77,7.46-33,3.45c-9.12-3.57-13.16-13.42-13.95-15.56.59,1.73,2.66,8.29-.14,7.56-3.22-.82-14-5.17-17.29-24s-89.39-22.9-89.39-22.9-6.87-25.44-1.73-36.34,9.5-13.41,9.5-13.41,19-20.27,34.75-23.8c12.75-2.86,23.17,4.4,28.88,5.55a3.84,3.84,0,0,0,3.19-.41c4-3.1,5.58-3.81,6.59-3l.1.1c1,1,12.56-18.65,32.44-2.91s13.47,32.41,23.41,32.73,24.69,6.82,18.6,32.59,11.23,26.07,16,19.83,8.34-5.91,8.66-3S505.05,177.35,497.67,181.52Z"/><path class="cls-1" d="M417.54,140.82S411,109.9,394.52,99s-41.29-11.25-48.7-9.76-11.39,14.25-11.39,14.25,6.63-5.77,24.16-1.71S385.7,112,393.74,121.66,409.05,148,409.05,148Z"/><path class="cls-14" d="M331.23,136s-5.24,18.92-2.78,25,4.7,12.18,2.78,19.24,3.84,17.32,8,27.58a23.13,23.13,0,0,0,14.32,13.73c2,.7,6.67,0,6.67,0s4.83,23.88-1.82,30.41,7.16,28.34,15,26.74S383.5,289.53,396,274s26.3-33.16,26.62-34.76-8.66-9.3-9.94-23.09-1.29-24,.64-32.07-.32-30.47-5.46-34.32-9.94,4.49-9.3,0c0,0-4.81,4.49-4.81.32s1.29-7-.64-7.17-3.85,2.76-3.53,0-1-8.54-1-8.54-1,4.17-2.24,0-1.93-5.77-4.81-5.13-8.24,4.65-6.37,1.84,2.23-4-1.79-2-5.06-1-5.06-1l-6,5s-2.39,1.12-3-2-4.41,3.29-4.41,1.36-1.93-.79-2.89-1.36-1.28,1.69-1-.56-8,4.17-7.38,2.25,1.93-1.69,1.93-1.69-9.62,5.21-8,2l1.6-3.21S332.46,131,331.23,136Z"/><path class="cls-13" d="M332.51,184.09c-6,0-10.9-8.34-10.9-18.6s4.89-18.59,10.9-18.59,10.9,8.34,10.9,18.59S338.52,184.09,332.51,184.09Zm0-35.91c-5.31,0-9.62,7.77-9.62,17.31s4.31,17.32,9.62,17.32,9.62-7.77,9.62-17.32S337.81,148.18,332.51,148.18Z"/><path class="cls-13" d="M369.5,184.09c-8.37,0-15.18-9.38-15.18-20.91s6.81-20.9,15.18-20.9,15.18,9.37,15.18,20.9S377.87,184.09,369.5,184.09Zm0-40.53c-7.67,0-13.9,8.8-13.9,19.62s6.23,19.63,13.9,19.63,13.89-8.81,13.89-19.63S377.16,143.56,369.5,143.56Z"/><path class="cls-13" d="M343.15,162l-1.2-.45c.07-.19,1.85-4.85,6.36-5.37s7.22,3.63,7.33,3.8l-1.08.7s-2.39-3.65-6.1-3.22S343.17,162,343.15,162Z"/><rect class="cls-13" x="383.12" y="154.97" width="21.24" height="1.28" transform="translate(-7.46 20.4) rotate(-2.94)"/><path class="cls-13" d="M372.06,162.1c0,2.94-1.15,5.31-2.57,5.31s-2.58-2.37-2.58-5.31,1.15-5.3,2.58-5.3S372.06,159.17,372.06,162.1Z"/><path class="cls-13" d="M338.5,165.49c0,2.93-1.16,5.31-2.58,5.31s-2.58-2.38-2.58-5.31,1.16-5.31,2.58-5.31S338.5,162.56,338.5,165.49Z"/><path class="cls-15" d="M354.32,186.65l-.21,0c-.24-.08-5.93-2-8.35-4.2-3-2.71.21-6.6,2.54-9.43,2.56-3.1-.08-10.6-.11-10.67a.65.65,0,0,1,.39-.82.64.64,0,0,1,.82.39c.12.33,2.91,8.26-.11,11.92-3.15,3.82-4.43,6.06-2.67,7.67,2.23,2,7.84,3.91,7.9,3.92a.65.65,0,0,1,.41.82A.65.65,0,0,1,354.32,186.65Z"/><path class="cls-15" d="M369.49,191.59a18.51,18.51,0,0,1-2.93,8.26,16.61,16.61,0,0,1-5.43,5.51c-2.09,1.24-5.47.7-8.57-.59-4.52-1.87-8.42-5.32-6.74-7.11a2.89,2.89,0,0,1,1.12-.67s9.88-.7,13.65-3.31c2.64-1.83,6-3.75,7.73-3.59C369.06,190.14,369.52,190.59,369.49,191.59Z"/><path class="cls-7" d="M363.37,194.59c-4.08,2.81-13.94,4.49-15.47,4.57-.84.05-1.58-.77-2.08-1.5a2.89,2.89,0,0,1,1.12-.67s9.88-.7,13.65-3.31c2.64-1.83,6-3.75,7.73-3.59C368.77,192,367.18,192,363.37,194.59Z"/><g class="cls-16"><path class="cls-14" d="M366.56,199.85a16.61,16.61,0,0,1-5.43,5.51c-2.09,1.24-5.47.7-8.57-.59,1-3.21,5-5.61,9.74-5.61A13.26,13.26,0,0,1,366.56,199.85Z"/></g><path class="cls-15" d="M360.23,221.55s16.54-3.15,26.16-7.8,13.15-7.69,13.15-7.69-24.51,38-26.12,36.79S360.23,221.55,360.23,221.55Z"/><path class="cls-5" d="M377.54,207l-.26-1.91c.19,0,19.77-2.74,26.61-6.77A11.31,11.31,0,0,0,409.81,188l1.92-.18a13.25,13.25,0,0,1-6.86,12.2C397.7,204.21,378.36,206.9,377.54,207Z"/><ellipse class="cls-13" cx="373.24" cy="206.82" rx="7.38" ry="4.21"/><path class="cls-1" d="M420.38,106.8c0-1-1.6,4.49-2.84,4.81s-.36-1.93-2.29-10.26S400,83.46,399.55,83.16a3.84,3.84,0,0,0,3.19-.41c4-3.1,5.58-3.81,6.59-3l.1.1C418.05,88.52,420.38,109.74,420.38,106.8Z"/><path class="cls-17" d="M420.38,106.8l-2.84,4.81a35.49,35.49,0,0,1,11.18,16.47c3.21,10.47,3.39,46,3.39,46s4.52-33.35,1.53-46S420.38,106.8,420.38,106.8Z"/><ellipse class="cls-5" cx="413.56" cy="164.2" rx="18.56" ry="23.95"/><ellipse class="cls-1" cx="413.56" cy="164.2" rx="9.08" ry="13.04"/><path class="cls-14" d="M421,862.06c-3.2,6.41-42.33,37.52-50.35,37.52s-23.09,2.25-17.64-9.3c4.36-9.22,14.24-24,21.31-33,1.78-2.26,3.38-4.16,4.67-5.51,6.42-6.74,12.19-15.08,11.23-24.7s20.2-16.68,19.24-11.22c0,0,2.06,13.54,8.44,19.76.27.26.56.52.86.76C425.83,842.17,424.23,855.64,421,862.06Z"/><path class="cls-18" d="M421,862.06c-3.2,6.41-42.33,37.52-50.35,37.52s-23.09,2.25-17.64-9.3c4.36-9.22,14.24-24,21.31-33,.38,2.22,1.75,3.53,4.67,3.14,12.19-1.6,29.83-6.41,32.07-15.07a15.87,15.87,0,0,1,6.84-9.74c.27.26.56.52.86.76C425.83,842.17,424.23,855.64,421,862.06Z"/><path class="cls-14" d="M553.8,808.82c-6.42,9.62-30.79,52-37.53,52.6s-9.94-12.09-2.88-31.86c.94-2.64,1.77-5.13,2.51-7.48,4.77-15.25,5.42-24.48,4.86-28.65-.64-4.81-7.69-17.64-7.69-17.64l13.79-12.19s8.11,12.6,15.63,18.28a13.81,13.81,0,0,0,4.89,2.57C555.72,786.37,560.21,799.2,553.8,808.82Z"/><path class="cls-18" d="M553.8,808.82c-6.42,9.62-30.79,52-37.53,52.6s-9.94-12.09-2.88-31.86c.94-2.64,1.77-5.13,2.51-7.48.65,6.59,2.58,11.72,7.43,8.87,10.9-6.41,14.75-27.58,15.07-37.2a23.24,23.24,0,0,1,4.09-11.87,13.81,13.81,0,0,0,4.89,2.57C555.72,786.37,560.21,799.2,553.8,808.82Z"/><path class="cls-9" d="M516,783.16c-3.2,0-13.47-14.75-28.22-34s-52.6-76.33-59.65-84.67c-6.47-7.64-26.92-37.15-30.31-42.06l-.48-.69s.64,6.84,6.68,44,11.92,140.47,9.36,151.37c-1.59,6.76-7.62,9.58-13.51,10.89-.93.21-1.86.39-2.77.53-1.42.22-2.79.37-4,.5l-.49,0-.32,0h-.12l-1.62.16h-.07l-.17,0c-6.42.64-12.83-35.28-19.57-59s-58-180.88-57.4-193.07,14.32-163.13,14.32-163.13,96.1-13.36,107.54,0,8.34,20.74,16.68,59.94-5.13,107.68-5.13,114.1,23.09,38.48,43.62,71.19,40.4,102,41.05,107.12S519.16,783.16,516,783.16Z"/><path class="cls-7" d="M393,829.08c1.12-.14,2.55-.32,4.19-.59l-.17.09a11.46,11.46,0,0,1-6.81.77l.17,0h.07c.3,0,.85-.07,1.62-.16h.12l.32,0Z"/><path class="cls-11" d="M392.32,830.06a9.32,9.32,0,0,1-2.21-.23l-2.63-.68,2.7-.3.2,0h.16l1.51-.14.14,0a2.58,2.58,0,0,0,.29,0l.49,0c1.44-.17,2.81-.36,4.17-.58l2.81-.45-2.49,1.38a1.24,1.24,0,0,1-.2.1A12.39,12.39,0,0,1,392.32,830.06Z"/><path class="cls-19" d="M413.33,817.16c-1.59,6.76-7.62,9.58-13.51,10.89-.91.17-1.78.31-2.6.44,5.45-2.47,11.86-10.4,10.33-34.42C405,753.66,389,638.48,386.39,618.78s0-131.3,0-131.3,7.51,97.37,11.38,135l-.48-.69s.64,6.84,6.68,44S415.89,806.26,413.33,817.16Z"/><path class="cls-14" d="M580.09,251s16.06-11,20.22-16.5,11.28-15.43,17.31-22,14.11-10,18.6-9.62,26,3,21.48,4.92-15.71,0-18,2.25,2.57,4.44,3.21,7.94-.64,18.89-4.92,19.32-14.32,1.49-18,3.2-34.2,31-34.2,31Z"/><path class="cls-14" d="M204.23,175.32s-23.49-17.82-28.89-22.13-14.77-12.13-22.23-17-16.17-6.21-20.41-4.68-24.42,9.36-19.59,10.11,15.22-3.91,18-2.3-1.38,4.94-1.13,8.49,5.33,18.14,9.58,17.49,14.24-2.12,18.19-1.37,33.7,34.55,33.7,34.55Z"/><path class="cls-1" d="M476.83,371.41c-14.87,9.79-41.14-12.57-41.48-12.85h0s-4.71,29.94-3.85,35.49,7.27,14.11,7.69,19.24-15,11.55-47.88,12.41a197.91,197.91,0,0,1-22.58-.72c-22-2-38.22-7.26-41.14-10.83-3.85-4.71.43-10.69.86-21.38s-13.69-42.76-17.11-56a60.93,60.93,0,0,1-.85-25.22s-30.79,5.13-36.35,4.7-19.24-4.7-35.07-25.66-59.86-93.21-60.29-96.64,16.68-30.79,16.68-35.73,14.54,4.52,22.24,13.74,60.29,80.15,67.13,84,26.08-2.14,31.64-5.14S355,236,355,236c2.61-.93,13.26,24.16,15.71,28.93s31.32-18.45,36.88-23.06,15.83-7.79,21.38-7.41,12.41,4.32,22.24,16.51,17.53,52.81,23.52,57.83,91.08-58.47,100.06-62.58,15.82,24.21,19.17,31.47S491.79,361.55,476.83,371.41Z"/><path class="cls-5" d="M384,249.08s5.13,18.14,9,14.63,43.71-23,41.74-27.57-3.69-16.13-7.11-14.42S384,249.08,384,249.08Z"/><g class="cls-6"><path class="cls-9" d="M384,249.08l-10.62,16.3a41.83,41.83,0,0,0,13.46-8.15Z"/></g><path class="cls-5" d="M353.68,238.61s6.73-9.62,8-6.74,6.74,14.38,4.81,17.21S362,259,362,259,352.39,241.17,353.68,238.61Z"/><g class="cls-6"><polygon class="cls-9" points="366.9 247.59 368.36 260.07 364.76 252.32 366.9 247.59"/></g><g class="cls-6"><polygon class="cls-9" points="310.49 311.51 328.45 274.01 286.62 315.11 310.49 311.51"/></g><g class="cls-6"><path class="cls-9" d="M439.19,413.28c.43,5.13-15,11.55-47.88,12.41a197.91,197.91,0,0,1-22.58-.72c7-1.42,22.31-4.71,37.11-9.12,20.1-6,21.39-16.68,13.69-18.38s-5.56-8.56,4.7-20.53c10-11.72.42-59.77,0-61.76l11.11,43.37s-4.71,29.94-3.85,35.49S438.77,408.15,439.19,413.28Z"/></g><path class="cls-9" d="M368.2,425.34c-3.18-4.53-1.3-29.12-.48-34.39.6-3.82-2.17-21.16-4.62-36.47-1.57-9.85-3.06-19.15-3.5-23.93-1.14-12.19,2.34-42.06,4.57-47.78,2.1-5.39,8.41-17.2,8.68-17.7l1.13.61c-.06.12-6.55,12.24-8.62,17.56-2.13,5.48-5.58,35.44-4.49,47.19.44,4.74,1.93,14,3.5,23.85,2.58,16.15,5.25,32.85,4.62,36.87-1.05,6.75-2.4,29.65.26,33.45Z"/><path class="cls-5" d="M376.29,291c0,2-1.26,3.6-2.81,3.6s-2.81-1.61-2.81-3.6,1.26-3.6,2.81-3.6S376.29,289,376.29,291Z"/><path class="cls-5" d="M379.09,382.18c0,2-1.26,3.61-2.8,3.61s-2.81-1.62-2.81-3.61,1.26-3.6,2.81-3.6S379.09,380.19,379.09,382.18Z"/><path class="cls-5" d="M375,318.06c0,2-1.25,3.6-2.8,3.6s-2.81-1.61-2.81-3.6,1.26-3.61,2.81-3.61S375,316.07,375,318.06Z"/><path class="cls-5" d="M376.29,346.6c0,2-1.26,3.6-2.81,3.6s-2.81-1.61-2.81-3.6,1.26-3.6,2.81-3.6S376.29,344.61,376.29,346.6Z"/><path class="cls-7" d="M383.18,833.52l-.38.35A1.1,1.1,0,0,1,383.18,833.52Z"/><path class="cls-11" d="M383.14,834.24l-.73-.69a1.64,1.64,0,0,1,.57-.49l2.76-1.19Z"/><path class="cls-13" d="M367.59,149.26a2.65,2.65,0,0,1,3.77.31c.73,1,2.4,0,1.66-1a4.59,4.59,0,0,0-6.79-.7c-.91.84.45,2.19,1.36,1.36Z"/><path class="cls-13" d="M333.67,154.19a4.44,4.44,0,0,1,2.77-2.71c1.17-.39.67-2.25-.51-1.86a6.51,6.51,0,0,0-4.11,4.06c-.42,1.17,1.44,1.68,1.85.51Z"/><g class="cls-10"><path class="cls-1" d="M118.44,46.18,118.2,49l-4.82,57.47-.4,4.84L102.29,238.81l-.42,4.94s-12.35-4.7-35.24,3c-9.57,3.23-21,8.64-34.1,17.47q0-.36,0-.78c0-.19,0-.38,0-.59s0-.2,0-.31c.23-6.58.85-21.39,1.83-40.17.35-6.75.75-14,1.2-21.61.57-9.63,1.21-19.76,1.93-30,.26-3.69.52-7.39.8-11.09s.57-7.44.87-11.13c.07-1,.15-1.91.23-2.87q.24-2.9.48-5.76.27-3.13.55-6.23.33-3.61.66-7.16.3-3.12.61-6.17.14-1.31.27-2.58c.38-3.7.78-7.3,1.18-10.78l0-.17s0,0,0,0c.11-.92.22-1.82.33-2.72.32-2.68.65-5.29,1-7.8,0-.32.09-.64.12-1,.85-6.23,1.75-11.87,2.67-16.74.06-.3.12-.58.17-.87s.12-.56.17-.85.11-.55.17-.83c.11-.55.23-1.08.34-1.6s.22-1,.34-1.54c0-.15.06-.3.1-.45.12-.49.24-1,.35-1.45.2-.79.4-1.55.6-2.27l.18-.62c.18-.62.36-1.2.54-1.76.05-.16.11-.32.16-.47a3.54,3.54,0,0,1,.14-.39c.08-.25.16-.48.25-.71l.18-.48.15-.36.13-.33.11-.23c.07-.16.14-.32.21-.46.13-.3.27-.57.41-.83,0,0,0,0,0,0s.13-.24.2-.35.19-.3.27-.45a7,7,0,0,1,.59-.75A40.2,40.2,0,0,1,80.3,46.18C98.43,44.31,118.44,46.18,118.44,46.18Z"/></g><g class="cls-6"><path class="cls-9" d="M84.45,87.87v8.94S62.5,96.62,52,100c-4.47,1.43-7,2.92-8.49,4.18.32-2.68.65-5.29,1-7.8,0-.32.09-.64.12-1C60.63,87.25,84.45,87.87,84.45,87.87Z"/><path class="cls-9" d="M82.43,110v8.94s-22-.19-32.41,3.14c-4.88,1.56-7.48,3.2-8.88,4.51q.3-3.12.61-6.17.14-1.31.27-2.58C58,109.34,82.43,110,82.43,110Z"/><path class="cls-9" d="M80.4,132.08V141s-22-.19-32.42,3.14c-4.76,1.52-7.35,3.12-8.76,4.42.07-1,.15-1.91.23-2.87q.24-2.9.48-5.76C55.89,131.45,80.4,132.08,80.4,132.08Z"/></g><g class="cls-4"><path class="cls-5" d="M162.52,123.71V343.79S95.62,316.91,71.24,300s-38.77-33.77-38.77-33.77,0-.69.06-2q0-.36,0-.78c0-.19,0-.38,0-.59s0-.2,0-.31c.42-11.94,2.11-51,5-91.78.26-3.69.52-7.39.8-11.09.35-4.69.72-9.37,1.1-14q.49-6.06,1-12c.41-4.54.83-9,1.27-13.33.47-4.61,1-9.08,1.45-13.36,1.27-10.92,2.65-20.64,4.13-28.39.06-.3.12-.58.17-.87s.12-.56.17-.85.11-.55.17-.83c.11-.55.23-1.08.34-1.6s.22-1,.34-1.54c0-.15.06-.3.1-.45.12-.49.24-1,.35-1.45.2-.79.4-1.55.6-2.27l.18-.62c.18-.62.36-1.2.54-1.76.05-.16.11-.32.16-.47a3.54,3.54,0,0,1,.14-.39c.08-.25.16-.48.25-.71l.18-.48.15-.36.13-.33.11-.23c.07-.16.14-.32.21-.46.13-.3.27-.57.41-.83,0,0,0,0,0,0s.13-.24.2-.35.19-.3.27-.45a7,7,0,0,1,.59-.75S64.36,85,97.5,103.7A151.55,151.55,0,0,0,113,111.34a160.92,160.92,0,0,0,47.24,12.21l1.28.1.66,0Z"/></g><g class="cls-12"><path class="cls-9" d="M168.77,120l-6.25,3.75-.36,0-.66,0-1.28-.1A160.92,160.92,0,0,1,113,111.34,151.55,151.55,0,0,1,97.5,103.7C64.36,85,53.11,60.56,53.11,60.56A40.2,40.2,0,0,1,80.3,46.18c18.13-1.87,38.14,0,38.14,0L120.32,49l-2.12,0c-11.49.25-65.7,2.1-57.59,15,7.89,12.52,28.09,31.42,52.77,42.5a110.65,110.65,0,0,0,11.31,4.39C154.39,120.58,168.77,120,168.77,120Z"/></g><g class="cls-12"><polygon class="cls-9" points="168.77 119.96 168.77 341.29 162.52 343.79 162.52 123.71 168.77 119.96"/></g><g class="cls-6"><path class="cls-9" d="M65.81,123.5l-1.24,8.38s-14.23-2.31-22.82-11.49c.47-4.61,1-9.08,1.45-13.36a22.19,22.19,0,0,0,7.64,9C61.07,123,65.81,123.5,65.81,123.5Z"/></g><g class="cls-6"><path class="cls-9" d="M61.39,146.42l-1.25,8.38s-12-2-20.69-9.09q.49-6.06,1-12a21.86,21.86,0,0,0,5.32,5.1C56,145.81,61.39,146.42,61.39,146.42Z"/></g><g class="cls-6"><path class="cls-9" d="M58.26,170.66,57,179a65.86,65.86,0,0,1-19.46-8.24c.26-3.69.52-7.39.8-11.09a22.25,22.25,0,0,0,2.4,1.89C51,168.59,58.26,170.66,58.26,170.66Z"/></g><g class="cls-6"><path class="cls-9" d="M135.64,169.51c0,19.77-11.62,35.79-25.95,35.79-7,0-13.35-3.82-18-10a40.38,40.38,0,0,1-7.16-17l23.86-12,2.56-30.59a16.53,16.53,0,0,0-.07-1.89C124.65,134.61,135.64,150.29,135.64,169.51Z"/></g><g class="cls-8"><path class="cls-9" d="M110.94,135.65l-2.56,30.59-23.86,12a48.74,48.74,0,0,1-.78-8.74c0-19.77,11.62-35.79,26-35.79.39,0,.79,0,1.18,0A16.53,16.53,0,0,1,110.94,135.65Z"/></g><g class="cls-6"><path class="cls-9" d="M108.38,166.24c-.11,1.24-10,17.87-16.7,29a40.38,40.38,0,0,1-7.16-17Z"/></g><g class="cls-6"><path class="cls-9" d="M129.38,248.37v25.19a1.87,1.87,0,0,1-2.53,1.76c-8.33-3.17-35.69-14-60.22-28.53-12.41-7.35-24.09-15.65-32.21-24.38.35-6.75.75-14,1.2-21.61A123.21,123.21,0,0,0,60,219.37a240.71,240.71,0,0,0,42.31,19.44c12.42,4.39,22.14,6.89,25.66,7.74A1.86,1.86,0,0,1,129.38,248.37Z"/></g><g class="cls-10"><path class="cls-1" d="M741.77,164.16s0,0,0,0v.17c0,3.64,0,7.39-.09,11.25,0,.57,0,1.13,0,1.71,0,.32,0,.66,0,1q-.06,3.17-.12,6.42l0,.95c0,2.16-.1,4.32-.16,6.51s-.12,4.31-.19,6.48c-.07,2-.13,4-.2,6,0,1-.07,2-.12,3-.08,2.21-.16,4.44-.25,6.66-.07,1.64-.14,3.27-.2,4.91l-.15,3.39c-.12,2.71-.25,5.43-.38,8.13-.42,8.91-.89,17.74-1.39,26.24-.08,1.64-.18,3.28-.28,4.9,0,.78-.09,1.56-.14,2.34-.41,7-.84,13.76-1.25,20.06-1.28,19.46-2.46,34.79-3,41.59a1.84,1.84,0,0,0,0,.33c0,.21,0,.41-.05.61s0,.56-.07.8c-12.63-10.73-23.89-17.72-33.48-22.24-23-10.82-36.47-7.52-36.47-7.52l.18-5.14,4.48-132.6.17-5,2-59.79.1-3s21.14.56,39.85,4.75a42.42,42.42,0,0,1,26.66,18.2,6,6,0,0,1,.51.84l.24.5c.06.13.11.26.16.39l0,0c.12.28.22.58.33.9,0,.16.1.33.16.5l.08.26c0,.11.07.23.11.35s.07.25.1.39.09.34.14.52.12.49.17.76.07.27.1.42.07.33.1.5c.13.6.24,1.22.35,1.88,0,.21.08.44.11.67.12.76.24,1.57.35,2.41.06.49.13,1,.19,1.53,0,.16,0,.31,0,.48.06.52.11,1.07.17,1.62s.11,1.12.16,1.7c0,.29,0,.58.07.87s.05.6.07.9,0,.6.08.91c.36,5.13.61,11,.73,17.57,0,.34,0,.67,0,1q.06,3.94.08,8.15C741.76,162.26,741.77,163.2,741.77,164.16Z"/></g><g class="cls-20"><path class="cls-9" d="M741.76,165.93c0,2.2,0,4.46,0,6.75a3.21,3.21,0,0,1-1.59-.46c-.16-.1-12.88-7.88-26.4-10.86-12.89-2.84-18.26-1.24-18.31-1.22a3.1,3.1,0,0,1-4-1.92,3.14,3.14,0,0,1,1.94-4c.67-.23,7-2.21,21.67,1C726.85,157.85,737.72,163.62,741.76,165.93Z"/><path class="cls-9" d="M740.76,209.45c-.08,2.15-.16,4.31-.26,6.48a3.24,3.24,0,0,1-1.32-.32,77.14,77.14,0,0,0-28.44-6.56,3.13,3.13,0,1,1,.22-6.25A84.27,84.27,0,0,1,740.76,209.45Z"/><path class="cls-9" d="M738.68,253c-.13,2.4-.26,4.76-.4,7.1a3.08,3.08,0,0,1-2.13-1c-.1-.11-4.3-4.47-13.86-7.92-9.95-3.59-27.58-3-27.76-3a3.13,3.13,0,1,1-.21-6.25c.77,0,19-.6,30.1,3.4A49.23,49.23,0,0,1,738.68,253Z"/></g><g class="cls-4"><path class="cls-5" d="M741.77,164.34c0,.53,0,1,0,1.59,0,2.2,0,4.46,0,6.75,0,1.85,0,3.72-.07,5.61-.07,4.51-.18,9.16-.31,13.88-.11,4.1-.24,8.27-.39,12.48q-.09,2.39-.18,4.8c-.08,2.15-.16,4.31-.26,6.48,0,1.09-.08,2.18-.13,3.27-.17,3.84-.34,7.69-.53,11.52-.36,7.53-.75,15-1.16,22.25-.13,2.4-.26,4.76-.4,7.1-1.78,30.53-3.74,56.36-4.52,65.78a1.84,1.84,0,0,0,0,.33c0,.21,0,.41-.05.61s0,.56-.07.8c-.12,1.35-.18,2.07-.18,2.07s-17.1,15.59-44.66,29.94S588,393.3,588,393.3l27-226.64.37,0,.71,0,1.34.06a171.37,171.37,0,0,0,50.87-6.69,164,164,0,0,0,17.11-5.94c36.94-15.18,51.69-38.89,51.69-38.89a6,6,0,0,1,.51.84l.24.5c.06.13.11.26.16.39l0,0c.12.28.22.58.33.9,0,.16.1.33.16.5l.08.26c0,.11.07.23.11.35s.07.25.1.39.09.34.14.52.12.49.17.76.07.27.1.42.07.33.1.5c.13.6.24,1.22.35,1.88,0,.21.08.44.11.67.12.76.24,1.57.35,2.41.06.49.13,1,.19,1.53,0,.16,0,.31,0,.48.06.52.11,1.07.17,1.62s.11,1.12.16,1.7c0,.29,0,.58.07.87s.05.6.07.9,0,.6.08.91C741.53,142.76,741.78,153,741.77,164.34Z"/></g><g class="cls-12"><path class="cls-9" d="M609,162l6.08,4.65.37,0,.7,0,1.35.06a171.37,171.37,0,0,0,50.87-6.69,161.73,161.73,0,0,0,17.11-5.94c36.94-15.18,51.69-38.89,51.69-38.89a42.42,42.42,0,0,0-26.66-18.2c-18.71-4.19-39.85-4.75-39.85-4.75L668.3,95l2.21.3c12,1.69,68.4,10.35,58.35,22.59-9.78,11.91-33.22,28.87-60.37,37.2a118.2,118.2,0,0,1-12.36,3.11C623.9,164.45,609,162,609,162Z"/></g><g class="cls-12"><polygon class="cls-9" points="608.95 162.01 581.78 389.94 588 393.3 615.02 166.66 608.95 162.01"/></g><g class="cls-8"><ellipse class="cls-9" cx="643.95" cy="210.2" rx="7.09" ry="10.63"/></g><g class="cls-6"><ellipse class="cls-9" cx="641.61" cy="248.22" rx="7.09" ry="10.63"/></g><g class="cls-6"><ellipse class="cls-9" cx="640.57" cy="286.57" rx="7.09" ry="10.63"/></g><g class="cls-6"><path class="cls-9" d="M623,363.8l4.38-36.21,47.52-8.49-2.19,32.82S633.63,364.42,623,363.8Z"/></g><g class="cls-8"><path class="cls-9" d="M685.84,317.22V345s23.45-10.94,29.07-13.91a59.73,59.73,0,0,0,9.69-6.41V302.84Z"/></g><g class="cls-8"><path class="cls-9" d="M741.65,177.3c0,.32,0,.66,0,1q-.06,3.17-.12,6.42l0,.95a87.92,87.92,0,0,1-35.57,17c-27.12,6.26-35.37,6.33-35.71,6.33a3.13,3.13,0,1,1,0-6.25c.06,0,8.19-.15,34.31-6.18A81.12,81.12,0,0,0,741.65,177.3Z"/></g><g class="cls-6"><path class="cls-9" d="M740.57,214.29c-.07,1.64-.14,3.27-.2,4.91l-.15,3.39c-9.07,6.89-22.42,15.22-36.9,18.06-24.85,4.89-32.45,5.76-32.77,5.79a2,2,0,0,1-.35,0,3.12,3.12,0,0,1-.33-6.23c.06,0,7.77-.9,32.24-5.71C717.7,231.46,732.29,221.12,740.57,214.29Z"/></g><g class="cls-6"><path class="cls-9" d="M738.45,257c-.08,1.64-.18,3.28-.28,4.9,0,.78-.09,1.56-.14,2.34a171.66,171.66,0,0,1-28.63,11.32,132.89,132.89,0,0,1-34.7,5.29c-1.07,0-1.7,0-1.81,0a3.12,3.12,0,0,1,.3-6.24c.13,0,14.49.59,34.52-5C719.21,266.29,730.68,261,738.45,257Z"/></g><g class="cls-10"><path class="cls-1" d="M270.15,443.62v175.9a46.64,46.64,0,0,0-22.42,4,45.55,45.55,0,0,0-20.92,19.31s-1.73-14.12-3.87-34.64c-3.18-30.36-7.26-74.73-8-108.12-.19-8.68-.15-16.62.19-23.37.53-10.66,1.82-18.38,4.15-21.44,0,0,10.84-13.75,26.68-13.75S270.15,443.62,270.15,443.62Z"/></g><g class="cls-4"><path class="cls-5" d="M362.69,512.89V682.05s-71.28-4.18-102.54-19.18-33.34-20-33.34-20S212.61,527,215.15,476.73v-.1c0-.46,0-.92.08-1.37,0-.22,0-.45,0-.67,0-.58.08-1.16.11-1.72,0-.3.05-.58.07-.87s0-.42.05-.63c.05-.58.11-1.15.16-1.7s.09-.87.14-1.29.08-.76.13-1.13.09-.73.14-1.09c0-.18.05-.36.08-.53s.08-.58.13-.86c.12-.82.27-1.6.42-2.34,0-.19.07-.38.12-.56.1-.5.22-1,.33-1.43,0-.14.07-.28.11-.41a16.11,16.11,0,0,1,1.63-4.13,3.28,3.28,0,0,1,.2-.31l.21-.3s7.09,24.59,46.69,38.77c1.37.48,2.76,1,4.16,1.43C309.46,508.55,362.69,512.89,362.69,512.89Z"/></g><g class="cls-12"><path class="cls-9" d="M373.32,507.81l-10.63,5.08s-53.23-4.34-92.54-17.4c-1.4-.46-2.79-.95-4.16-1.43-39.6-14.18-46.69-38.77-46.69-38.77s10.84-13.75,26.68-13.75,24.17,2.08,24.17,2.08v1.94c-8.34-.77-30-2-38.55,4.94-10.66,8.67,8.55,22.51,23.55,30.43a103.51,103.51,0,0,0,15,5.8c22.24,7.15,57.44,15,67.32,16.29C350.18,504.69,373.32,507.81,373.32,507.81Z"/></g><g class="cls-12"><polygon class="cls-9" points="373.32 507.81 373.32 672.87 362.69 682.04 362.69 512.89 373.32 507.81"/></g><path class="cls-7" d="M275.58,525.94V635.36s-4-1.38-10-3.8c-5-2-11.29-4.74-17.88-8A157,157,0,0,1,228.9,612.7c-2.11-1.45-4.11-3-6-4.48-3.18-30.36-7.26-74.73-8-108.12,3.31,4.25,8.56,8.92,16.85,12.79,14.89,7,30.39,10.57,38.34,12.12C273.56,525.66,275.58,525.94,275.58,525.94Z"/><ellipse class="cls-5" cx="248.9" cy="556.89" rx="8.75" ry="14.69"/><path class="cls-5" d="M265.61,631.56c-5-2-11.29-4.74-17.88-8A157,157,0,0,1,228.9,612.7c-.69-18.19,7.6-33.26,18.6-33.73s20.62,14,21.39,32.26A48.52,48.52,0,0,1,265.61,631.56Z"/><path class="cls-7" d="M340.6,554.91a95.46,95.46,0,0,1-24-3.87c-13.1-3.74-28.78-9.61-28.94-9.66a3.13,3.13,0,0,1,2.19-5.86c.16.06,15.61,5.84,28.46,9.51a90.62,90.62,0,0,0,22.28,3.63,3.13,3.13,0,1,1,0,6.25Z"/><path class="cls-7" d="M321.63,578.05a78.86,78.86,0,0,1-14.81-1.74c-8.15-1.71-18.87-6.46-19.32-6.66a3.12,3.12,0,1,1,2.54-5.71c.1,0,10.57,4.68,18.07,6.25a73.45,73.45,0,0,0,13.53,1.6,3.13,3.13,0,0,1,0,6.26Z"/><path class="cls-7" d="M336.71,623c-4.24,0-12.53-.61-24.52-4.22-17.21-5.18-26.49-8.67-26.88-8.82a3.13,3.13,0,1,1,2.21-5.85c.09,0,9.5,3.57,26.47,8.69,16.27,4.9,25.07,3.86,25.16,3.85a3.13,3.13,0,0,1,.83,6.2A29.66,29.66,0,0,1,336.71,623Z"/><path class="cls-7" d="M318.51,641.2a3.25,3.25,0,0,1-.69-.08l-12.08-2.71c-12.52-2.81-19.94-7.75-20.25-8a3.13,3.13,0,0,1,3.5-5.19h0c.07,0,6.83,4.52,18.11,7L319.19,635a3.13,3.13,0,0,1-.68,6.18Z"/><path class="cls-5" d="M606.73,76.73v55.61a8.85,8.85,0,0,1-8.86,8.86H558.5L538.5,156a2,2,0,0,1-3.1-2l2.54-12.85H522.3a8.86,8.86,0,0,1-8.86-8.86V76.73a8.86,8.86,0,0,1,8.86-8.86h75.57A8.85,8.85,0,0,1,606.73,76.73Z"/><path class="cls-3" d="M574,117.69l-4.42-5.2a1,1,0,0,0-1.43-.11l-2.5,2.13a1,1,0,0,0-.11,1.42s-2.73.52-9.16-5.91-6.47-15.51-6.47-15.51a1,1,0,0,0,1.43.12l2.5-2.13a1,1,0,0,0,.11-1.43l-4.42-5.19a1,1,0,0,0-1.43-.12l-2.5,2.13a1,1,0,0,0-.12,1.43l.52.61c-1.8,2-4.32,6.06-2.43,12.58,2.34,8.11,12.81,18.5,18.13,19.43a11.54,11.54,0,0,0,1.91.16,13.38,13.38,0,0,0,5.93-1.47l.42.5a1,1,0,0,0,1.43.11l2.5-2.13A1,1,0,0,0,574,117.69Z"/><path class="cls-5" d="M284.83,411.05H199.11a6.9,6.9,0,0,1-6.9-6.9V360.8a6.9,6.9,0,0,1,6.9-6.9h57.51l15.59-11.54a1.53,1.53,0,0,1,2.41,1.53l-2,10h12.19a6.9,6.9,0,0,1,6.9,6.9v43.35A6.9,6.9,0,0,1,284.83,411.05Z"/><path class="cls-3" d="M224,388.81H212.6v-2.47l5.27-5.54c1.3-1.48,1.95-2.65,1.95-3.52a2.43,2.43,0,0,0-.47-1.61,1.62,1.62,0,0,0-1.33-.55,1.67,1.67,0,0,0-1.41.73,3.06,3.06,0,0,0-.54,1.84h-3.81a5.4,5.4,0,0,1,.76-2.78,5.3,5.3,0,0,1,2.09-2,6.22,6.22,0,0,1,3-.72,6.11,6.11,0,0,1,4.09,1.23,4.4,4.4,0,0,1,1.43,3.52,5.16,5.16,0,0,1-.36,1.89,8.12,8.12,0,0,1-1.12,1.92,28.85,28.85,0,0,1-2.45,2.7l-2.11,2.44H224Z"/><path class="cls-3" d="M236,382.41h1.67v2.93H236v3.47h-3.79v-3.47h-6.33l-.23-2.32,6.56-10.56v0H236Zm-6.74,0h2.95v-5l-.23.38Z"/><path class="cls-3" d="M246.4,390.22h-2.69l5.59-17.79H252Z"/><path class="cls-3" d="M270.25,374.45l-6.12,14.36h-4l6.13-13.46h-7.81v-2.92h11.8Z"/><path class="cls-5" d="M579.17,636.64l2.24-6.72A40.72,40.72,0,1,1,601,645.18a3.18,3.18,0,0,1-1.85,1.1l-9.65,2-9.66,2a3.27,3.27,0,0,1-3.77-4.24Z"/><circle class="cls-3" cx="601.16" cy="608.19" r="4.92"/><circle class="cls-3" cx="615.08" cy="608.19" r="4.92"/><circle class="cls-3" cx="629" cy="608.19" r="4.92"/><path class="cls-9" d="M678.81,464s-30.38,30.72-35.7,31.66-49.39-22.82-49.39-22.82,30.95-50,35.32-48.77,43.46,35.48,46.27,37.59C676.61,462.63,677.84,463.21,678.81,464Z"/><path class="cls-7" d="M818.15,569.1c-.09-.42-.19-.83-.29-1.24"/><path class="cls-11" d="M817.66,569.2c-.08-.41-.18-.82-.28-1.22l1-.24c.1.42.2.83.29,1.25Z"/><g class="cls-21"><path class="cls-5" d="M743.16,521.75c-4.24,13.88-9.46,26.38-19.39,27-23.45,1.57-25.95-58.77-38.45-88.93-1.58-3.8-3.68-6.68-5.44-9.57-15.35,16.21-17.7,48.49-17.7,48.49h-5.12c-2.19-31.68-.22-64.4-.19-64.93h0l47.2-4.15s18.7,3.91,26.23,32C736.22,483.69,733.63,511.56,743.16,521.75Z"/></g><path class="cls-7" d="M721.89,548.78l.23,0-.23,0Z"/><path class="cls-11" d="M721.89,548.78v.05l.23,0-.23,0Z"/><path class="cls-5" d="M771.22,543.18l-44.78,5.13c8.23-2.54,12.88-14,16.72-26.56,4.9-16.07,8.49-34,16.55-37.46a34.5,34.5,0,0,1,4.7-.41C778.09,486.8,774.23,513.31,771.22,543.18Z"/><g class="cls-21"><path class="cls-5" d="M814.76,605.52c-3.41,7.87-8.25,13.5-13.15,14.86-11.26,3.13-29.7,6.26-32.2-35.63-.79-13.25.42-27.76,1.81-41.57,3-29.87,6.87-56.38-6.81-59.3a7.7,7.7,0,0,0-2.16-.18c7.46-1,45.08-5.92,48.74.18,4.06,6.77-17.51,73.36-7.19,104.93C806.42,596.83,810.35,602.11,814.76,605.52Z"/></g><path class="cls-5" d="M859.54,572.7q-.6,1.83-1.17,3.66c-2.64,8.49-4.85,17.1-8.07,25.43-3.29,8.49-7.34,19-15.24,24.22-13.44,8.13-46.56-4.21-46.56-4.21,4.6.72,9.27-.35,13.11-1.42,4.9-1.36,9.74-7,13.15-14.86a60.82,60.82,0,0,0,3.39-36.42c.53-.94,1-1.37,1.38-1.24,1.77.63,13,7.35,24.13,5.48,1.69-.29,15.61-4.51,16.1-2.21A3.06,3.06,0,0,1,859.54,572.7Z"/><path class="cls-5" d="M680.3,449.83c-15.34,16.22-18.12,48.95-18.12,48.95H623.73a27.37,27.37,0,0,1-3.24-3.78c1.81-13.78,6.9-43.2,18.25-53.12,5.65-4.95,11.89-7.9,18.13-8C665.1,433.66,673.35,438.37,680.3,449.83Z"/><path class="cls-1" d="M680.94,511.12c-.94,3-75.65,19.38-79.72,18s-13.44-52.28-11.56-53.84a18.74,18.74,0,0,1,4.06-2.5s44.08,23.76,49.39,22.82S678.81,464,678.81,464a5.61,5.61,0,0,1,2.13,4.46C681.25,472.83,681.88,508.15,680.94,511.12Z"/><rect class="cls-9" x="595.06" y="512.11" width="51.71" height="0.63" transform="translate(-184.05 524.84) rotate(-40.42)"/><rect class="cls-9" x="663.65" y="483.14" width="0.63" height="38.28" transform="translate(-88.29 859) rotate(-62.48)"/><g class="cls-6"><path class="cls-9" d="M693.76,452a.63.63,0,0,1-.62-.57.62.62,0,0,1,.56-.68l23.35-2.09a.63.63,0,0,1,.11,1.25L693.82,452Z"/><path class="cls-9" d="M695.43,462.57a.63.63,0,0,1,0-1.25l23.34-2.09a.63.63,0,0,1,.68.57.62.62,0,0,1-.57.68l-23.34,2.08Z"/><path class="cls-9" d="M702.51,478.22a.62.62,0,0,1-.6-.48.63.63,0,0,1,.45-.76l11.88-2.91a.62.62,0,1,1,.3,1.21l-11.88,2.92Z"/><path class="cls-9" d="M711.47,492.39a.62.62,0,0,1-.18-1.22l15-4.59a.63.63,0,0,1,.37,1.2l-15,4.58A.63.63,0,0,1,711.47,492.39Z"/><path class="cls-9" d="M709.6,509.68a.62.62,0,0,1-.17-1.22l12.09-3.34a.63.63,0,0,1,.33,1.21l-12.09,3.33A.44.44,0,0,1,709.6,509.68Z"/><path class="cls-9" d="M718.78,526.15a.62.62,0,0,1-.6-.44.63.63,0,0,1,.42-.78L729,521.8a.63.63,0,1,1,.36,1.2L719,526.12Z"/><path class="cls-9" d="M800.26,493.78H783.58a.63.63,0,0,1,0-1.25h16.68a.63.63,0,0,1,0,1.25Z"/><path class="cls-9" d="M800.26,506.35h-8.34a.63.63,0,0,1,0-1.25h8.34a.63.63,0,0,1,0,1.25Z"/><path class="cls-9" d="M791.92,534.9h-8.34a.63.63,0,0,1,0-1.25h8.34a.63.63,0,1,1,0,1.25Z"/><path class="cls-9" d="M796.09,546.93H776.5a.63.63,0,1,1,0-1.25h19.59a.63.63,0,0,1,0,1.25Z"/><path class="cls-9" d="M791.92,561.79h-8.34a.63.63,0,0,1,0-1.25h8.34a.63.63,0,1,1,0,1.25Z"/><path class="cls-9" d="M779.83,598.94a.64.64,0,0,1-.6-.47.62.62,0,0,1,.44-.76l20.42-5.56a.63.63,0,0,1,.33,1.21L780,598.91A.51.51,0,0,1,779.83,598.94Z"/><path class="cls-9" d="M788.5,608.81a.63.63,0,0,1-.24-1.2L800,602.69a.61.61,0,0,1,.81.33.62.62,0,0,1-.33.82l-11.75,4.92A.56.56,0,0,1,788.5,608.81Z"/></g><g class="cls-22"><path class="cls-1" d="M210.64,713c-3.75,4.58-45.33,17.09-57.46,20.42S134,737.16,129,728.83c-4.6-7.66-19.32-31.89-14.92-39a3.74,3.74,0,0,1,1.63-1.46s75-36.54,85.47-29.51a2.72,2.72,0,0,1,.76.75C208.56,669.64,214.4,708.4,210.64,713Z"/></g><path class="cls-5" d="M201.13,658.88c-9.29,13.86-26.37,38.76-30.19,40.56s-37.84-5.36-56.91-9.59a3.74,3.74,0,0,1,1.63-1.46S190.66,651.85,201.13,658.88Z"/><rect class="cls-1" x="126.46" y="716.63" width="42.93" height="0.63" transform="translate(-537.47 459.8) rotate(-57.78)"/><rect class="cls-1" x="193.34" y="682.83" width="0.63" height="39.08" transform="translate(-527.69 599.97) rotate(-66.51)"/><path class="cls-5" d="M23.86,514.36a23.19,23.19,0,0,0-13.75,27.71.94.94,0,0,0,1.81-.5,21.28,21.28,0,0,1,12.44-25.4c1.1-.45.61-2.27-.5-1.81Z"/><path class="cls-5" d="M7.85,512.37c-5.91.6-7.35,9.27-7.84,14-.13,1.2,1.75,1.19,1.87,0,.36-3.41,1.55-11.65,6-12.09,1.19-.12,1.21-2,0-1.88Z"/><path class="cls-5" d="M85.42,520.91a21.29,21.29,0,0,1,3.34,28.26c-.68,1,.94,1.94,1.62,1a23.17,23.17,0,0,0-3.63-30.54c-.9-.8-2.23.52-1.33,1.33Z"/><path class="cls-5" d="M101.59,524.63c4.1,1.94,2.56,10.06,1.73,13.53-.28,1.18,1.53,1.68,1.81.5,1.06-4.46,2.64-13.18-2.6-15.65-1.08-.51-2,1.11-.94,1.62Z"/><path class="cls-1" d="M38.5,580.32s-2.29,5.63,3.33,8.55,12.92,1,14.38,0,3.34-8.55,3.34-8.55Z"/><path class="cls-5" d="M89.14,574.7c-2.5,3.33-9.58,7.5-27.51,9.16s-28.76-3.33-36.26-6.25-13.34-12.09-7.09-15a4.72,4.72,0,0,0,.87-.51,7,7,0,0,0,1.69-1.9c3.7-5.89,4.08-20.38,8.28-39.26,5-22.51,24.18-21.11,24.18-21.11C77.47,500,80,528.43,78.72,540.25S80,560.94,84.14,562.6a7.26,7.26,0,0,1,1.7,1,9.63,9.63,0,0,1,1.35,1.29C89.67,567.76,91,572.24,89.14,574.7Z"/><path class="cls-1" d="M87.19,564.9c-1.62,1.44-4.56,3.13-9.93,4.58C65,572.82,44.75,572.2,30.58,568a31.94,31.94,0,0,1-11.43-5.86,7,7,0,0,0,1.69-1.9c4.3,2.91,12.78,6,32,7.42,18.4,1.38,28.39-1.75,33-4A9.63,9.63,0,0,1,87.19,564.9Z"/><circle class="cls-1" cx="73.8" cy="520.25" r="16.2" transform="translate(-449.49 472.54) rotate(-76.72)"/><path class="cls-1" d="M84.89,364.07s-4.87,14.35-1,33.58,7.44,30.51,10.51,31,41-1.54,40.87-3.34-5.75-12-7-30.47.51-30.79.51-30.79S89.25,361,84.89,364.07Z"/><path class="cls-5" d="M84.89,364.07s10-1.1,10.25,8.17-2.82,14.39-1,14.64,43.06-3.23,43.57-5.46-1.34-15.3-9-17.35S90.78,359.2,84.89,364.07Z"/><path class="cls-5" d="M95.71,393.42a56.64,56.64,0,0,1-5.87-.26,1,1,0,0,1,.23-1.91,69.31,69.31,0,0,0,12.11,0c7.36-.56,9-.76,9-.76a1,1,0,0,1,1.07.84,1,1,0,0,1-.84,1.07c-.07,0-1.69.2-9.12.77C99.79,393.36,97.56,393.42,95.71,393.42Z"/><path class="cls-5" d="M91.87,402.81a1,1,0,0,1-.06-1.92l12.69-.8a1,1,0,0,1,.12,1.92l-12.69.8Z"/><path class="cls-5" d="M98.22,413.54a1,1,0,0,1-1-.88,1,1,0,0,1,.88-1l24.41-2.11a1,1,0,0,1,1,.87,1,1,0,0,1-.87,1L98.3,413.54Z"/></g></g></svg>