<svg xmlns="http://www.w3.org/2000/svg" viewBox="0 0 879.51 802.21"><defs><style>.cls-1{fill:#e6e8ef;}.cls-2{opacity:0.61;}.cls-3{fill:#9a9cce;}.cls-4{fill:#5d53a3;}.cls-5{fill:#323086;}.cls-6{fill:#15153d;}.cls-7{fill:#7987a8;}.cls-8{fill:#f79e86;}.cls-9{fill:#72c271;}.cls-10{fill:#4faa7b;}.cls-11{fill:#b8d986;}.cls-12{fill:#fff;}.cls-13{fill:#010101;}.cls-14{fill:#f7cd17;}.cls-15{fill:#b5e3f0;}.cls-16{fill:#2c3058;}.cls-17{fill:#1e2350;}.cls-18{fill:#481f54;}.cls-19{fill:#c43f52;}.cls-20{fill:#1e223e;}.cls-21{fill:#95a2c4;}</style></defs><g id="Calque_2" data-name="Calque 2"><g id="Layer_1" data-name="Layer 1"><polygon class="cls-1" points="650.38 586.94 652.19 581.72 655.44 581.72 650.38 578.05 650.38 573.34 657.38 573.34 653.88 570.45 653.88 566.78 744.73 566.78 744.73 572.02 740.39 572.81 749.43 574.64 749.43 576.86 744.01 576.86 746.54 578.84 747.26 581.98 743.28 581.98 749.43 584.34 749.43 586.94 650.38 586.94"/><g class="cls-2"><polygon class="cls-3" points="653.88 570.45 744.73 572.02 740.39 572.81 657.38 573.34 653.88 570.45"/><polygon class="cls-3" points="746.54 578.84 650.38 578.05 652.37 579.49 746.54 580.76 746.54 578.84"/><polygon class="cls-3" points="744.01 576.86 669.42 575.87 749.43 574.64 749.43 576.86 744.01 576.86"/><polygon class="cls-3" points="652.19 581.72 743.28 581.98 651.37 584.09 652.19 581.72"/></g><polygon class="cls-1" points="650.38 625.85 652.19 618.65 655.44 618.65 650.38 613.59 650.38 607.09 657.38 607.09 653.88 603.11 653.88 598.05 744.73 598.05 744.73 605.28 740.39 606.36 749.43 608.89 749.43 611.95 744.01 611.95 746.54 614.68 747.26 619.02 743.28 619.02 749.43 622.27 749.43 625.85 650.38 625.85"/><g class="cls-2"><polygon class="cls-3" points="653.88 603.11 744.73 605.28 740.39 606.36 657.38 607.09 653.88 603.11"/><polygon class="cls-3" points="746.54 614.68 650.38 613.59 652.37 615.58 746.54 617.33 746.54 614.68"/><polygon class="cls-3" points="744.01 611.95 669.42 610.58 749.43 608.89 749.43 611.95 744.01 611.95"/><polygon class="cls-3" points="652.19 618.65 743.28 619.02 651.37 621.91 652.19 618.65"/></g><polygon class="cls-1" points="650.38 608.44 652.19 601.24 655.44 601.24 650.38 596.18 650.38 589.67 657.38 589.67 653.88 585.7 653.88 580.64 744.73 580.64 744.73 587.87 740.39 588.95 749.43 591.48 749.43 594.54 744.01 594.54 746.54 597.27 747.26 601.6 743.28 601.6 749.43 604.86 749.43 608.44 650.38 608.44"/><g class="cls-2"><polygon class="cls-3" points="653.88 585.7 744.73 587.87 740.39 588.95 657.38 589.67 653.88 585.7"/><polygon class="cls-3" points="746.54 597.27 650.38 596.18 652.37 598.17 746.54 599.92 746.54 597.27"/><polygon class="cls-3" points="744.01 594.54 669.42 593.17 749.43 591.48 749.43 594.54 744.01 594.54"/><polygon class="cls-3" points="652.19 601.24 743.28 601.6 651.37 604.5 652.19 601.24"/></g><rect class="cls-4" x="620.49" y="650.1" width="144.78" height="25.5" rx="5"/><path class="cls-5" d="M749.83,770.71H634.37a5,5,0,0,1-5-5V675.6H754.83v90.11A5,5,0,0,1,749.83,770.71Z"/><rect class="cls-6" x="675.82" y="682.5" width="34.11" height="10.5" rx="5.25"/><rect class="cls-4" x="705.97" y="726.15" width="36.71" height="32.38" rx="3"/><polygon class="cls-1" points="650.38 650.1 652.19 642.9 655.44 642.9 650.38 637.84 650.38 631.33 657.38 631.33 653.88 627.36 653.88 622.3 744.73 622.3 744.73 629.53 740.39 630.61 749.43 633.14 749.43 636.2 744.01 636.2 746.54 638.92 747.26 643.26 743.28 643.26 749.43 646.52 749.43 650.1 650.38 650.1"/><g class="cls-2"><polygon class="cls-3" points="653.88 627.36 744.73 629.53 740.39 630.61 657.38 631.33 653.88 627.36"/><polygon class="cls-3" points="746.54 638.92 650.38 637.84 652.37 639.83 746.54 641.58 746.54 638.92"/><polygon class="cls-3" points="744.01 636.2 669.42 634.83 749.43 633.14 749.43 636.2 744.01 636.2"/><polygon class="cls-3" points="652.19 642.9 743.28 643.26 651.37 646.16 652.19 642.9"/></g><path class="cls-7" d="M685.69,546.64s-8.82-12.72-14-5.79,3.9,17.64,8,19.23a4.83,4.83,0,0,0,6.07-2l-.87-1.15s-4.86,1.88-8.07-2-5.41-11.37-1.61-13.15,10.55,7.91,10.55,7.91Z"/><path class="cls-3" d="M682.37,540v11.18A15.61,15.61,0,0,0,698,566.78h7.51a15.61,15.61,0,0,0,15.61-15.61V540a2.3,2.3,0,0,0-2.31-2.31H684.68A2.3,2.3,0,0,0,682.37,540Z"/><path class="cls-1" d="M340.39,407.21H327v6.9h13.55v-7.33ZM792.79,89h-460A5.78,5.78,0,0,0,327,94.82V308.51h13.55V107.28a5.78,5.78,0,0,1,5.78-5.78h432.9a5.78,5.78,0,0,1,5.78,5.78v397.1a5.78,5.78,0,0,1-5.78,5.78H346.35a5.78,5.78,0,0,1-5.78-5.78v-97.6l-.18.43H327V516.84a5.78,5.78,0,0,0,5.78,5.78h460a5.78,5.78,0,0,0,5.78-5.78v-422A5.78,5.78,0,0,0,792.79,89Zm-458,246.68L327,332.5v3.6l.12,0,6.6,2.37a1.49,1.49,0,0,0,1.95-1.07,1.39,1.39,0,0,0,0-.35A1.47,1.47,0,0,0,334.81,335.72Z"/><rect class="cls-1" x="375.95" y="125.46" width="47.41" height="64.17" rx="4"/><path class="cls-3" d="M399.65,139.33c0,2.24-1.36,4-3,4s-3-1.81-3-4,1.36-4,3-4S399.65,137.1,399.65,139.33Z"/><rect class="cls-1" x="442.58" y="125.46" width="47.41" height="64.17" rx="4"/><ellipse class="cls-3" cx="463.25" cy="139.33" rx="3.04" ry="4.05"/><rect class="cls-1" x="664.88" y="125.46" width="47.41" height="64.17" rx="4"/><ellipse class="cls-3" cx="685.55" cy="139.33" rx="3.04" ry="4.05"/><rect class="cls-1" x="710.69" y="430.8" width="38.74" height="52.43" rx="4"/><path class="cls-3" d="M730.06,442.14c0,1.82-1.11,3.3-2.48,3.3s-2.48-1.48-2.48-3.3,1.11-3.31,2.48-3.31S730.06,440.31,730.06,442.14Z"/><rect class="cls-1" x="375.95" y="213.27" width="47.41" height="64.17" rx="4"/><path class="cls-3" d="M399.65,227.15c0,2.24-1.36,4-3,4s-3-1.81-3-4,1.36-4.05,3-4.05S399.65,224.91,399.65,227.15Z"/><path class="cls-1" d="M642.47,128.35v106A21.12,21.12,0,0,1,627.4,254.6a21.37,21.37,0,0,1-6,.87H522a2.82,2.82,0,0,1-.83-.12,3,3,0,0,1-1.24-.75,2.87,2.87,0,0,1-.83-2V128.35a2.89,2.89,0,0,1,2.9-2.89H639.58A2.89,2.89,0,0,1,642.47,128.35Z"/><circle class="cls-3" cx="575.97" cy="142.4" r="4.8"/><path class="cls-3" d="M588.32,171.13h-52a1.74,1.74,0,0,1-1.74-1.73h0a1.74,1.74,0,0,1,1.74-1.74h52a1.74,1.74,0,0,1,1.74,1.74h0A1.74,1.74,0,0,1,588.32,171.13Z"/><path class="cls-3" d="M566.16,185.58H536.29a1.73,1.73,0,0,1-1.74-1.73h0a1.73,1.73,0,0,1,1.74-1.73h29.87a1.72,1.72,0,0,1,1.73,1.73h0A1.72,1.72,0,0,1,566.16,185.58Z"/><path class="cls-3" d="M610.68,185.58H580.81a1.73,1.73,0,0,1-1.74-1.73h0a1.73,1.73,0,0,1,1.74-1.73h29.87a1.73,1.73,0,0,1,1.73,1.73h0A1.73,1.73,0,0,1,610.68,185.58Z"/><path class="cls-3" d="M566.16,199.65H536.29a1.73,1.73,0,0,1-1.74-1.73h0a1.74,1.74,0,0,1,1.74-1.74h29.87a1.73,1.73,0,0,1,1.73,1.74h0A1.72,1.72,0,0,1,566.16,199.65Z"/><path class="cls-3" d="M737.29,313.21s9.54,1.69,9.54,19.85v18.16H682.94S676,313.21,737.29,313.21Z"/><path class="cls-5" d="M733.1,330.41H697.25a1.3,1.3,0,0,1-1.3-1.3h0a1.3,1.3,0,0,1,1.3-1.3H733.1a1.3,1.3,0,0,1,1.3,1.3h0A1.3,1.3,0,0,1,733.1,330.41Z"/><path class="cls-5" d="M727.61,340.37H697.25a1.3,1.3,0,0,1-1.3-1.3h0a1.3,1.3,0,0,1,1.3-1.3h30.36a1.3,1.3,0,0,1,1.3,1.3h0A1.3,1.3,0,0,1,727.61,340.37Z"/><path class="cls-1" d="M713.59,369.38H647.68s-6.94-28.91,8.67-49.12,82.67-7.78,80.94-7.05S702,319,713.59,369.38Z"/><path class="cls-1" d="M691.62,223.1S685.83,252,696,265.62s13.59,17.67,13.59,17.67l37.29-8.67s-11.85-14-15.32-29.26-2.6-22.26-2.6-22.26Z"/><circle class="cls-3" cx="710.88" cy="233.59" r="3.08"/><path class="cls-1" d="M757.09,157.54s4.48,22.39-3.36,32.94-10.52,13.69-10.52,13.69l-28.89-6.72s9.18-10.84,11.87-22.66,2-17.25,2-17.25Z"/><path class="cls-3" d="M739.79,165.67a2.38,2.38,0,1,0,2.38-2.38A2.37,2.37,0,0,0,739.79,165.67Z"/><path class="cls-3" d="M600.28,234.37a21.1,21.1,0,0,1,21.1-21.1h-98a21.1,21.1,0,1,0,0,42.2h98A21.1,21.1,0,0,1,600.28,234.37Z"/><path class="cls-8" d="M351.94,554.37s19.81,33.64,29.52,46,47.76,45,57.3,53.59,28.46,27.21,31.31,30.43l2.85,3.21,11.21-11.38s-55.53-74.81-58.8-79.53-29-40-31.66-44.7S387.94,537,387.94,537Z"/><path class="cls-6" d="M341.18,449.19s29.94,59,34.95,67.46S386.92,534,385,537.46s-28.13,21.58-30.83,21.2-43.94-54.73-43.94-54.73Z"/><path class="cls-5" d="M546.33,682.74c-2.51,2.46-62.21,38.17-66.56,33.44a49,49,0,0,1-4.62-6.22c-2.83-4.38-5.17-8.8-5.17-8.8s-9.05-9.07-6.62-13,6.74-4,10.43-7.28,5.34-10,11.45-8.86,11.5,5.88,17,6.64c4.88.68,30-10.56,40.1-9.52a5.84,5.84,0,0,1,2.94,1C551.85,675,548.84,680.28,546.33,682.74Z"/><path class="cls-3" d="M506.67,684.34c-.87-1-.44-2.57-.16-3.76a18.64,18.64,0,0,1,1.28-3.63.86.86,0,0,0-1.57-.72,20.06,20.06,0,0,0-1.59,4.88c-.27,1.46-.4,3,.62,4.23.72.84,2.15-.15,1.42-1Z"/><path class="cls-3" d="M512.76,682.89c-1-1.21-.63-2.69-.19-4.07a10,10,0,0,1,1.75-3.59c.72-.85-.61-2-1.34-1.11A12.68,12.68,0,0,0,510.7,679a5.09,5.09,0,0,0,.64,4.85c.72.85,2.14-.14,1.42-1Z"/><path class="cls-3" d="M518.61,680.53c.07-2,.2-4.2,2-5.41.93-.62-.07-2-1-1.42-2.34,1.59-2.62,4.37-2.72,7,0,1.12,1.69,1,1.73-.14Z"/><path class="cls-3" d="M500.3,677c-3.31-.57-8.95-.56-11.28,2.42-2.57,3.3,2.1,5.21,4.68,5.49,3.11.33,7.22-.75,7.63-4.47.24-2.18-1.23-4-.27-6.27.74-1.73,4.93-3.49,4-.77-.18.55-3.49,3.75-3.61,3.46-.42-1-2.06-.45-1.63.58,1.59,3.91,5.82-1.84,6.88-3.34.74-1.07,1.38-2,.32-3.06a4.41,4.41,0,0,0-4.1-.68c-3.59,1-4.17,4.58-3.76,7.78.3,2.29,0,4.12-2.46,4.89-.92.28-4.63.56-5.41-.39l-.26-2.7,1.32-.61a13.73,13.73,0,0,1,2.41-.68,14.89,14.89,0,0,1,5.2.06.87.87,0,0,0,.31-1.71Z"/><path class="cls-3" d="M365.34,544.88s-17.64,14.16-15,17.63,6.36,10.12,9,10.12,22.54-10.12,27.46-17.35,8.38-9.83,5.78-14.45-7.39-10.11-8.38-9.78S365.34,544.88,365.34,544.88Z"/><path class="cls-3" d="M546.33,682.74c-2.51,2.46-62.21,38.17-66.56,33.44a49,49,0,0,1-4.62-6.22c20-3.39,61.49-27.32,65.05-33.52a14.46,14.46,0,0,0,2.11-7.31,5.84,5.84,0,0,1,2.94,1C551.85,675,548.84,680.28,546.33,682.74Z"/><path class="cls-7" d="M539.69,638.42a33.31,33.31,0,0,1-33.27-33.27V465.21h1.15V605.15a32.12,32.12,0,0,0,64.24,0V447.67H573V605.15A33.31,33.31,0,0,1,539.69,638.42Z"/><path class="cls-7" d="M576,582.91a40.77,40.77,0,0,1-40.72-40.72V490.46h1.16v51.73a39.56,39.56,0,0,0,79.12,0V490.46h1.16v51.73A40.77,40.77,0,0,1,576,582.91Z"/><path class="cls-9" d="M282.44,442.74s3.46,21,16.46,25.94,20.53-1.78,13.88-15.2S292,438.2,282.44,442.74Z"/><path class="cls-10" d="M263.1,407.21a52.1,52.1,0,0,1-4.38,6.9,68.15,68.15,0,0,1-6.94,7.93,24.77,24.77,0,0,1-10.34,6.37,17.09,17.09,0,0,1-3.12.59,13,13,0,0,1-5.49-.59c-5-1.71-8.17-6.71-7.15-14.25h0a.08.08,0,0,1,0,0c0-.19.05-.38.08-.57a27.53,27.53,0,0,1,1.83-6.33Z"/><path class="cls-9" d="M250.38,326.56l-5.24,13.87a11.67,11.67,0,0,1-1.45-2.7C240.89,330.38,244.66,326.63,250.38,326.56Z"/><path class="cls-9" d="M270.6,349.58a51.4,51.4,0,0,1-16.51-2.82c2-1.78,4-3.49,5.87-5.06l1.07-.9c2.37-2,4.55-3.69,6.45-5.05,3.35,4.65,2.7,8.86,2.77,11.72A5.75,5.75,0,0,0,270.6,349.58Z"/><path class="cls-10" d="M327.14,336.14l-.12,0-20.93-7.51h0a2.24,2.24,0,0,0-2.68,1.35c-.86,1.73-1.72,4.5-3.49,6.1a5.4,5.4,0,0,1-1,.73,4.44,4.44,0,0,1-1.11.4l-.23,0c-3.33.65-8.48.12-10.17,1.11-.52.31-1.58,1.08-2.81,2-1.82-3.53-2.87-5.8-2.87-5.8h0a12.53,12.53,0,0,1,.94-1.82c2.46-3.89,7.06-6.7,12.53-8a31.85,31.85,0,0,1,9.87-.77c.52,0,1.05.09,1.57.16a31.29,31.29,0,0,1,5.33,1.14,4.26,4.26,0,0,1-.2,1l9.92,4.1A28.11,28.11,0,0,1,327,336Z"/><path class="cls-10" d="M270.6,301.68S261,268.06,245.42,275s-12.58,25.44-2.68,32.09S270.6,301.68,270.6,301.68Z"/><path class="cls-10" d="M282.44,652.9s3.46,21,16.46,25.93,20.53-1.77,13.88-15.19S292,648.35,282.44,652.9Z"/><path class="cls-9" d="M266.13,609.45s-1.63,10.21-14.35,22.74-28.61,7.48-26-8.5S244.92,594.41,266.13,609.45Z"/><path class="cls-10" d="M270.6,559.73c-1.41-3.25,2.58-10.69-7.83-18.5s-23.7-5.49-19.08,6.65S270.6,559.73,270.6,559.73Z"/><path class="cls-10" d="M281.67,544.68s20.92,45.41,38.3,45.12,20.27-21.59,8.42-41.58S287.28,531.36,281.67,544.68Z"/><path class="cls-9" d="M270.6,511.83s-9.57-33.61-25.18-26.68-12.58,25.44-2.68,32.09S270.6,511.83,270.6,511.83Z"/><path class="cls-11" d="M270.6,241.18s-1.18-26.31-16.5-31.51S226.92,224.12,238.2,236,270.6,241.18,270.6,241.18Z"/><path class="cls-10" d="M274.45,181.28s-1.85-28.56-16.59-35.21-35,3.47-24.12,22.55S274.45,181.28,274.45,181.28Z"/><path class="cls-11" d="M278.78,175s-5.38-15.22,0-25.82S300.64,125,302.08,141,291.32,169.78,278.78,175Z"/><path class="cls-10" d="M277.62,218.14s-6.76-18,12.9-24.66,30.35,2.6,19.37,13.59S285,222.56,277.62,218.14Z"/><path class="cls-10" d="M281.67,254s3.65-12.48,16.08-15.66,23.41,3.76,15.32,11S290.63,261.31,281.67,254Z"/><path class="cls-9" d="M282.41,280.8s4.35-12.45,14.18-16.78,25.58,3.46,17.71,12.14S282.41,280.8,282.41,280.8Z"/><path class="cls-10" d="M241.34,407.21A28.14,28.14,0,0,0,237.7,411a.58.58,0,1,1-.93-.69,28.83,28.83,0,0,1,2.87-3.12Z"/><polygon class="cls-10" points="278.78 312.56 278.78 318.8 277.62 318.39 277.62 312.08 278.78 312.56"/><path class="cls-10" d="M299.91,271.75a.57.57,0,0,1-.64.5A14.5,14.5,0,0,0,288.6,276a117.48,117.48,0,0,0-9.82,10.91v21.6h-1.31a.47.47,0,0,1-.23-.12c-.05-.05-3.57-3.09-7.7-6l-1.33-.94a45.87,45.87,0,0,0-5.55-3.34c-5.87-2.87-9.61-1.44-9.65-1.43a.58.58,0,0,1-.43-1.07c.17-.07,4.21-1.65,10.59,1.46a53.4,53.4,0,0,1,7.05,4.38l.38.27c3.24,2.34,6,4.68,7,5.52V260.77l-.14,0a.59.59,0,0,1-.42-.71,8.13,8.13,0,0,1,.56-1.31v-2.52a.57.57,0,0,1-.57-.58c0-1.27-7.41-17-15.17-22-7.51-4.8-12-4.61-12.08-4.61a.59.59,0,0,1-.62-.54.58.58,0,0,1,.54-.61c.2,0,4.91-.25,12.78,4.79,6.68,4.27,13.19,16.25,15.12,21.07V190.52c-.52-1.21-5.81-13.39-12.12-21.15-6.52-8-16.51-9.79-16.61-9.81a.59.59,0,0,1-.47-.67.57.57,0,0,1,.67-.47c.42.07,10.5,1.87,17.31,10.22,5,6.09,9.27,14.82,11.22,19.05V168.05a.57.57,0,0,1-.57-.52c0-.19-.46-4.75,5-11.23,5.27-6.21,6-6.93,6.08-7a.58.58,0,0,1,.79.85s-.79.77-6,6.89a20.76,20.76,0,0,0-4.33,7.53h.15v51c1.69-3.32,5.17-9.41,9.36-12.76,5.91-4.73,10.66-4,10.86-4a.58.58,0,0,1-.19,1.14s-4.47-.65-9.95,3.73c-5.3,4.24-9.59,13.44-10.08,14.52v38.49c.15-.24.32-.48.5-.74,1.84-2.66,12.92-7.85,14.18-8.44a.58.58,0,0,1,.76.29.56.56,0,0,1-.28.76c-3.33,1.55-12.3,6-13.71,8.05a23.92,23.92,0,0,0-1.45,2.33v26.05a112.75,112.75,0,0,1,9-9.91,15.46,15.46,0,0,1,11.59-4.06A.58.58,0,0,1,299.91,271.75Z"/><path class="cls-10" d="M299.9,336a5.4,5.4,0,0,1-1,.73l-1-.55a30,30,0,0,0-5.65-2.42c-5.39-1.63-8.65-.64-10.55.72h0a6.74,6.74,0,0,0-2.35,2.87.56.56,0,0,1-.54.38v13.31l-1.16,1.31v-19l1.16-.61V336a8.83,8.83,0,0,1,3.84-3.28c2.2-1,5.4-1.38,9.95,0a30.94,30.94,0,0,1,5.72,2.42C298.82,335.4,299.36,335.71,299.9,336Z"/><path class="cls-10" d="M276,354.2l-.79.87c-1.27-1.59-2.9-3.57-4.6-5.49a60.8,60.8,0,0,0-4.46-4.63A15.46,15.46,0,0,0,260,341.7l1.07-.9a16.36,16.36,0,0,1,5.89,3.3c1.06,1,2.2,2.13,3.33,3.37C272.33,349.73,274.41,352.24,276,354.2Z"/><path class="cls-10" d="M300.21,457l-.15,0a.58.58,0,0,1-.56-.43,26,26,0,0,0-7.35-11.12c-4.95-4.57-11.78-2.43-13.37-1.84V702.88h-1.16V414.14a.58.58,0,0,1-.19,0,.56.56,0,0,1-.37-.43,21,21,0,0,0-2.77-6.47h1.29a24.32,24.32,0,0,1,2,4.34v-4.34h1.16v35.2c2.31-.78,9.08-2.47,14.16,2.21a26.94,26.94,0,0,1,7.68,11.67A.58.58,0,0,1,300.21,457Z"/><path class="cls-10" d="M314.24,560.6a.55.55,0,0,1-.45.22.62.62,0,0,1-.36-.12c-.12-.1-.31-.29-.76-.76-7.3-7.6-14.18-12.42-20.44-14.32-10.29-3.11-12.81,3.33-12.91,3.6a.56.56,0,0,1-.54.38V654.23c2.31-.78,9.08-2.48,14.16,2.21a26.89,26.89,0,0,1,7.68,11.67.59.59,0,0,1-.41.71h-.15a.57.57,0,0,1-.56-.42,26.15,26.15,0,0,0-7.35-11.12c-4.95-4.58-11.78-2.43-13.37-1.84V693h-1.16V626a.57.57,0,0,1-.56-.46c-.12-.57-3.09-14-16.71-14.19H260c-13.59,0-22.24,11.41-22.32,11.53a.58.58,0,0,1-.93-.69c.09-.12,9.06-12,23.25-12h.35c11.37.15,15.83,9.19,17.25,13.21V570c-.9-1.19-7-9.13-11.48-13.21s-11.73-4.18-12.42-4.18h-.05a.58.58,0,0,1-.58-.57.57.57,0,0,1,.56-.59c.34,0,8.24-.1,13.27,4.49a114,114,0,0,1,10.7,12.17V520.35a.56.56,0,0,1-.38-.14c-.08-.07-8.51-7.35-14.58-10.32-5.87-2.87-9.61-1.45-9.65-1.43a.58.58,0,0,1-.43-1.07c.17-.07,4.21-1.65,10.59,1.46,5.54,2.71,12.73,8.69,14.45,10.16V502.48h1.16V547.8c1.27-2,5-5.94,13.79-3.29,6.45,2,13.49,6.88,20.94,14.63.29.31.57.6.64.65A.57.57,0,0,1,314.24,560.6Z"/><path class="cls-1" d="M316.51,700.73c-7.38-1.77-26-3.32-33.67-2.81-7.71-.51-26.3,1-33.67,2.81-8.1,1.94,2.4,52.28,5.51,66.36a4.61,4.61,0,0,0,4.51,3.62h47.29a4.61,4.61,0,0,0,4.51-3.62C314.1,753,324.6,702.67,316.51,700.73Z"/><path class="cls-11" d="M523.18,230.68c-12.33-.77-25,.77-36,14.84-7.33,9.38-9.18,21-9.6,27.67a6.36,6.36,0,0,0,5.33,6.65c23.55,3.9,34.41-12.34,43.39-25.26,9.63-13.87,10.79-15.81,14.06-17.93S535.52,231.45,523.18,230.68Zm-37.77,21.68c2.8-4.14,3.76,6.36,3.76,6.36S482.62,256.5,485.41,252.36Zm10.21-7.61c3.86,2-2.31,11.56-2.31,11.56S491.77,242.72,495.62,244.75Zm16.1,20.62c-1.45,6.94-11.53,5.47-16.47,4.3a1.15,1.15,0,0,1-.29-2.13C500.45,264.49,513.24,258.08,511.72,265.37Zm6.65-9.06c-2.8,4.63-14.46,0-14.46,0S521.16,251.69,518.37,256.31ZM507,252a1.73,1.73,0,0,1-1.95-2.76c5.45-6,14.43-14.37,19.07-10.89C529,242,515.58,248.47,507,252Z"/><path class="cls-9" d="M558.45,286.57c-4.24-5.78-25.25-24.86-49.15-20.23-20.69,4-29,22.92-30.82,27.93a2.84,2.84,0,0,0,.26,2.52c2,3.09,8.85,10.47,29.41,8.47,25.83-2.5,35.08-13.3,41.74-14.65S562.69,292.35,558.45,286.57Zm-44-13.69c5.09,3.85-9.73,11.86-9.73,11.86s-7.23,3.32-10.69,0S509.36,269,514.46,272.88Zm-15.94,26.89c-4.63-4.48,7.08-7.37,7.08-7.37,3.19-1,12.86.14,13.07,3.68S503.14,304.25,498.52,299.77Zm23.83-19.59a3.7,3.7,0,0,1,.2-4.44c1.87-2.4,5.9-6.45,9-1.84C535.06,279.21,525.34,284.3,522.35,280.18Zm.59,9.18s16.77-6.94,17.35-2S520.49,297.17,522.94,289.36Z"/><path class="cls-10" d="M409.9,226.89c4.35,5.22,5.32,21.93,23.89,40.06,14.78,14.42,24.77,13,28.23,11.81A2.84,2.84,0,0,0,463.8,277c1.7-5.06,7.09-25-6.53-41.07-15.74-18.58-44.07-16.86-51-15C406.28,220.87,405.55,221.66,409.9,226.89Zm47.75,32.89c-4.79.42-8.34-6.69-8.34-6.69s-6.54-15.53-.16-15.33S462.43,259.36,457.65,259.78Zm-26.32-6.58c2.38-2.63,10.67,2.5,12.5,5.32,0,0,7.32,9.58.91,10.18S429,255.83,431.33,253.2Zm3.88-25.34c5.28-1.67,5.88,4,5.84,7.06a3.72,3.72,0,0,1-2.62,3.58C433.51,239.84,429.13,229.78,435.21,227.86Zm-15.25,5c3.52-3.47,12.25,12.44,12.25,12.44C429.24,252.91,416.43,236.32,420,232.85Z"/><path class="cls-11" d="M433.19,280.43c-20.82-15.93-45.1-7-43.94-3.21s4.91,25.14,19.36,36,37.51,7.16,42,2.35C450.64,315.56,454,296.35,433.19,280.43Zm-24.56-3a1,1,0,0,1,.77-.11c1.25.18,2.77.29,4.26.54,3,.52,5.87,1.64,5.86,5.19,0,6.12-9.55-2.88-10.68-4.31C408.54,278.35,408.26,277.74,408.63,277.42Zm-10.52,11.85c-3.85-14.07,20.81,5.39,20.81,5.39C423.36,303.14,402,303.33,398.11,289.27Zm21.42,17c.21-5.78,12.11,3.08,12.11,3.08C431.91,317.1,419.31,312,419.53,306.22ZM429,291.39s-6.94-10-1.16-8.1S432.41,295.05,429,291.39Z"/><path class="cls-10" d="M487.11,292.56c-13.4,3.24-20.85,9.41-24.21,13A93.11,93.11,0,0,1,477,281.06c13.12-16,18.13-21,18.18-21.06l-.82-.82c-.05.05-5.09,5.12-18.25,21.14A86.59,86.59,0,0,0,467.53,293c-2.93-21.82-16.13-38.27-16.26-38.44l-.9.73c.14.17,13.78,17.17,16.21,39.46a89.62,89.62,0,0,0-9.74,28.73c-6-11.51-25.68-22.15-26.56-22.62l-.55,1c.22.12,22.21,12,26.84,23.79a42.47,42.47,0,0,0,1.21,16.73c5.52,18,14.44,21.44,14.82,21.57l.4-1.08c-.09,0-8.79-3.45-14.11-20.83-2.9-9.45-1.32-21.58,2.78-33.28.17-.26,7.21-10.65,25.71-15.13,18.73-4.54,26.91-4,27-4l.09-1.15C514.12,288.47,506.06,288,487.11,292.56Z"/><path class="cls-1" d="M495.81,394.34c-.92,5.24-1.91,10.19-2.68,13.83-.44,2.07-.81,3.71-1,4.74-.17.77-.27,1.2-.27,1.2h-38s-11-47.12-4.41-48.69c4.73-1.13,16.07-2.15,22-2h0c.51,0,1,0,1.4,0a62.89,62.89,0,0,1,6.54,0c2.45.11,5.14.31,7.7.57Z"/><path class="cls-4" d="M618.56,517.4H380.69a11,11,0,0,1-11-11v-78H618.56Z"/><path class="cls-1" d="M522.2,502.49H365.92a7,7,0,0,1-7-7V455.14a7,7,0,0,1,7-7H522.2Z"/><rect class="cls-3" x="522.2" y="448.14" width="40.26" height="54.35"/><path class="cls-1" d="M393.05,448.14V433.7H540.14v14.44Z"/><rect class="cls-12" x="377.68" y="438.33" width="152.19" height="9.81"/><rect class="cls-7" x="540.14" y="443.23" width="9.75" height="4.9"/><path class="cls-4" d="M446.29,464.73a5.49,5.49,0,1,1-5.49-5.49A5.49,5.49,0,0,1,446.29,464.73Z"/><path class="cls-5" d="M335.73,337.09a1.39,1.39,0,0,1,0,.35,1.49,1.49,0,0,1-1.95,1.07l-6.6-2.37-.12,0-20.93-7.51h0a2.24,2.24,0,0,0-2.68,1.35c-.86,1.73-1.72,4.5-3.49,6.1a5.4,5.4,0,0,1-1,.73,4.44,4.44,0,0,1-1.11.4l-.23,0c-3.33.65-8.48.12-10.17,1.11-.52.31-1.58,1.08-2.81,2l-3,2.34c.94,1.69,1.22,3.3.13,4.93-.35.52-1.36,1.74-2.89,3.49l-1.16,1.31v3.87c-.43-.56-1-1.27-1.63-2.07l-.79.87c-11.38,12.4-35.11,36.38-52.4,47l14.92-40.56c5.26-4.77,11-10,16.37-14.77,2-1.78,4-3.49,5.87-5.06l1.07-.9c2.37-2,4.55-3.69,6.45-5.05,3.92-2.8,6.64-4.06,7.3-2.74.24.47.49.93.77,1.38.5-.22,1.22-.55,2.07-1l1.16-.61a27.55,27.55,0,0,0,6.54-4.74,47,47,0,0,0,4.23-5.4l-10.77-3.86-1.16-.41-8-2.87a1.49,1.49,0,0,1-1-1.67l.58-3.27a1.5,1.5,0,0,1,2-1.12l6.34,2.62,1.16.48,14.35,5.93a11.44,11.44,0,0,1,3-2c4.92-2.17,6.51-2.46,8.68-.72a36.55,36.55,0,0,1,5.38,4.71,7,7,0,0,1,1.41,2.37,6,6,0,0,1,.29,2.34,4.26,4.26,0,0,1-.2,1l9.92,4.1L327,332.5l7.79,3.22A1.47,1.47,0,0,1,335.73,337.09Z"/><path class="cls-5" d="M412.35,306l-2.79,7.84-22,61.86-.23.63-5.73,16.11-.19.55-6.68,18.77a3.47,3.47,0,0,1-3.27,2.31H223.35a3.48,3.48,0,0,1-3.47-3.52,3.6,3.6,0,0,1,.22-1.15l.13-.36.9-2.43h0l.37-1a2.88,2.88,0,0,0,2.57,1.57H340.39l.18-.43v.43h15.82a2.88,2.88,0,0,0,2.71-1.9l33.78-92.92a2.89,2.89,0,0,0-2.72-3.88h-131a2.86,2.86,0,0,0-2.59,1.63l.83-2.26h0l1.54-4.19a3.45,3.45,0,0,1,3.25-2.27H409.08A3.47,3.47,0,0,1,412.35,306Z"/><path class="cls-4" d="M334.81,335.72,327,332.5l-5.38-2.22A28.11,28.11,0,0,1,327,336l.12.17,6.6,2.37a1.49,1.49,0,0,0,1.95-1.07,1.39,1.39,0,0,0,0-.35A1.47,1.47,0,0,0,334.81,335.72Zm0,0L327,332.5l-5.38-2.22-9.92-4.1a4.26,4.26,0,0,0,.2-1,6,6,0,0,0-.29-2.34,7,7,0,0,0-1.41-2.37,36.55,36.55,0,0,0-5.38-4.71c-2.17-1.74-3.76-1.45-8.68.72a11.44,11.44,0,0,0-3,2l-14.35-5.93-1.16-.48-6.34-2.62a1.5,1.5,0,0,0-2,1.12l-.58,3.27a1.49,1.49,0,0,0,1,1.67l8,2.87,1.16.41,10.77,3.86a47,47,0,0,1-4.23,5.4,27.55,27.55,0,0,1-6.54,4.74V336a8.83,8.83,0,0,1,3.84-3.28c2.2-1,5.4-1.38,9.95,0a30.94,30.94,0,0,1,5.72,2.42c.53.28,1.07.59,1.61.92,1.77-1.6,2.63-4.37,3.49-6.1a2.24,2.24,0,0,1,2.68-1.35h0L327,336.1l.12,0,6.6,2.37a1.49,1.49,0,0,0,1.95-1.07,1.39,1.39,0,0,0,0-.35A1.47,1.47,0,0,0,334.81,335.72Zm-36.93.5a30,30,0,0,0-5.65-2.42c-5.39-1.63-8.65-.64-10.55.72h0a6.74,6.74,0,0,0-2.35,2.87.56.56,0,0,1-.54.38v1.05a29.63,29.63,0,0,1,2.76,3.84l3-2.34c1.23-.93,2.29-1.7,2.81-2,1.69-1,6.84-.46,10.17-1.11l.23,0a4.44,4.44,0,0,0,1.11-.4Zm36.93-.5L327,332.5l-5.38-2.22-9.92-4.1a4.26,4.26,0,0,0,.2-1,6,6,0,0,0-.29-2.34,7,7,0,0,0-1.41-2.37,36.55,36.55,0,0,0-5.38-4.71c-2.17-1.74-3.76-1.45-8.68.72a11.44,11.44,0,0,0-3,2l-14.35-5.93-1.16-.48-6.34-2.62a1.5,1.5,0,0,0-2,1.12l-.58,3.27a1.49,1.49,0,0,0,1,1.67l8,2.87,1.16.41,10.77,3.86a47,47,0,0,1-4.23,5.4,27.55,27.55,0,0,1-6.54,4.74V336a8.83,8.83,0,0,1,3.84-3.28c2.2-1,5.4-1.38,9.95,0a30.94,30.94,0,0,1,5.72,2.42c.53.28,1.07.59,1.61.92,1.77-1.6,2.63-4.37,3.49-6.1a2.24,2.24,0,0,1,2.68-1.35h0L327,336.1l.12,0,6.6,2.37a1.49,1.49,0,0,0,1.95-1.07,1.39,1.39,0,0,0,0-.35A1.47,1.47,0,0,0,334.81,335.72Zm-36.93.5a30,30,0,0,0-5.65-2.42c-5.39-1.63-8.65-.64-10.55.72h0a6.74,6.74,0,0,0-2.35,2.87.56.56,0,0,1-.54.38v1.05a29.63,29.63,0,0,1,2.76,3.84l3-2.34c1.23-.93,2.29-1.7,2.81-2,1.69-1,6.84-.46,10.17-1.11l.23,0a4.44,4.44,0,0,0,1.11-.4Zm36.93-.5L327,332.5l-5.38-2.22-9.92-4.1a4.26,4.26,0,0,0,.2-1,6,6,0,0,0-.29-2.34,7,7,0,0,0-1.41-2.37,36.55,36.55,0,0,0-5.38-4.71c-2.17-1.74-3.76-1.45-8.68.72a11.44,11.44,0,0,0-3,2l-14.35-5.93-1.16-.48-6.34-2.62a1.5,1.5,0,0,0-2,1.12l-.58,3.27a1.49,1.49,0,0,0,1,1.67l8,2.87,1.16.41,10.77,3.86a47,47,0,0,1-4.23,5.4,27.55,27.55,0,0,1-6.54,4.74l-1.16.61c-.85.43-1.57.76-2.07,1a29,29,0,0,0,2.07,3c.39.51.78,1,1.16,1.47v12.26c1.53-1.75,2.54-3,2.89-3.49,1.09-1.63.81-3.24-.13-4.93l3-2.34c1.23-.93,2.29-1.7,2.81-2,1.69-1,6.84-.46,10.17-1.11l.23,0a4.44,4.44,0,0,0,1.11-.4,5.4,5.4,0,0,0,1-.73c1.77-1.6,2.63-4.37,3.49-6.1a2.24,2.24,0,0,1,2.68-1.35h0L327,336.1l.12,0,6.6,2.37a1.49,1.49,0,0,0,1.95-1.07,1.39,1.39,0,0,0,0-.35A1.47,1.47,0,0,0,334.81,335.72Zm-57.19,75.83v-4.34h-2A24.32,24.32,0,0,1,277.62,411.55Zm0-55.28V352.4L276,354.2C276.63,355,277.19,355.71,277.62,356.27ZM400.9,301.41H254.07a3.46,3.46,0,0,0-3.26,2.27l-2,5.37-23.21,63.12-8.35,22.67h0l-4.4,12-.83,2.26-.13.36a3.31,3.31,0,0,0-.17,1.69,3.37,3.37,0,0,0,1.13,2.09s0,0,0,0a3.37,3.37,0,0,0,1.11.66,4,4,0,0,0,1.15.19H363.29a3.49,3.49,0,0,0,3.27-2.31l36.79-103.46.82-2.3A3.46,3.46,0,0,0,400.9,301.41Zm-8,11L359.1,405.31a2.88,2.88,0,0,1-2.71,1.9H340.57v-.43l-.18.43H224.07a2.88,2.88,0,0,1-2.57-1.57,2.83,2.83,0,0,1-.14-2.34l.17-.44c.42-.24.84-.5,1.27-.77,17.29-10.64,41-34.62,52.4-47l.79-.87c.64.8,1.2,1.51,1.63,2.07V352.4l1.16-1.31c1.53-1.75,2.54-3,2.89-3.49,1.09-1.63.81-3.24-.13-4.93l3-2.34c1.23-.93,2.29-1.7,2.81-2,1.69-1,6.84-.46,10.17-1.11l.23,0a4.44,4.44,0,0,0,1.11-.4,5.4,5.4,0,0,0,1-.73c1.77-1.6,2.63-4.37,3.49-6.1a2.24,2.24,0,0,1,2.68-1.35h0L327,336.1l.12,0,6.6,2.37a1.49,1.49,0,0,0,1.95-1.07,1.39,1.39,0,0,0,0-.35,1.47,1.47,0,0,0-.92-1.37L327,332.5l-5.38-2.22-9.92-4.1a4.26,4.26,0,0,0,.2-1,6,6,0,0,0-.29-2.34,7,7,0,0,0-1.41-2.37,36.55,36.55,0,0,0-5.38-4.71c-2.17-1.74-3.76-1.45-8.68.72a11.44,11.44,0,0,0-3,2l-14.35-5.93-1.16-.48-6.34-2.62a1.5,1.5,0,0,0-2,1.12l-.58,3.27a1.49,1.49,0,0,0,1,1.67l8,2.87,1.16.41,10.77,3.86a47,47,0,0,1-4.23,5.4,27.55,27.55,0,0,1-6.54,4.74l-1.16.61c-.85.43-1.57.76-2.07,1-.28-.45-.53-.91-.77-1.38-.66-1.32-3.38-.06-7.3,2.74-1.9,1.36-4.08,3.09-6.45,5.05l-1.07.9c-1.87,1.57-3.85,3.28-5.87,5.06-5.37,4.73-11.11,10-16.37,14.77l-.86.77,8.28-21.87,5.24-13.87h.2l6-16.41a2.86,2.86,0,0,1,2.59-1.63h131A2.89,2.89,0,0,1,392.88,312.39ZM276,354.2c.64.8,1.2,1.51,1.63,2.07V352.4Zm-.41,53a24.32,24.32,0,0,1,2,4.34v-4.34Zm59.23-71.49L327,332.5l-5.38-2.22-9.92-4.1a4.26,4.26,0,0,0,.2-1,6,6,0,0,0-.29-2.34,7,7,0,0,0-1.41-2.37,36.55,36.55,0,0,0-5.38-4.71c-2.17-1.74-3.76-1.45-8.68.72a11.44,11.44,0,0,0-3,2l-14.35-5.93-1.16-.48-6.34-2.62a1.5,1.5,0,0,0-2,1.12l-.58,3.27a1.49,1.49,0,0,0,1,1.67l8,2.87,1.16.41,10.77,3.86a47,47,0,0,1-4.23,5.4,27.55,27.55,0,0,1-6.54,4.74l-1.16.61c-.85.43-1.57.76-2.07,1a29,29,0,0,0,2.07,3c.39.51.78,1,1.16,1.47v12.26c1.53-1.75,2.54-3,2.89-3.49,1.09-1.63.81-3.24-.13-4.93l3-2.34c1.23-.93,2.29-1.7,2.81-2,1.69-1,6.84-.46,10.17-1.11l.23,0a4.44,4.44,0,0,0,1.11-.4,5.4,5.4,0,0,0,1-.73c1.77-1.6,2.63-4.37,3.49-6.1a2.24,2.24,0,0,1,2.68-1.35h0L327,336.1l.12,0,6.6,2.37a1.49,1.49,0,0,0,1.95-1.07,1.39,1.39,0,0,0,0-.35A1.47,1.47,0,0,0,334.81,335.72Zm-36.93.5a30,30,0,0,0-5.65-2.42c-5.39-1.63-8.65-.64-10.55.72h0a6.74,6.74,0,0,0-2.35,2.87.56.56,0,0,1-.54.38v1.05a29.63,29.63,0,0,1,2.76,3.84l3-2.34c1.23-.93,2.29-1.7,2.81-2,1.69-1,6.84-.46,10.17-1.11l.23,0a4.44,4.44,0,0,0,1.11-.4Zm36.93-.5L327,332.5l-5.38-2.22-9.92-4.1a4.26,4.26,0,0,0,.2-1,6,6,0,0,0-.29-2.34,7,7,0,0,0-1.41-2.37,36.55,36.55,0,0,0-5.38-4.71c-2.17-1.74-3.76-1.45-8.68.72a11.44,11.44,0,0,0-3,2l-14.35-5.93-1.16-.48-6.34-2.62a1.5,1.5,0,0,0-2,1.12l-.58,3.27a1.49,1.49,0,0,0,1,1.67l8,2.87,1.16.41,10.77,3.86a47,47,0,0,1-4.23,5.4,27.55,27.55,0,0,1-6.54,4.74V336a8.83,8.83,0,0,1,3.84-3.28c2.2-1,5.4-1.38,9.95,0a30.94,30.94,0,0,1,5.72,2.42c.53.28,1.07.59,1.61.92,1.77-1.6,2.63-4.37,3.49-6.1a2.24,2.24,0,0,1,2.68-1.35h0L327,336.1l.12,0,6.6,2.37a1.49,1.49,0,0,0,1.95-1.07,1.39,1.39,0,0,0,0-.35A1.47,1.47,0,0,0,334.81,335.72Zm-36.93.5a30,30,0,0,0-5.65-2.42c-5.39-1.63-8.65-.64-10.55.72h0a6.74,6.74,0,0,0-2.35,2.87.56.56,0,0,1-.54.38v1.05a29.63,29.63,0,0,1,2.76,3.84l3-2.34c1.23-.93,2.29-1.7,2.81-2,1.69-1,6.84-.46,10.17-1.11l.23,0a4.44,4.44,0,0,0,1.11-.4Zm36.93-.5L327,332.5l-5.38-2.22A28.11,28.11,0,0,1,327,336l.12.17,6.6,2.37a1.49,1.49,0,0,0,1.95-1.07,1.39,1.39,0,0,0,0-.35A1.47,1.47,0,0,0,334.81,335.72Z"/><polygon class="cls-12" points="387.33 376.37 406.98 414.11 400.04 414.11 381.6 392.48 387.33 376.37"/><path class="cls-13" d="M407.8,414.61h-8l-18.78-22,6.21-17.47Zm-7.53-1h5.88l-18.73-36-5.25,14.76Z"/><path class="cls-14" d="M392.88,312.39,359.1,405.31a2.88,2.88,0,0,1-2.71,1.9H340.57v-.43l-.18.43H224.07a2.88,2.88,0,0,1-2.57-1.57,2.83,2.83,0,0,1-.14-2.34l.17-.44c.42-.24.84-.5,1.27-.77,17.29-10.64,41-34.62,52.4-47l.79-.87c.64.8,1.2,1.51,1.63,2.07V352.4l1.16-1.31c1.53-1.75,2.54-3,2.89-3.49,1.09-1.63.81-3.24-.13-4.93l3-2.34c1.23-.93,2.29-1.7,2.81-2,1.69-1,6.84-.46,10.17-1.11l.23,0a4.44,4.44,0,0,0,1.11-.4,5.4,5.4,0,0,0,1-.73c1.77-1.6,2.63-4.37,3.49-6.1a2.24,2.24,0,0,1,2.68-1.35h0L327,336.1l.12,0,6.6,2.37a1.49,1.49,0,0,0,1.95-1.07,1.39,1.39,0,0,0,0-.35,1.47,1.47,0,0,0-.92-1.37L327,332.5l-5.38-2.22-9.92-4.1a4.26,4.26,0,0,0,.2-1,6,6,0,0,0-.29-2.34,7,7,0,0,0-1.41-2.37,36.55,36.55,0,0,0-5.38-4.71c-2.17-1.74-3.76-1.45-8.68.72a11.44,11.44,0,0,0-3,2l-14.35-5.93-1.16-.48-6.34-2.62a1.5,1.5,0,0,0-2,1.12l-.58,3.27a1.49,1.49,0,0,0,1,1.67l8,2.87,1.16.41,10.77,3.86a47,47,0,0,1-4.23,5.4,27.55,27.55,0,0,1-6.54,4.74l-1.16.61c-.85.43-1.57.76-2.07,1-.28-.45-.53-.91-.77-1.38-.66-1.32-3.38-.06-7.3,2.74-1.9,1.36-4.08,3.09-6.45,5.05l-1.07.9c-1.87,1.57-3.85,3.28-5.87,5.06-5.37,4.73-11.11,10-16.37,14.77l-.86.77,8.28-21.87,5.24-13.87h.2l6-16.41a2.86,2.86,0,0,1,2.59-1.63h131A2.89,2.89,0,0,1,392.88,312.39Z"/><path class="cls-15" d="M256.62,310.14l-6,16.41h-.2l6.12-16.18A1.34,1.34,0,0,1,256.62,310.14Z"/><path class="cls-15" d="M335.73,337.09a1.39,1.39,0,0,1,0,.35,1.49,1.49,0,0,1-1.95,1.07l-6.6-2.37-.12,0-20.93-7.51h0a2.24,2.24,0,0,0-2.68,1.35c-.86,1.73-1.72,4.5-3.49,6.1a5.4,5.4,0,0,1-1,.73,4.44,4.44,0,0,1-1.11.4l-.23,0c-3.33.65-8.48.12-10.17,1.11-.52.31-1.58,1.08-2.81,2l-3,2.34c.94,1.69,1.22,3.3.13,4.93-.35.52-1.36,1.74-2.89,3.49l-1.16,1.31v3.87c-.43-.56-1-1.27-1.63-2.07l-.79.87c-11.38,12.4-35.11,36.38-52.4,47-.43.27-.85.53-1.27.77l15.33-40.56.86-.77c5.26-4.77,11-10,16.37-14.77,2-1.78,4-3.49,5.87-5.06l1.07-.9c2.37-2,4.55-3.69,6.45-5.05,3.92-2.8,6.64-4.06,7.3-2.74.24.47.49.93.77,1.38.5-.22,1.22-.55,2.07-1l1.16-.61a27.55,27.55,0,0,0,6.54-4.74,47,47,0,0,0,4.23-5.4l-10.77-3.86-1.16-.41-8-2.87a1.49,1.49,0,0,1-1-1.67l.58-3.27a1.5,1.5,0,0,1,2-1.12l6.34,2.62,1.16.48,14.35,5.93a11.44,11.44,0,0,1,3-2c4.92-2.17,6.51-2.46,8.68-.72a36.55,36.55,0,0,1,5.38,4.71,7,7,0,0,1,1.41,2.37,6,6,0,0,1,.29,2.34,4.26,4.26,0,0,1-.2,1l9.92,4.1L327,332.5l7.79,3.22A1.47,1.47,0,0,1,335.73,337.09Z"/><path class="cls-15" d="M340.57,406.78v.43h-.18Z"/><path class="cls-12" d="M335.73,337.09a1.39,1.39,0,0,1,0,.35,1.49,1.49,0,0,1-1.95,1.07l-6.6-2.37-.12,0-20.93-7.51h0a2.24,2.24,0,0,0-2.68,1.35c-.86,1.73-1.72,4.5-3.49,6.1a5.4,5.4,0,0,1-1,.73,4.44,4.44,0,0,1-1.11.4l-.23,0q.17-.48.36-1c.13-.36.27-.73.41-1.1a42.22,42.22,0,0,1,4-7.88A22.09,22.09,0,0,1,305,323.9l.36-.35a13.5,13.5,0,0,1,4.84-3.06,7,7,0,0,1,1.41,2.37,6,6,0,0,1,.29,2.34,4.26,4.26,0,0,1-.2,1l9.92,4.1L327,332.5l7.79,3.22A1.47,1.47,0,0,1,335.73,337.09Z"/><path class="cls-1" d="M190.4,428.41l-48.09,335a6.41,6.41,0,0,0,6.35,7.33h0A6.43,6.43,0,0,0,155,765.5l64.9-337.09Z"/><rect class="cls-3" x="210.21" y="414.11" width="484.88" height="14.3" rx="3"/><path class="cls-1" d="M630.91,428.41l48.09,335a6.42,6.42,0,0,1-6.36,7.33h0a6.42,6.42,0,0,1-6.31-5.21l-64.9-337.09Z"/><rect class="cls-6" x="491.58" y="408.17" width="168.24" height="5.94"/><path class="cls-4" d="M590.87,317.1a5.19,5.19,0,0,0-5-3.89H472.38a5.21,5.21,0,0,0-5,6.58l12,43.71,12.24,44.67H616.17C614.65,408.17,595.51,335,590.87,317.1Zm14.68,85.58H500.4a2.89,2.89,0,0,1-2.78-2.09l-1.81-6.25L487,364.07,475.3,323.54a2.9,2.9,0,0,1,2.78-3.69H584.76a2.9,2.9,0,0,1,2.79,2.14L608.34,399A2.88,2.88,0,0,1,605.55,402.68Z"/><path class="cls-16" d="M605.55,402.68H500.4a2.89,2.89,0,0,1-2.78-2.09l-1.81-6.25L487,364.07,475.3,323.54a2.9,2.9,0,0,1,2.78-3.69H584.76a2.9,2.9,0,0,1,2.79,2.14L608.34,399A2.88,2.88,0,0,1,605.55,402.68Z"/><rect class="cls-1" x="389.21" width="296.83" height="53.4" rx="9"/><rect class="cls-12" x="614.95" y="26.7" width="18.38" height="10.06" rx="5"/><path class="cls-3" d="M708.92,50.09v5a11.79,11.79,0,0,1-11.79,11.79H416.6A27.18,27.18,0,0,1,401,61.72a38.17,38.17,0,0,1-4-3.21,42.07,42.07,0,0,1-7.1-8.42Z"/><path class="cls-4" d="M680.49,58.51v3.21H401a38.17,38.17,0,0,1-4-3.21Z"/><path class="cls-3" d="M702,66.93h-9.35a33.47,33.47,0,0,1-33.46-33.47h0A33.46,33.46,0,0,1,692.62,0H702a7,7,0,0,1,6.95,7V60A7,7,0,0,1,702,66.93Z"/><path class="cls-11" d="M822.56,630.84s-3.46,21-16.47,25.93-20.53-1.77-13.88-15.19S813,626.29,822.56,630.84Z"/><path class="cls-10" d="M838.86,587.39s1.63,10.21,14.35,22.74,28.62,7.48,26-8.5S860.07,572.35,838.86,587.39Z"/><path class="cls-9" d="M834.39,537.68c1.42-3.26-2.57-10.7,7.83-18.51s23.71-5.49,19.08,6.65S834.39,537.68,834.39,537.68Z"/><path class="cls-9" d="M823.32,522.62S802.41,568,785,567.74s-20.27-21.59-8.42-41.58S817.72,509.3,823.32,522.62Z"/><path class="cls-10" d="M834.39,489.77s9.57-33.61,25.18-26.68,12.58,25.44,2.68,32.09S834.39,489.77,834.39,489.77Z"/><path class="cls-9" d="M834.39,429.27s1.18-26.3,16.51-31.51,27.17,14.46,15.89,26.31S834.39,429.27,834.39,429.27Z"/><path class="cls-11" d="M830.54,369.38s1.85-28.56,16.6-35.21,34.94,3.47,24.12,22.55S830.54,369.38,830.54,369.38Z"/><path class="cls-9" d="M826.21,363.08s5.38-15.23,0-25.83-21.86-24.18-23.3-8.14S813.67,357.87,826.21,363.08Z"/><path class="cls-10" d="M827.37,406.23s6.76-18-12.9-24.65-30.35,2.6-19.37,13.58S820,410.66,827.37,406.23Z"/><path class="cls-9" d="M823.32,442.05s-3.64-12.49-16.07-15.67-23.42,3.76-15.33,11S814.36,449.4,823.32,442.05Z"/><path class="cls-11" d="M822.58,468.89s-4.35-12.44-14.18-16.78-25.58,3.47-17.7,12.14S822.58,468.89,822.58,468.89Z"/><path class="cls-1" d="M860.46,700.73c-7.38-1.77-26-3.32-33.67-2.81-7.71-.51-26.29,1-33.67,2.81-8.1,1.94,2.41,52.28,5.51,66.36a4.62,4.62,0,0,0,4.52,3.62h47.28a4.62,4.62,0,0,0,4.52-3.62C858.05,753,868.56,702.67,860.46,700.73Z"/><path class="cls-10" d="M868.22,598.42c-.09-.12-9.06-12-23.25-12h-.35c-11.37.16-15.83,9.19-17.25,13.22v-53.4c.9-1.18,7-9.13,11.48-13.21s11.73-4.18,12.42-4.18h.06a.58.58,0,0,0,0-1.16c-.34,0-8.24-.09-13.26,4.49a113,113,0,0,0-10.71,12.17V496.63a.62.62,0,0,0,.38-.14c.08-.08,8.51-7.36,14.58-10.33,5.88-2.87,9.61-1.44,9.65-1.43a.58.58,0,1,0,.43-1.07c-.16-.07-4.21-1.65-10.58,1.46-5.55,2.71-12.73,8.7-14.46,10.17V448.86l.15,0a.59.59,0,0,0,.41-.71,8.13,8.13,0,0,0-.56-1.31V444.3a.57.57,0,0,0,.58-.57c0-1.28,7.4-17,15.16-22,7.51-4.8,12-4.61,12.09-4.61a.58.58,0,0,0,.61-.54.57.57,0,0,0-.54-.61c-.2,0-4.91-.25-12.78,4.79C835.81,425,829.3,437,827.37,441.84V406.23h0V378.61c.52-1.21,5.81-13.39,12.12-21.14,6.52-8,16.51-9.8,16.61-9.82a.58.58,0,0,0-.19-1.14,31,31,0,0,0-17.31,10.23c-5,6.08-9.28,14.81-11.23,19V356.14h0a.57.57,0,0,0,.57-.52c0-.19.47-4.75-5-11.23-5.27-6.21-6-6.93-6.08-7a.57.57,0,0,0-.81,0,.58.58,0,0,0,0,.81s.79.77,6,6.89a21,21,0,0,1,4.34,7.53h-.16v25.82h0v25.22c-1.69-3.32-5.17-9.41-9.35-12.76-5.92-4.73-10.67-4-10.87-4a.58.58,0,0,0,.19,1.14c.05,0,4.47-.65,10,3.74,5.3,4.23,9.59,13.43,10.08,14.51v38.49c-.15-.24-.31-.48-.5-.74-1.84-2.65-12.92-7.85-14.17-8.43a.58.58,0,1,0-.49,1.05c3.34,1.54,12.31,6,13.72,8a23.45,23.45,0,0,1,1.44,2.33v26.05a112.75,112.75,0,0,0-9-9.91,15.43,15.43,0,0,0-11.59-4.05.57.57,0,1,0,.13,1.14,14.55,14.55,0,0,1,10.67,3.75A117.48,117.48,0,0,1,826.21,475v49.08c-1.27-2-5-6-13.78-3.29-6.46,2-13.5,6.87-20.94,14.62-.3.31-.58.6-.65.66a.58.58,0,0,0,.36,1,.53.53,0,0,0,.36-.13,9.56,9.56,0,0,0,.76-.76c7.3-7.6,14.18-12.42,20.44-14.31,10.29-3.12,12.81,3.32,12.91,3.6a.57.57,0,0,0,.54.37V630.5c-2.31-.78-9.08-2.47-14.15,2.22a26.85,26.85,0,0,0-7.69,11.66.59.59,0,0,0,.42.71l.14,0a.58.58,0,0,0,.56-.43,26.09,26.09,0,0,1,7.35-11.11c5-4.58,11.78-2.44,13.37-1.84v66.19h1.16V602.23h0a.56.56,0,0,0,.56-.46c.12-.57,3.09-14,16.71-14.18H845c13.6,0,22.24,11.4,22.32,11.52a.58.58,0,1,0,.93-.69Z"/><rect class="cls-1" y="770.71" width="879.51" height="9.72" rx="2"/><rect class="cls-1" x="116.43" y="792.49" width="324.36" height="9.72" rx="2"/><rect class="cls-1" x="478.06" y="792.49" width="197.76" height="9.72" rx="2"/><path class="cls-1" d="M246.21,33.46a36.2,36.2,0,1,0,36.2,36.2A36.2,36.2,0,0,0,246.21,33.46Zm0,65.49a29.3,29.3,0,1,1,29.3-29.29A29.29,29.29,0,0,1,246.21,99Z"/><path class="cls-1" d="M249.39,72a3.9,3.9,0,0,0,.79-2.36,4,4,0,0,0-3.39-3.92V48.37a.58.58,0,1,0-1.15,0V65.74a4,4,0,1,0,2.94,7.1L256,80.25a.54.54,0,0,0,.4.17.54.54,0,0,0,.41-.17.56.56,0,0,0,0-.81Z"/><path class="cls-7" d="M452.61,572.42h-76.5a20.08,20.08,0,0,1-20.06-20.06V414.11h1.15V552.36a18.93,18.93,0,0,0,18.91,18.91h76.5a18.94,18.94,0,0,0,18.91-18.91v-122a20.08,20.08,0,0,1,20.06-20.06v1.15a18.93,18.93,0,0,0-18.91,18.91v122A20.08,20.08,0,0,1,452.61,572.42Z"/><path class="cls-7" d="M472.14,484.79l-.09-1.16a14,14,0,0,0,13-13.94v-44a15.15,15.15,0,0,1,15.14-15.14h10.29v1.16H500.17a14,14,0,0,0-14,14v44A15.2,15.2,0,0,1,472.14,484.79Z"/><path class="cls-7" d="M482.52,508.19H472.09V507h10.43A24.5,24.5,0,0,0,507,482.56V436.19a25.65,25.65,0,0,1,25.62-25.63v1.16a24.5,24.5,0,0,0-24.48,24.47v46.37A25.66,25.66,0,0,1,482.52,508.19Z"/><path class="cls-8" d="M308.31,558.49s-1.55,21.2,5.39,57.43,9.64,63.59,10.79,74,4.25,41.63,4.25,41.63h15.41l3.08-157.64Z"/><path class="cls-5" d="M229.09,435.92s39.22.77,67.55,4.05,51.59,6.36,52.86,13.3,0,105.22,0,105.22H304.25l-10.54-45s-71.07,17.65-87.14-8.56S229.09,435.92,229.09,435.92Z"/><path class="cls-5" d="M335.73,337.09a1.39,1.39,0,0,1,0,.35,1.49,1.49,0,0,1-1.95,1.07l-6.6-2.37-.12,0-20.93-7.51h0l-3.76-1.35-7.16-2.57-5.6-2-10.77-3.86-1.16-.41-8-2.87a1.49,1.49,0,0,1-1-1.67l.58-3.27a1.5,1.5,0,0,1,2-1.12l6.34,2.62,1.16.48,14.35,5.93,12.25,5.06,1.21.51,5.13,2.12,9.92,4.1L327,332.5l7.79,3.22A1.47,1.47,0,0,1,335.73,337.09Z"/><path class="cls-8" d="M311.92,325.2a4.26,4.26,0,0,1-.2,1,8.78,8.78,0,0,1-1.1,2.17c-.72,1.16-1.45,1-2.75.72-.51-.11-1.14-.36-1.78-.48h0a2.24,2.24,0,0,0-2.68,1.35c-.86,1.73-1.72,4.5-3.49,6.1a5.4,5.4,0,0,1-1,.73,4.44,4.44,0,0,1-1.11.4l-.23,0c-3.33.65-8.48.12-10.17,1.11-.52.31-1.58,1.08-2.81,2l-3,2.34c-1.09.87-2.1,1.67-2.76,2.21l-.83.67-.33-1.13-2.84-9.71.77-.32c.5-.22,1.22-.55,2.07-1l1.16-.61a27.55,27.55,0,0,0,6.54-4.74,47,47,0,0,0,4.23-5.4,26.43,26.43,0,0,1,3.58-4.17,11.44,11.44,0,0,1,3-2c4.92-2.17,6.51-2.46,8.68-.72a36.55,36.55,0,0,1,5.38,4.71,7,7,0,0,1,1.41,2.37A6,6,0,0,1,311.92,325.2Z"/><path class="cls-16" d="M178.22,287.63s11.67,13.54,17.4,25.27,13,26.18,14.11,36.3,5.49,46.83,12.43,59.55,19.08,17.92,17.64,27.17a204.19,204.19,0,0,1-10.47,39c-5.43,13.87-8.15,28.05-2.54,42.45,0,0-28.62,4.09-45.39-25.11s-40.18-131.14-47.12-151.18-25.72-19.08-19.65-39.9,39.31-16.47,41.05-16.76S174.12,282.59,178.22,287.63Z"/><path class="cls-17" d="M202.51,212.76c-1.45-10.12-6.45-10.41-3.95-18.5s4.23-17.93-12.82-29.2c-15.55-10.27-35.17-17.66-52.32-4.45-6.42.72-26.35,4.25-33.82,20.64-6.68,14.65,2.05,30.43.35,41.94A27,27,0,0,1,86,232.5c-8.09,1.94-16.19,21.88-10.7,35.18s3.76,23.42-3.18,26-22.06,35.84,8,43.55,43.24-4.45,52.26-16.1a25.5,25.5,0,0,0,2.36-3.71,29.4,29.4,0,0,0,9.94-9c8.67-12.43,6.65-26.95,5.78-31.12s.87-25.54,4.92-39.12,39.07-5.7,39.07-5.7S204,222.88,202.51,212.76Zm-74-47.7c-18.21,19.08-23.12,15.9-22,35.85a32.46,32.46,0,0,1-4.39,19.17,22.45,22.45,0,0,0-.09-5.15c-1.73-13.74-3.32-26.74,2.89-37.44,5.21-9,21.35-13.85,26.46-15.21C130.43,163.13,129.46,164.06,128.5,165.06ZM141.41,309.5a29.17,29.17,0,0,1-5.13,4.66c5.19-12.62,5.46-29.82,7.06-26.63C145.27,291.39,148,301.78,141.41,309.5Z"/><path class="cls-8" d="M194.6,225.48c.2,2.7,2.12,8.86,0,17.53a37.23,37.23,0,0,1-2.78,7.34l-.58,1.15c-3.25,6.25-7.63,11.86-9.36,12.52-2.5,1-8.47-1.35-8.47-1.35a39.2,39.2,0,0,0-1.55,4.62,57,57,0,0,0-1.54,10H150.47s-.77-8.29-6.35-14.26-5.79-13.11-2.71-17.74.78-6-3.27-9.63-3.67-13.49,2.12-18.31S152.78,222,152.78,222s15,1,27.18-7.13a27.14,27.14,0,0,0,12.33-20.62s4.05,8.09,4.43,13.87S194.41,222.78,194.6,225.48Z"/><path class="cls-18" d="M187.69,219.86c-.59,2.2-1.95,3.74-3,3.45s-1.47-2.31-.87-4.51,2-3.73,3-3.44S188.29,217.67,187.69,219.86Z"/><path class="cls-19" d="M173.41,262.67s-19.76-5.68-20.63-11.76-1.44-9.13-1.44-9.13-1.16,12.89,2.6,17.23,16.38,18.31,16.38,18.31Z"/><path class="cls-20" d="M150.47,277.32S173,275.49,175,278.67s3.18,9,3.18,9H151.17Z"/><path class="cls-20" d="M164.35,378.69s.29,5.78,5.2,4.62,6.07-2.24,6.07-2.24,6.65,15.45,12.14,17.66,22.26-10,22.26-10-21.39,18.45-24,16.21-13.3-17.27-14.46-16.7-3.17,34.64-3.17,34.64l-7.36-50S164.12,377.35,164.35,378.69Z"/><path class="cls-20" d="M192.14,370.69c0-.1-3.95-9.58-11.63-30.82s-24-51.66-24.19-52l1-.55c.17.31,16.57,30.85,24.26,52.12s11.57,30.68,11.6,30.78Z"/><path class="cls-20" d="M164.83,347.59l-1-.64c.37-.56,9.29-13.84,18.66-15.92s15.47-.07,15.73,0l-.37,1.1c-.06,0-6.14-2-15.11,0S164.92,347.46,164.83,347.59Z"/><path class="cls-20" d="M173.84,363.84l-.87-.76c.35-.4,8.68-9.75,17.58-13.05a49,49,0,0,1,15.62-3.34v1.16A48.73,48.73,0,0,0,191,351.11C182.33,354.32,173.92,363.75,173.84,363.84Z"/><path class="cls-20" d="M200.2,355.43c0-.1-1.24-10.53-8.06-26.81a103.11,103.11,0,0,0-15.89-26.44l.86-.78a104.36,104.36,0,0,1,16.09,26.78c6.9,16.44,8.13,27,8.15,27.12Z"/><path class="cls-20" d="M157.32,313.21l-1-.62c.32-.51,8-12.51,17-13.3,8.85-.77,12.17,0,12.3,0l-.26,1.13s-3.32-.74-11.94,0S157.4,313.09,157.32,313.21Z"/><path class="cls-20" d="M214.26,490.46a.6.6,0,0,1-.29-.08c-.13-.08-13.35-8-25.64-24.83s-17.84-52.69-17.9-53.05a.58.58,0,0,1,.49-.66.57.57,0,0,1,.65.48c.06.36,5.56,35.9,17.69,52.55s25.16,24.44,25.29,24.51a.58.58,0,0,1,.21.79A.57.57,0,0,1,214.26,490.46Z"/><path class="cls-20" d="M226.21,463.09a.6.6,0,0,1-.4-.15l-14.26-13.49C197.37,436,185.12,408.3,185,408a.58.58,0,0,1,1.06-.47c.12.28,12.27,27.8,26.29,41.06l14.26,13.49a.57.57,0,0,1-.4,1Z"/><path class="cls-20" d="M235.07,435.73a.6.6,0,0,1-.29-.08c-.32-.19-7.91-4.81-17.88-16.7A42.59,42.59,0,0,1,207.14,393a.58.58,0,0,1,1.16,0,41.21,41.21,0,0,0,9.49,25.13c9.83,11.72,17.51,16.4,17.58,16.45a.57.57,0,0,1,.2.79A.58.58,0,0,1,235.07,435.73Z"/><path class="cls-20" d="M179.19,459.24h-.09a.58.58,0,0,1-.49-.65c.06-.39,1.52-9.68,9.69-23.72s32.57-26.13,33.61-26.63a.58.58,0,0,1,.77.26.59.59,0,0,1-.26.78c-.25.12-25.1,12.38-33.12,26.17s-9.53,23.21-9.54,23.31A.58.58,0,0,1,179.19,459.24Z"/><path class="cls-20" d="M198.26,490.46h-.06a.57.57,0,0,1-.52-.63c0-.1.25-2.54,4.42-18.59s19.51-31,19.66-31.11a.58.58,0,0,1,.82,0,.57.57,0,0,1,0,.81c-.15.15-15.24,14.73-19.35,30.57s-4.37,18.31-4.38,18.41A.58.58,0,0,1,198.26,490.46Z"/><polygon class="cls-6" points="293.4 513.47 316.5 511.08 298.7 533.96 293.4 513.47"/><path class="cls-3" d="M306.76,573.91s-4.9-12.58-2.31-17,49.72-8.1,49.34,1.54-5.4,14.26-6.56,15.42S307.88,577.12,306.76,573.91Z"/><path class="cls-5" d="M395,770.67c-3.47.58-72.86-4.34-73.72-10.7a57.89,57.89,0,0,1-.11-10.09c.25-4.26.69-7.83.69-7.83s-2.22-12.62,2-14.45,7.8.57,12.72,0,10.11-5.17,14.45-.71,6.07,11.4,10.12,15.16,37.58,9.83,40.18,17.63S398.5,770.09,395,770.67Z"/><path class="cls-3" d="M361.6,749.27c-.13-1.34,1.11-2.36,2-3.18a18.15,18.15,0,0,1,3.13-2.23.87.87,0,0,0-.87-1.5,20.67,20.67,0,0,0-4.11,3.09c-1,1-2.06,2.26-1.9,3.82.1,1.11,1.84,1.12,1.73,0Z"/><path class="cls-3" d="M367.42,751.58c-.14-1.59,1-2.58,2.18-3.46a10.08,10.08,0,0,1,3.49-1.94.87.87,0,0,0-.46-1.67,12.59,12.59,0,0,0-4.69,2.72,5.09,5.09,0,0,0-2.25,4.35c.1,1.1,1.83,1.11,1.73,0Z"/><path class="cls-3" d="M373.57,753c1.18-1.56,2.57-3.33,4.72-3.29a.87.87,0,0,0,0-1.74c-2.83,0-4.65,2.08-6.22,4.16-.67.89.83,1.75,1.5.87Z"/><path class="cls-3" d="M360.59,739.59c-2.39-2.36-7-5.58-10.63-4.47-4,1.22-1.27,5.47.69,7.17,2.36,2.05,6.35,3.52,8.82.71,1.44-1.65,1.3-4,3.37-5.3,1.59-1,6,0,3.74,1.68-.47.35-5,1.07-4.94.77.25-1.09-1.42-1.55-1.67-.46-.93,4.11,5.83,1.83,7.55,1.2,1.22-.45,2.29-.86,2-2.32a4.4,4.4,0,0,0-3-2.91c-3.54-1.21-6,1.37-7.54,4.23-1.07,2.05-2.36,3.38-4.82,2.59-.91-.28-4.11-2.19-4.21-3.41l1.33-2.37,1.44.26a13.23,13.23,0,0,1,2.36.83,14.92,14.92,0,0,1,4.23,3c.8.79,2-.44,1.23-1.22Z"/><path class="cls-8" d="M194.73,223.58s1.42,7.82,3.15,9.41,1.73,1.54,1.3,2.8-4,4.29-4,4.29S193.61,225.88,194.73,223.58Z"/><path class="cls-19" d="M191.82,250.35l-.58,1.15c-2.2,0-4.57-.24-5.85-1-2.91-1.77-2.32-5.49-2.3-5.64a.58.58,0,0,1,1.15.18s-.48,3.11,1.75,4.48C187.12,250.18,189.55,250.37,191.82,250.35Z"/><path class="cls-12" d="M281.67,347.6c-.35.52-1.36,1.74-2.89,3.49l-1.16,1.31L276,354.2l-.79.87c-11.38,12.4-35.11,36.38-52.4,47-.43.27-.85.53-1.27.77s-1.05.61-1.56.89a34.94,34.94,0,0,1-7.09,3.07,15.93,15.93,0,0,1-1.63.39c-.39.07-.78.13-1.17.17-6.29.76-12.11-1.7-17.09-5.39a41.32,41.32,0,0,1-3.62-3,73.85,73.85,0,0,1-13.73-17.88.11.11,0,0,0,0,0l35.89-17.69v0a.84.84,0,0,0,0,.1c.35,1.37,3.24,12.37,7.65,12.84.87.09,3.2-1.53,6.44-4.2,3.08-2.53,7-6,11.23-9.87l.86-.77c5.26-4.77,11-10,16.37-14.77,2-1.78,4-3.49,5.87-5.06l1.07-.9c2.37-2,4.55-3.69,6.45-5.05,3.92-2.8,6.64-4.06,7.3-2.74.24.47.49.93.77,1.38a29,29,0,0,0,2.07,3c.39.51.78,1,1.16,1.47a29.63,29.63,0,0,1,2.76,3.84C282.48,344.36,282.76,346,281.67,347.6Z"/><path class="cls-3" d="M401.39,759.68c2.6,7.81-2.89,10.41-6.36,11s-72.86-4.34-73.72-10.7a57.89,57.89,0,0,1-.11-10.09,66.7,66.7,0,0,0,11.1,6.91C342.71,762,396.18,766.91,401.39,759.68Z"/><path class="cls-21" d="M91.5,533.24,34.62,764.56a4.93,4.93,0,0,0,4.73,6.15h0A4.88,4.88,0,0,0,44,767.23L113.65,538.9a5,5,0,0,0-3.56-6.29l-12.77-3A4.86,4.86,0,0,0,91.5,533.24Z"/><path class="cls-21" d="M164.89,533.24,108,764.56a4.93,4.93,0,0,0,4.72,6.15h0a4.88,4.88,0,0,0,4.66-3.48L187.05,538.9a5,5,0,0,0-3.56-6.29l-12.77-3A4.88,4.88,0,0,0,164.89,533.24Z"/><path class="cls-7" d="M271.39,535.29,308.29,767a4.41,4.41,0,0,0,4.34,3.75h0a4.44,4.44,0,0,0,4.37-5L291,533.23Z"/><path class="cls-7" d="M206.51,535.29,243.41,767a4.41,4.41,0,0,0,4.34,3.75h0a4.44,4.44,0,0,0,4.37-5l-26-232.51Z"/><path class="cls-1" d="M298,531.33c-.32.81-.74,1.3-1.24,1.3h-.08l-.26,0-.43,0-.27,0c-1,.09-2.54.27-4.67.5l-1.08.11c-4.32.47-10.53,1.14-18.11,1.9l-.45,0c-12.1,1.21-27.63,2.66-44.57,4-6.33.48-12.85.93-19.46,1.34-7,.44-14.1.83-21.18,1.14-7.94.35-15.85.61-23.56.75-18.54.31-35.87-.12-49.51-1.79-9.4-1.15-17-2.9-22.12-5.38a17.81,17.81,0,0,1-4.11-2.67C62,510.29,26.75,438,21.55,390.37s8.7-81.9,26.59-77c0,0,18.5,7.64,50.3,8.23,22.74.43,39-2.46,48.49,3,3.8,2.15,6.52,5.63,8.17,11.15,5.78,19.4,13.29,138.15,37,164.6s101.75,13.52,104.64,17.64C299,521.17,299.14,528.38,298,531.33Z"/><path class="cls-3" d="M298,531.33c-.78.86-1.24,1.3-1.24,1.3h-.08l-.26,0-.43,0-.27,0c-6.87.56-46.91,3.15-94.36-8.06-52.17-12.32-50.22-124-59.1-161.28-6.18-26,.22-35.47,4.69-38.84,3.8,2.15,6.52,5.63,8.17,11.15,5.78,19.4,13.29,138.15,37,164.6s101.75,13.52,104.64,17.64C299,521.17,299.14,528.38,298,531.33Z"/></g></g></svg>