<svg xmlns="http://www.w3.org/2000/svg" viewBox="0 0 890.64 803.53"><defs><style>.cls-1{fill:#e6e8ef;}.cls-2{fill:#fdfdfc;}.cls-3{opacity:0.7;}.cls-4{fill:#bec0e1;}.cls-5{opacity:0.58;}.cls-6{fill:#323086;}.cls-7{fill:#f79e86;}.cls-8{fill:#221f53;}.cls-9{fill:#9a9cce;}.cls-10{fill:#5d53a3;}.cls-11{fill:#cc7264;}.cls-12{fill:#481f54;}.cls-13{opacity:0.66;}.cls-14{opacity:0.55;}.cls-15{fill:#802235;}.cls-16{fill:#f7f9fd;}.cls-17{fill:#b2386a;}.cls-18{fill:#f15d6f;}.cls-19{fill:#c43f52;}.cls-20{fill:#fff;}.cls-21{opacity:0.5;}.cls-22{fill:#1e223e;}.cls-23{fill:#111424;}.cls-24{fill:#010101;}.cls-25{opacity:0.35;}.cls-26{opacity:0.74;}.cls-27{opacity:0.27;}.cls-28{fill:#4faa7b;}.cls-29{fill:#b4d77c;}.cls-30{fill:#72c271;}.cls-31{fill:#2f7d6e;}</style></defs><g id="Calque_2" data-name="Calque 2"><g id="Layer_1" data-name="Layer 1"><path class="cls-1" d="M808.28,5.26V139.54c0,2.12-1.22,3.86-2.73,3.86H698.07c-1.51,0-2.74-1.74-2.74-3.86V5.26c0-2.13,1.23-3.86,2.74-3.86H805.55C807.06,1.4,808.28,3.13,808.28,5.26Z"/><rect class="cls-2" x="713.04" y="97.17" width="11.69" height="7.25" rx="2"/><rect class="cls-2" x="731.33" y="97.17" width="59.25" height="7.25" rx="2"/><rect class="cls-2" x="713.04" y="109.37" width="11.69" height="7.25" rx="2"/><rect class="cls-2" x="731.33" y="109.37" width="59.25" height="7.25" rx="2"/><rect class="cls-2" x="713.04" y="121.57" width="11.69" height="7.25" rx="2"/><rect class="cls-2" x="731.33" y="121.57" width="59.25" height="7.25" rx="2"/><rect class="cls-2" x="713.04" y="58.18" width="12.81" height="18.47"/><rect class="cls-2" x="733.09" y="47.92" width="12.81" height="28.74"/><rect class="cls-2" x="754.04" y="35.26" width="12.81" height="41.39"/><rect class="cls-2" x="776.17" y="20.21" width="12.81" height="56.44"/><path class="cls-1" d="M644.15,0H77.85a8.23,8.23,0,0,0-8.23,8.23v566.3a8.22,8.22,0,0,0,8.23,8.23h566.3a8.23,8.23,0,0,0,8.23-8.23V8.23A8.24,8.24,0,0,0,644.15,0ZM635,557.1a8.22,8.22,0,0,1-8.23,8.23H95.28A8.23,8.23,0,0,1,87,557.1V25.66a8.23,8.23,0,0,1,8.24-8.23H626.72A8.22,8.22,0,0,1,635,25.66Z"/><rect class="cls-1" x="125.26" y="132.52" width="37.95" height="173.57"/><rect class="cls-1" x="200.92" y="113.13" width="37.95" height="192.96"/><rect class="cls-1" x="286.88" y="75.2" width="37.95" height="230.89"/><polygon class="cls-1" points="112.92 306.09 112.92 99.72 108.5 99.72 108.5 309.85 112.92 309.85 352.86 309.85 352.86 306.09 112.92 306.09"/><rect class="cls-1" x="393.28" y="245.39" width="68.81" height="68.81" rx="6"/><rect class="cls-1" x="393.28" y="443.79" width="68.81" height="68.81" rx="6"/><rect class="cls-1" x="393.28" y="526.6" width="128.95" height="9.85" rx="4"/><rect class="cls-1" x="400.76" y="56.02" width="22.63" height="22.63" rx="3"/><rect class="cls-1" x="439.99" y="64.25" width="102.21" height="6.16" rx="3"/><g class="cls-3"><rect class="cls-4" y="56.02" width="183.04" height="131.09" rx="8"/><g class="cls-5"><path class="cls-6" d="M50.8,157.47c-20.17,0-25.83-13.29-26.07-13.85a1.48,1.48,0,0,1,.81-1.92,1.46,1.46,0,0,1,1.91.8h0c.21.49,5.24,12,23.35,12,7.7,0,9.3-5.84,11-15.45,1.59-8.9,3.4-19,15.44-19,11.8,0,14.64,8.8,17.15,16.57,2.41,7.47,4.5,13.92,13.34,13.92,18.72,0,30-44.48,30.07-44.93a1.47,1.47,0,0,1,2.86.71c-.48,1.93-11.93,47.16-32.93,47.16-11,0-13.72-8.48-16.14-16C89.09,129.76,86.92,123,77.26,123s-11,7.68-12.54,16.57C63.22,148,61.52,157.47,50.8,157.47Z"/></g><g class="cls-5"><circle class="cls-6" cx="25.7" cy="143.94" r="5"/></g><g class="cls-5"><path class="cls-6" d="M81.87,121.56a5,5,0,1,1-5-5A5,5,0,0,1,81.87,121.56Z"/></g><g class="cls-5"><path class="cls-6" d="M144.24,106.27a5,5,0,1,1-5-5A5,5,0,0,1,144.24,106.27Z"/></g><g class="cls-5"><circle class="cls-6" cx="32.75" cy="87.17" r="14.1"/></g><g class="cls-5"><path class="cls-6" d="M112.16,83.27H63.93A2.94,2.94,0,0,1,61,80.33h0a2.94,2.94,0,0,1,2.94-2.94h48.23a2.94,2.94,0,0,1,2.94,2.94h0A2.94,2.94,0,0,1,112.16,83.27Z"/></g><g class="cls-5"><path class="cls-6" d="M91.57,94.44H63.93A2.94,2.94,0,0,1,61,91.5h0a2.94,2.94,0,0,1,2.94-2.94H91.57a2.94,2.94,0,0,1,2.94,2.94h0A2.93,2.93,0,0,1,91.57,94.44Z"/></g></g><polygon class="cls-1" points="14.73 790.15 107.08 763.82 771.37 763.82 887.6 786.85 14.73 790.15"/><path class="cls-7" d="M226,781.6c-4.48,4.63-11.21,5.61-11.21,5.61s-40.51-26-47-31.32-22-22.42-17.86-30.73c3.56-7,11.81-6,15.31-7.95a3.08,3.08,0,0,0,1.38-1.41c1.76-4,13-23.64,13-23.64l18.13,17.27s-12.66,14.71-9.56,21.17c1.32,2.76,5.65,8.71,10.88,14.83,7,8.21,15.62,16.75,20.75,18.39C228.84,766.67,230.51,777,226,781.6Z"/><path class="cls-6" d="M226,781.6c-4.48,4.63-11.21,5.61-11.21,5.61s-40.51-26-47-31.32-22-22.42-17.86-30.73c3.56-7,11.81-6,15.31-7.95.39,7.78,1.83,15.34,5.5,19.27,9.43,10.13,15.56,7.09,28.37,8.95,7,8.21,15.62,16.75,20.75,18.39C228.84,766.67,230.51,777,226,781.6Z"/><path class="cls-8" d="M298.24,598.77S202,712.37,197.83,709.43s-22.35-16.47-20-24.7,53.52-99.4,53.52-99.4,13.53-67,49.4-71.16S314.83,579.34,298.24,598.77Z"/><path class="cls-9" d="M225.76,740.61c-6.5-7.14-32.15-5.35-45.84-13.57s-9.23-62.12-9.23-62.12H157s4.45,53.91-9.23,62.12-39.34,6.43-45.84,13.57-3.08,26.07-3.08,26.07H104s-.34-18.93,8.55-19.29,51.32-1.07,51.32-1.07,42.41.72,51.31,1.07,8.55,19.29,8.55,19.29h5.13S232.26,747.75,225.76,740.61Z"/><ellipse class="cls-10" cx="102.18" cy="775.51" rx="11.2" ry="11.69"/><ellipse class="cls-10" cx="226.02" cy="775.51" rx="11.2" ry="11.69"/><path class="cls-10" d="M182.34,593.47H143.75a14,14,0,0,1-14-14v-7.42h66.59v7.42A14,14,0,0,1,182.34,593.47Z"/><path class="cls-9" d="M179.7,593.47s-3.43,23.63-5.6,47.73H153.37c-2.17-24.1-5.6-47.73-5.6-47.73Z"/><rect class="cls-10" x="147.99" y="637.54" width="31.7" height="31.7" rx="5"/><path class="cls-11" d="M278.86,341.16s39.47,67.73,46,74.2,17.68,12.53,30.62,15.38,25.87,7.06,30.58,15.54.68,20.17-3.19,21.09-58.47-7.05-90.86-28.65-31,9.88-41.71-30.27S278.86,341.16,278.86,341.16Z"/><path class="cls-12" d="M246.06,134.63s-19.78,3.53-26.17,0S181,137,174.3,160.51s-6.66,51,2,65.87,30.19,25.88,37.64,23.92,19.61-13.73,27.45-26.67,30.87-44.83,30.87-44.83,7.55-29.66-4.21-39.86S255.18,133.44,246.06,134.63Z"/><path class="cls-7" d="M272.1,207.22a5.58,5.58,0,0,1-.17-2.21c.59-3.33,4.82-11,3-19s-10.64-20.58-10.64-20.58-12.55,8-18.23,9.61-12.75,3.52-13.34,9-8,36.66-8.43,32.35-1.37-13.92-2.35-10.78-3.53,2.74-3.13.39c0,0-10-14.7-16.28-2.55s3.34,17.06,5.49,19.41,4,11.76,1.6,14.51-6.5,5.29-6.89,7.64-4.51,16.27-4.51,16.27l38.62,13.14L242.53,255s14.5,3.73,19.8,1.37c4.7-2.09,9.71-23.51,11.73-32.8,0,0,4.34-7.44,4.78-9.2C279.22,212.87,273.73,208.48,272.1,207.22Z"/><path class="cls-10" d="M168.49,304.56s-59.1,13.23-76.75,75S111.35,503.92,192,533s24.16-136.37,8.28-170.95S168.49,304.56,168.49,304.56Z"/><path class="cls-6" d="M377,789.86c-4.11,3.93-31.46-.61-39.4.83s-21.47-1.74-30.29-.23-12.64-4.84-17.35-12.4,3.53-16.93,3.13-25.1c0-.48,0-1-.05-1.6-.3-9.45.05-32,.05-32l24.22,8.77s-.59,14.82-.59,18.45c0,2.12,2,5.19,4.34,7.66a18,18,0,0,0,4.78,3.83c3.23,1.52,15.58,8.47,22.34,8.77s25-1.51,30.29,3.33S381.16,785.93,377,789.86Z"/><path class="cls-7" d="M321.1,754.27c-1.73,2-4.19,4.17-11.47,4.44-7,.26-12.55-3.26-16.55-7.35-.3-9.45.05-32,.05-32l24.22,8.77s-.59,14.82-.59,18.45C316.76,748.73,318.78,751.8,321.1,754.27Z"/><path class="cls-6" d="M290,433s94.53,10.33,93.71,39.36-65.29,255.79-65.29,255.79-26.95-3-26.41-10.28,2.3-94.46,7.59-123.44,5.89-41.07,2.95-42.28-19.7-1-41.91-3.52-47.58-11-55.18-22.49S249.19,431.8,290,433Z"/><path class="cls-4" d="M367.5,355.08a140.2,140.2,0,0,0,3.83,46.76c6.47,25.29,25.65,39.4,25.65,39.4l85.5-26.47s-14.7-30.58-19.41-59.69S459,296,459,296H370.15Z"/><path class="cls-9" d="M159.67,287.8S67,279.86,33.52,340.73,9.7,496,75.86,545.38s151.73,45,157,44.11,30.87-43.22,30.87-43.22-150.85-37-164.08-114.68,51.71-110.85,51.71-110.85S154.84,295.89,159.67,287.8Z"/><path class="cls-1" d="M44.91,461.82a2.94,2.94,0,0,1-2.4-1.24c-.25-.36-6.23-9-9.23-26.4a2.94,2.94,0,1,1,5.79-1c2.75,16,8.2,23.94,8.25,24a2.93,2.93,0,0,1-2.41,4.62Z"/><path class="cls-1" d="M34.62,421.24a2.94,2.94,0,0,1-2.93-2.84,147.6,147.6,0,0,1,.89-21.6,108.87,108.87,0,0,1,6.07-25.66,2.94,2.94,0,1,1,5.52,2,102.47,102.47,0,0,0-5.74,24.28,141.44,141.44,0,0,0-.87,20.74,2.94,2.94,0,0,1-2.83,3Z"/><path class="cls-1" d="M48.28,360.32a2.94,2.94,0,0,1-2.56-4.39c8.88-15.67,18.71-23.6,19.12-23.93a2.94,2.94,0,1,1,3.67,4.6h0c-.09.07-9.39,7.62-17.67,22.23A3,3,0,0,1,48.28,360.32Z"/><path class="cls-9" d="M181.36,273s-20.84-1.87-27.08,31.61S143.72,398.9,153.92,435s21,64.54,31.75,76.06,20.11,15.57,20.11,15.57S204.1,522,208,508.68s18-26.66,31-36.46S290.36,438.1,290,433s-12.16-31.76-14.9-49l-2.75-17.26s20.79-31.56,19.61-35.38S257,298.52,253.5,293.42s-15.68-9.8-21.56-13.33S197,266.29,181.36,273Z"/><path class="cls-10" d="M184.5,331.36c.05-1.27,14.11,58.52,30.19,78.91s33.72,19.21,45.48,15.68,23.36-12.51,23.36-12.51L290,433s-47.82,20.39-59.59,9-18-28.62-21.18-31.36S192,395.23,192,395.23s6.25-10.06,1.94-21S184.11,340.28,184.5,331.36Z"/><path class="cls-6" d="M195.48,391.84s59.2-35.29,65.47-29,10.2,10.63,6.28,14.14-52.54,36.05-61.17,31S186.14,397.25,195.48,391.84Z"/><path class="cls-10" d="M259.29,362.08s-2.65-16.51-7.06-27.78,0-3,0-3l11.53,34.35Z"/><polygon class="cls-10" points="272.54 368.11 258.99 314.2 280.9 353.23 272.54 368.11"/><path class="cls-9" d="M397,441.24s17.57-4.12,11.69-17.06l-5.88-12.93,89.1-14.71s5,12.65,0,22.35S397,441.24,397,441.24Z"/><g class="cls-5"><path class="cls-6" d="M387.79,333.1a1.76,1.76,0,0,1-.47-3.46,179.82,179.82,0,0,1,30.34-5.14c15.91-1.18,23.06,0,23.36,0a1.76,1.76,0,0,1-.58,3.48c-.07,0-7.12-1.12-22.52,0a175.5,175.5,0,0,0-29.66,5A1.84,1.84,0,0,1,387.79,333.1Z"/><path class="cls-6" d="M427.2,360.37a1.76,1.76,0,0,1-.31-3.5l18.35-3.23a1.76,1.76,0,0,1,.61,3.47l-18.35,3.24Z"/><path class="cls-6" d="M431.31,376a1.77,1.77,0,0,1-.2-3.52l17.35-2a1.77,1.77,0,1,1,.41,3.51l-17.35,2Z"/><path class="cls-6" d="M395,408.16a1.77,1.77,0,0,1-.37-3.49L429,397.32a1.76,1.76,0,0,1,.74,3.45l-34.34,7.35A1.55,1.55,0,0,1,395,408.16Z"/></g><path class="cls-9" d="M424.72,370.72a20.52,20.52,0,1,1-24-20.22h0a20.52,20.52,0,0,1,24,20.23Z"/><g class="cls-13"><path class="cls-6" d="M424.72,370.72a20.54,20.54,0,0,1-14.61,19.67,73.66,73.66,0,0,1-6-17.21,150.83,150.83,0,0,1-3.36-22.68h0a20.56,20.56,0,0,1,3.44-.29h.2a20.53,20.53,0,0,1,20.32,20.52Z"/></g><g class="cls-14"><path class="cls-6" d="M418.51,356l-14.39,17.16a150.83,150.83,0,0,1-3.36-22.68h0l3.64-.29A20.46,20.46,0,0,1,418.51,356Z"/></g><path class="cls-15" d="M242.53,255s-11.83-.86-15.1-5.88a32.74,32.74,0,0,1-4.31-10.2s1.17,15.1,4.7,21,9,14.51,9,14.51Z"/><path class="cls-6" d="M183,272.39s5.39-18.31,11.06-17.39,50.58,9.3,50,17.39-2.15,15.37-4.11,15.07S205.11,272.73,183,272.39Z"/><path class="cls-12" d="M261.05,203.49c0,2.84-1.45,5.15-3.23,5.15s-3.24-2.31-3.24-5.15,1.45-5.15,3.24-5.15S261.05,200.65,261.05,203.49Z"/><path class="cls-12" d="M251.55,194.39c.38-3.46,4.66-4.87,7.52-5.55,1.1-.27.63-2-.47-1.7-3.81.91-8.33,2.85-8.81,7.25-.12,1.12,1.64,1.11,1.76,0Z"/><path class="cls-15" d="M268.12,237a10.13,10.13,0,0,1-6.72-2.18c-3.45-3-4-4.14-4.12-4.33a.59.59,0,1,1,1.08-.46s.54,1,3.82,3.9,8.7,1.63,8.75,1.61a.59.59,0,0,1,.27,1.15A15.26,15.26,0,0,1,268.12,237Z"/><path class="cls-7" d="M267.23,377s22-12.76,30.29-18.94,27.64-23,32.05-23.72a23.26,23.26,0,0,0,10.29-4.22c2.35-1.76,20.88-16.76,33.82-13.82s15.88,0,18.82,4.71,9.11,17.44-1.47,20.19-21.76-1.67-22.64,3.33a70.29,70.29,0,0,0-.89,10.59s-7.05-6.08-8.52-8a6.83,6.83,0,0,0-4.42-2.84c-.88,0-5.29,3.82-7.94,5.88s-51.92,63.68-82.86,74.63-39.7-4.56-50.9-16.95C212.86,407.76,261.55,383.51,267.23,377Z"/><path class="cls-9" d="M826.34,109.92,720,779.76a8.79,8.79,0,0,1-3.82,6L456.59,764.09a8.83,8.83,0,0,1-8-10l85.77-621.82a8.83,8.83,0,0,1,8-7.59l280.19-23.47A8.79,8.79,0,0,1,826.34,109.92Z"/><path class="cls-16" d="M799.07,141l-80.74,505.3-.15.94L701.1,754.15a8.19,8.19,0,0,1-2.3,4.56,7.86,7.86,0,0,1-1,.87l-82.67-8.21-140.45-14a7.84,7.84,0,0,1-6.83-7.21,8.65,8.65,0,0,1,0-2l3.29-23.46L479.93,642l0-.17.23-1.61,67.46-481.37a7.81,7.81,0,0,1,7-6.89l6.67-.52L795.88,133A8.36,8.36,0,0,1,799.07,141Z"/><path class="cls-1" d="M561.26,151.45,489.59,645.22,479.93,642l0-.17.23-1.61,67.46-481.37a7.81,7.81,0,0,1,7-6.89Z"/><path class="cls-6" d="M849.41,109.92,743.05,779.76a8.8,8.8,0,0,1-9.44,7.41l-17.44-1.45a8.79,8.79,0,0,0,3.82-6L826.34,109.92a8.79,8.79,0,0,0-3.8-8.71L840,99.75A8.82,8.82,0,0,1,849.41,109.92Z"/><rect class="cls-6" x="637.4" y="123.25" width="69.44" height="5.88" rx="1.76" transform="translate(-7.01 45.83) rotate(-3.89)"/><path class="cls-1" d="M718.33,646.31l-.15.94L701.1,754.15a8.19,8.19,0,0,1-2.3,4.56l-83.71-7.34-140.45-14a7.84,7.84,0,0,1-6.83-7.21c0-.1,0-.2,0-.3l3.3-25.19,8.24-62.87H480Z"/><path class="cls-17" d="M630.75,688.78l18.78-3.08a2.94,2.94,0,0,1,3.36,3.48l-4.58,22.9a2.94,2.94,0,0,1-4.22,2L628.16,706a2.94,2.94,0,0,1-1.57-3.05l1.73-11.67A2.94,2.94,0,0,1,630.75,688.78Z"/><path class="cls-18" d="M556.85,676.84l-4,33.65a3,3,0,0,0,2.7,3.28l72,5.45a2.94,2.94,0,0,0,3.11-2.43L636.9,681a2.94,2.94,0,0,0-2.76-3.44l-74.24-3.26A2.94,2.94,0,0,0,556.85,676.84Z"/><polygon class="cls-1" points="519.25 608.89 696.96 624.55 765.44 204.78 579.89 217.87 519.25 608.89"/><path class="cls-7" d="M513.85,254.4c-.79-2-11.37-12.15-14.9-21.56s-12.55-28.23-19.21-34.5-5.49-2-4.32,2.74,10.59,23.53,7.06,26.27-11.62,2-8,8.23,11.15,8.24,11.32,10.59,7.89,20.68,7.89,20.68Z"/><path class="cls-6" d="M680.49,648.06l-78.65,4.07-15.23.79-12,.63s-.22-95.36,0-114.88,12.46-52.35,12.46-52.35,89.09-19.4,96.25,1.77S680.49,648.06,680.49,648.06Z"/><polygon class="cls-8" points="609.91 570.49 601.84 652.13 586.61 652.92 609.91 570.49"/><path class="cls-1" d="M598.89,500.63s28.9,31.1,51.82,36.14,62.52-8,61.24,0-24.8,62.67-28.92,68.55-55.87.58-79.39-16.47-32.94-18.23-30.59-26.46S596,497.63,598.89,500.63Z"/><path class="cls-9" d="M590.7,566.21a.88.88,0,0,1-.43-1.65s3.38-2.13,7.81-13c4.62-11.32,11.75-26.3,11.82-26.45a.88.88,0,1,1,1.59.76c-.07.15-7.18,15.09-11.78,26.36-4.73,11.58-8.43,13.74-8.58,13.83A1,1,0,0,1,590.7,566.21Z"/><path class="cls-9" d="M604.81,569.74a.91.91,0,0,1-.32-.06.89.89,0,0,1-.5-1.15l10.2-25.88a.88.88,0,0,1,1.64.65l-10.2,25.88A.87.87,0,0,1,604.81,569.74Z"/><path class="cls-9" d="M640.49,587.77a.91.91,0,0,1-.35-.07.89.89,0,0,1-.46-1.16l14.12-32.82a.88.88,0,1,1,1.62.7L641.3,587.24A.88.88,0,0,1,640.49,587.77Z"/><path class="cls-9" d="M654.61,581.11a.85.85,0,0,1-.31-.06.87.87,0,0,1-.52-1.13c0-.06,2.39-6.45,4.91-12.84,5.23-13.26,6-13.59,6.55-13.82a.88.88,0,0,1,.8,1.57c-1.18,1.23-6.32,14.11-10.6,25.7A.89.89,0,0,1,654.61,581.11Z"/><path class="cls-9" d="M670.68,594.05a1,1,0,0,1-.34-.07.89.89,0,0,1-.47-1.16L681.63,565a.89.89,0,1,1,1.63.69L671.5,593.51A.91.91,0,0,1,670.68,594.05Z"/><path class="cls-9" d="M617.09,576a.87.87,0,0,1-.32-.06.88.88,0,0,1-.51-1.14L622.81,558a.88.88,0,0,1,1.65.64l-6.55,16.86A.88.88,0,0,1,617.09,576Z"/><path class="cls-12" d="M633.36,180.1s40-5.29,52.32,20.29,2.65,41.24,11.47,47.09,29.7,7,24.7,27.31-8.23,24.7-2.06,30.88,10.64,35.87,2.82,46.76S695.68,377.71,683.92,366s-33.23-48.22-36.17-68.22-15.88-19.11-26.47-25.88-17.6-17.69-17.6-17.69-11.22-30.24-1.22-47.3S621,180.48,633.36,180.1Z"/><path class="cls-7" d="M609.71,211.86s-9.21,13.92-8.43,23.72,3.73,20.2,2,25.49,5.49,30.78,9.22,34.31,25.88-3.14,25.88-3.14,2.2,16.66-5,21-4,35.68,6.35,37.44,14.51,11.18,24.5-2.35,13.93-38.74,13.93-38.74-5.69-7.92-6.67-17.33-2.16-23.52,2-26.47,7.06-14.5-.39-20-12.36,2.15-16.67,3.92-18.58-2.55-23-6.86a73.69,73.69,0,0,1-8.35-10.2s9.41,15.56,7.44,14.84S611.28,237.94,609.71,211.86Z"/><path class="cls-19" d="M638.34,292.24,656,286s-13.23,23.52-14.41,19.7S638.34,292.24,638.34,292.24Z"/><path class="cls-12" d="M659,248.71l-.06-1.17-19.77,1c-1.18-6.43-5.46-11.21-10.56-11.21s-9.51,4.93-10.61,11.52a5.17,5.17,0,0,0-2.73-1c-.33-.06-.7-.12-1.09-.21a3.74,3.74,0,0,0-3.33,1.16c-.83-6.23-4-10.74-7.79-10.74-4.48,0-8,6.18-8,14.06s3.51,14,8,14,8-6.17,8-14c0-.59,0-1.16-.06-1.72.21-.3,1.43-1.93,2.93-1.61.41.09.79.16,1.14.22,1.36.23,2,.36,2.74,1.41-.05.56-.08,1.12-.08,1.7,0,8.14,4.88,14.77,10.88,14.77s10.88-6.63,10.88-14.77a20.92,20.92,0,0,0-.14-2.4ZM603.08,265c-3.76,0-6.82-5.77-6.82-12.87s3.06-12.88,6.82-12.88,6.83,5.78,6.83,12.88S606.85,265,603.08,265Zm25.55.73c-5.35,0-9.7-6.1-9.7-13.6s4.35-13.6,9.7-13.6,9.71,6.1,9.71,13.6S634,265.68,628.63,265.68Z"/><path class="cls-19" d="M612.61,271.12a.64.64,0,0,1-.41-.16,20.6,20.6,0,0,1-3.65-4.58c-.85-1.7.61-2.51,2-3.29a10.94,10.94,0,0,0,3.06-2.22c1.71-1.92-.63-6.78-1.68-8.49a.59.59,0,1,1,1-.61c.17.28,4.2,6.93,1.55,9.89a12,12,0,0,1-3.37,2.46c-1.62.9-1.84,1.14-1.54,1.73A19.22,19.22,0,0,0,613,270.1a.58.58,0,0,1,0,.83A.59.59,0,0,1,612.61,271.12Z"/><path class="cls-19" d="M622.87,281.51a6,6,0,0,1-7.06,1.63,13.57,13.57,0,0,1-5.12-4c-.07-.32.29-.6.93-.84,2.62-1,10-1.39,13-1.41a8.09,8.09,0,0,1,1.24,0C626.41,277.08,625,279.6,622.87,281.51Z"/><path class="cls-20" d="M624.66,277.73c-.15.49-11.71,1.67-12.25,1.62-.24,0-.53-.5-.79-1,2.62-1,10-1.39,13-1.41A2.55,2.55,0,0,1,624.66,277.73Z"/><g class="cls-21"><path class="cls-7" d="M622.87,281.51a6,6,0,0,1-7.06,1.63,6.21,6.21,0,0,1,4.75-2A6.91,6.91,0,0,1,622.87,281.51Z"/></g><path class="cls-22" d="M711.85,434.37c-.39,14.9-26.27,35.68-26.27,35.68s.39,13.72,0,18.82-18,13.72-18,13.72-7.45,17.65-11,21.57-23.53-1.57-25.49-3.92,0-19.61,0-19.61-34.11-2.35-41.16-9.41-2.75-23.92,2.74-37.64,2.35-35.68-2-47.83.39-27.45.39-27.45h0a72.21,72.21,0,0,1-17.64,3.27c-5.48.22-11.16-.47-15.29-3.28-11-7.45-66.27-96.84-70.19-102.73s-2-10.58,2-14.89,26.27-16.08,30.59-12.55,21.17,32.15,25.09,41.17,27.84,42.35,32.54,44.7,48.62-18.43,48.62-18.43,6.59-2.33,6.59-2.36c0,.12,3.65,6,7.52,12.56s9.81-2.36,17.65-7.46,18.43-10.58,23.52-8.23,12.55,13.33,21.17,29S712.25,419.47,711.85,434.37Z"/><path class="cls-23" d="M618.15,333.61c-.22.24-5.06,5.64-15.69,20.58-10.88,15.29-11.37,24.11-11.37,24.11h0a72.21,72.21,0,0,1-17.64,3.27C588,357.49,617.65,334,618.15,333.61Z"/><path class="cls-23" d="M671.86,346.64s7.35,74.3,4.12,81.65-44.9,72.34-44.9,72.34l-14-1.48s22.13-22.34,36.83-43.21,18.82-36.47,18.53-52.05S671.86,346.64,671.86,346.64Z"/><polygon class="cls-23" points="685.58 470.05 667.55 502.59 676.8 497.4 685.58 470.05"/><path class="cls-7" d="M633.36,521.59s-8.35,8.65-7.18,19.62,1.61,11.77,7.18,10,10.07-18.62,11.84-17.64-.83,6.39,1.74,3.2,3.94-9.67,3.75-12.22S633.36,521.59,633.36,521.59Z"/><path class="cls-12" d="M627.75,251.23c0,2.07-1,3.75-2.12,3.75s-2.12-1.68-2.12-3.75,1-3.75,2.12-3.75S627.75,249.16,627.75,251.23Z"/><ellipse class="cls-12" cx="606.37" cy="252.08" rx="2.12" ry="3.75"/><path class="cls-24" d="M456.42,202.61h-.5V164.7L481,166.47l0,.48C480.42,186.94,469.61,202.61,456.42,202.61Zm.5-36.84V201.6c12.32-.39,22.35-15.24,23.08-34.2Z"/><g class="cls-25"><path class="cls-9" d="M424.18,102.07,404,213.77a4.12,4.12,0,0,0,2.38,4.5l73.22,32.48,27.13-149.89-78.34-2.17A4.11,4.11,0,0,0,424.18,102.07Z"/></g><g class="cls-26"><rect class="cls-9" x="420.5" y="172.85" width="152.32" height="7.19" transform="translate(234.57 633.74) rotate(-79.74)"/></g><ellipse class="cls-9" cx="457.14" cy="165.22" rx="36.88" ry="24.12" transform="translate(213.13 585.62) rotate(-79.74)"/><g class="cls-27"><path class="cls-6" d="M476.59,138.7l-19.45,26.52,6.56-36.28C469,129.9,473.44,133.47,476.59,138.7Z"/></g><g class="cls-5"><path class="cls-6" d="M480.87,169.52c-.1.56-.21,1.12-.33,1.67l-23.4-6,19.45-26.52C481.19,146.37,483,157.62,480.87,169.52Z"/></g><rect class="cls-9" x="14.73" y="787.21" width="875.91" height="16.32" rx="5"/><path class="cls-28" d="M808.88,675.92s-2.69-27.8-17.32-23.86S768,672.78,773.2,692.79,808.88,706,808.88,706Z"/><path class="cls-29" d="M810.33,579.8c-9.49-28.95-40.1-18.82-47.57,4.11s-.68,38.37,27.23,41.26S810.33,579.8,810.33,579.8Zm-29.9,16.31c-3.68,3.29-11.82-11.4-5.5-9.35C774.93,586.76,784.1,592.82,780.43,596.11Zm15-5.7s-7.76-15.28-2.73-17.79S803.6,595.8,795.39,590.41Z"/><path class="cls-29" d="M868.33,641.21c-13.4-17.58-46.27,24.49-46.27,24.49-17,27.94,8,36.76,29.79,22.84S881.73,658.78,868.33,641.21Zm-12,2.11c9.37-2.51-5.49,23-15.53,18S856.3,643.32,856.3,643.32Zm-4.93,37.17c-4,7.3-22,2.74-14.7-3.19C836.67,677.3,855.34,673.19,851.37,680.49Zm14.79-8.44c-2.88,7.86-19,1.33-13.75-3.56C852.41,668.49,869,664.2,866.16,672.05Z"/><path class="cls-28" d="M802.91,590.81c-12.83,16.79,0,35.3,0,35.3,10.62,4.45,10.87-4.44,23-2.22s28.39-1.24,30.36-27.15S815.75,574,802.91,590.81Zm10,12.41s.74-18.06,8.27-15.32S814.19,613.31,812.89,603.22Z"/><path class="cls-30" d="M830.36,602c-11.1,17-5.67,29.43-5.67,29.43,32.33,1.78,41.47-17.08,43.19-31.4S841.47,585,830.36,602Zm4.59,5.53s18.5-18.35,21.28-10.77S835.28,612.3,835,607.51Z"/><path class="cls-29" d="M793.42,638.93c-12.68-16.1-45.13-19.06-52.58-6.95s9.27,30.14,30.72,34,22.75,15.36,30,11.47C802.36,677.07,806.1,655,793.42,638.93Zm-39.08-5.88c.69-4.55,16.8,2.75,10.1,6.69C764.44,639.74,753.66,637.62,754.34,633.05Zm16.52,23.72c-.92.48-28.61.46-23.14-9.8S779.64,652.21,770.86,656.77Zm9.57-7.75s-8.45-2.28-8-7.76S785.61,646.63,780.43,649Z"/><path class="cls-28" d="M794.08,607.66c-22-16-39.5-8.89-38.26,12.58s41.22,25.93,49.25,12.59C805.07,632.83,816.05,623.71,794.08,607.66Zm-25.15-1.18c0-4,10-4.68,6,0C774.93,606.48,768.93,610.46,768.93,606.48Zm2.76,25c-5.27-9.88,16.33-15.15,18.3-6.36C790,625.17,777,641.4,771.69,631.53Z"/><path class="cls-31" d="M809.87,716a2,2,0,0,1-2-1.74c-.25-2.09-5.85-51.31,8.19-73.37,13.87-21.8,27.12-31.26,27.68-31.66a2,2,0,0,1,2.28,3.23c-.14.09-13.21,9.47-26.63,30.55-13.29,20.88-7.66,70.29-7.61,70.79a2,2,0,0,1-1.72,2.19Z"/><path class="cls-31" d="M807.7,696.78a1.84,1.84,0,0,1-1.57-1.93c-.06-1.26-1.46-31.1,1.27-52.17,2.77-21.42,20.49-47.25,21.25-48.34a1.33,1.33,0,0,1,2.22-.14,2.53,2.53,0,0,1,.11,2.9c-.18.26-17.86,26-20.48,46.27-2.66,20.59-1.24,50.92-1.23,51.22a1.93,1.93,0,0,1-1.47,2.18Z"/><path class="cls-31" d="M810.91,631.89a2,2,0,0,1-1.64-.88c-.07-.1-7-10.55-12.44-20.38S781.53,583,781.53,583l3.46-1.92s9.87,17.78,15.31,27.65c5.32,9.69,12.18,20,12.25,20.1a2,2,0,0,1-.54,2.74A2,2,0,0,1,810.91,631.89Z"/><path class="cls-31" d="M765.38,620a2,2,0,0,1-.78-3.79c.94-.39,23.08-9.63,40.86.09a2,2,0,1,1-1.9,3.46c-16.12-8.82-37.2,0-37.41.09A2.07,2.07,0,0,1,765.38,620Z"/><path class="cls-31" d="M808,685.58a2,2,0,0,1-1.85-1.28c-8.24-22-30.8-28.92-31-28.95a1.9,1.9,0,0,1-1.89-2,2,2,0,0,1,2-2c1.77,0,25.91,8.43,34.55,31.51a2,2,0,0,1-1.16,2.54A2.09,2.09,0,0,1,808,685.58Z"/><path class="cls-31" d="M808.66,696.8a1.79,1.79,0,0,0,1.66-1c7.39-16.94,27.62-22.25,27.82-22.28a1.59,1.59,0,0,0,1.69-1.52,1.72,1.72,0,0,0-1.84-1.51c-1.59,0-23.24,6.49-31,24.24a1.47,1.47,0,0,0,1,2A2.16,2.16,0,0,0,808.66,696.8Z"/><path class="cls-6" d="M799.15,786.45A29.66,29.66,0,0,1,770,762l-6.29-35c-1.52-8.44,4-16.38,11.29-16.38h79.66c7.58,0,13.1,8.45,11.15,17.06l-8.07,35.68a29.67,29.67,0,0,1-28.94,23.12Z"/></g></g></svg>