<svg xmlns="http://www.w3.org/2000/svg" viewBox="0 0 142.61 142.61"><defs><style>.cls-1{fill:#fff;}.cls-2{fill:#2c3058;}.cls-3{fill:#f7cd12;}</style></defs><g id="Calque_2" data-name="Calque 2"><g id="Calque_1-2" data-name="Calque 1"><circle class="cls-1" cx="71.3" cy="71.3" r="71.3"/><path class="cls-2" d="M106.06,51.31a4.61,4.61,0,0,0-3.15,8L94.44,65.1,91.74,57a4.61,4.61,0,1,0-5.15-.82l-8.4,5.6-4.59-8a4.62,4.62,0,1,0-4.59,0l-4.59,8L56,56.19a4.6,4.6,0,1,0-5.16.82L48.17,65.1,39.7,59.29a4.61,4.61,0,1,0-4.49,1.05L37,71.05a9.9,9.9,0,0,0-2,6.41c0,4.22,1.84,7.45,4.33,7.67l1.84,11a1.54,1.54,0,0,0,1.52,1.29H64.38a1.54,1.54,0,1,0,0-3.08H44l-.51-3.07H99.12l-.51,3.07H78.23a1.54,1.54,0,1,0,0,3.08H99.91a1.54,1.54,0,0,0,1.52-1.29l1.84-11c2.49-.22,4.33-3.45,4.33-7.67a9.85,9.85,0,0,0-2-6.41l1.79-10.71a4.61,4.61,0,0,0-1.34-9Zm-16.3,0a1.54,1.54,0,1,1-1.54,1.54A1.54,1.54,0,0,1,89.76,51.31Zm-.82,7,2.86,8.59-7.68,5.26-4.4-7.7ZM71.3,48.24a1.54,1.54,0,1,1-1.53,1.53A1.54,1.54,0,0,1,71.3,48.24ZM52.85,51.31a1.54,1.54,0,1,1-1.54,1.54A1.54,1.54,0,0,1,52.85,51.31Zm.82,7,9.22,6.15-4.4,7.7-7.68-5.26ZM36.55,54.39A1.54,1.54,0,1,1,35,55.92,1.54,1.54,0,0,1,36.55,54.39Zm1.53,23.07c0-2.49.83-4.17,1.42-4.56s1.66,1.66,1.66,4.56c0,2.49-.83,4.16-1.41,4.55S38.08,80.12,38.08,77.46ZM43,88.22l-.73-4.35a9.89,9.89,0,0,0,2-6.41c0-4.23-1.85-7.45-4.34-7.68l-1.24-7.47L58.13,75.65a1.54,1.54,0,0,0,2.21-.51L71.3,56l11,19.19a1.54,1.54,0,0,0,2.21.51L104,62.31l-1.24,7.47c-2.49.23-4.34,3.45-4.34,7.68a9.89,9.89,0,0,0,2,6.41l-.73,4.35Zm60-6.15c-.44,0-1.54-1.79-1.54-4.61s1.08-4.62,1.54-4.62,1.53,1.74,1.53,4.62S103.44,82.07,103,82.07Zm3.07-24.61a1.54,1.54,0,1,1,1.54-1.54A1.54,1.54,0,0,1,106.06,57.46Z"/><path class="cls-3" d="M71.3,69.77c-2.63,0-4.61,3.3-4.61,7.69s2,7.69,4.61,7.69,4.62-3.31,4.62-7.69S73.93,69.77,71.3,69.77Zm0,12.3c-.46,0-1.53-1.87-1.53-4.61s1.08-4.62,1.53-4.62,1.54,1.87,1.54,4.62S71.76,82.07,71.3,82.07Z"/><circle class="cls-3" cx="71.3" cy="95.91" r="1.54"/></g></g></svg>