<svg xmlns="http://www.w3.org/2000/svg" viewBox="0 0 1150.78 1192"><defs><style>.cls-1{fill:#161616;}.cls-2{fill:#1750a3;}.cls-3{fill:#08b7ae;}.cls-4{fill:#ffa119;}.cls-5{fill:#ea3939;}</style></defs><g id="Calque_2" data-name="Calque 2"><g id="Calque_1-2" data-name="Calque 1"><polygon class="cls-1" points="283.87 462.39 283.87 564.92 86.41 565.38 84.7 0.33 192.29 0 193.66 462.52 282.23 462.39 283.87 462.39"/><polygon class="cls-2" points="283.87 564.92 283.87 462.39 282.23 462.39 422.53 462.06 422.79 564.6 283.87 564.92"/><path class="cls-1" d="M299.61,900.13l-45.57,128-143.44-401L0,627.53,201.86,1192l103.71-.33,104-291.54Z"/><polygon class="cls-3" points="507.49 626.03 409.61 900.13 299.61 900.13 397.03 626.35 507.49 626.03"/><path class="cls-1" d="M1068.26,709.18q-81.1-81-192.89-81.83v99.93q71.21,1.13,121.46,52.65,51.61,52.92,51.83,129.42.28,77-50.71,129.62t-123.58,52.89q-64.22.2-114-40.13-64-51.62-64.28-140.57c0-3.55.06-7.09.18-10.58H593.43c-.13,3-.13,6-.13,9.09q.29,114.89,80.46,198.12t200.92,82.88q115.27-.36,195.89-82t80.21-198.93Q1150.41,791.35,1068.26,709.18Z"/><path class="cls-4" d="M875.37,627.35v99.93c-1.25-.06-2.62-.06-3.92-.06q-74.49.28-125,52.21-47.24,48.44-50.16,121.15H593.43Q595.2,829,630.08,768.1q37-64.68,102-102.61a275.37,275.37,0,0,1,140.2-38.14Z"/><path class="cls-1" d="M926.29,565.06,924.58,0,817.79.33l.92,310.09h56.84V565.19Z"/><polygon class="cls-5" points="875.55 310.42 875.55 565.19 819.49 565.38 818.71 310.42 875.55 310.42"/></g></g></svg>