<svg xmlns="http://www.w3.org/2000/svg" viewBox="0 0 142.61 142.61"><defs><style>.cls-1{fill:#fff;}.cls-2{fill:#2c3058;}</style></defs><g id="Calque_2" data-name="Calque 2"><g id="Calque_1-2" data-name="Calque 1"><circle class="cls-1" cx="71.3" cy="71.3" r="71.3"/><path class="cls-2" d="M98.34,48.24H44.27A5.78,5.78,0,0,0,38.5,54V88.6a5.78,5.78,0,0,0,5.77,5.77H98.34a5.78,5.78,0,0,0,5.77-5.77V54A5.77,5.77,0,0,0,98.34,48.24Zm-.81,3.84-22.15,22a5.77,5.77,0,0,1-8.16,0l-22.14-22ZM42.35,87.82v-33L59,71.31Zm2.73,2.7L61.68,74l2.83,2.81a9.62,9.62,0,0,0,13.59,0L80.93,74l16.6,16.49Zm55.18-2.7L83.65,71.31l16.61-16.52Z"/></g></g></svg>