<svg xmlns="http://www.w3.org/2000/svg" viewBox="0 0 142.61 142.61"><defs><style>.cls-1{fill:#fff;}.cls-2{fill:#2c3058;}.cls-3{fill:#f7cd12;}</style></defs><g id="Calque_2" data-name="Calque 2"><g id="Calque_1-2" data-name="Calque 1"><circle class="cls-1" cx="71.3" cy="71.3" r="71.3"/><path class="cls-2" d="M102.49,37.66H36.06a8.92,8.92,0,0,0-8.91,8.91V88.7a8.92,8.92,0,0,0,8.91,8.91H57.57l-2.59,13H46.59a1.62,1.62,0,0,0,0,3.24H92a1.62,1.62,0,0,0,0-3.24H83.56L81,97.61h21.52a8.92,8.92,0,0,0,8.91-8.91V46.57A8.92,8.92,0,0,0,102.49,37.66Zm-44.2,72.91,2.59-13H77.66l2.6,13ZM108.16,88.7a5.68,5.68,0,0,1-5.67,5.67H36.06a5.68,5.68,0,0,1-5.67-5.67v-4h77.77v4Zm0-7.29H30.39V78.17h9.72a1.62,1.62,0,1,0,0-3.24H30.39V46.57a5.67,5.67,0,0,1,5.67-5.67h66.43a5.68,5.68,0,0,1,5.67,5.67V81.41Z"/><path class="cls-3" d="M69.27,86.27a3.24,3.24,0,1,0,3.24,3.24A3.24,3.24,0,0,0,69.27,86.27Z"/><path class="cls-3" d="M82.54,68.69,79.1,65.25,82,62.39a1.6,1.6,0,0,0,.41-1.59,1.62,1.62,0,0,0-1.19-1.14L66.29,56.23a1.61,1.61,0,0,0-1.51.43,1.63,1.63,0,0,0-.44,1.51l3.44,14.89a1.62,1.62,0,0,0,1.13,1.2,1.65,1.65,0,0,0,1.6-.41L73.37,71l3.44,3.44a1.58,1.58,0,0,0,1.14.47,1.6,1.6,0,0,0,1.15-.47L82.54,71A1.62,1.62,0,0,0,82.54,68.69ZM78,71l-3.43-3.44a1.64,1.64,0,0,0-1.15-.47,1.62,1.62,0,0,0-1.14.47l-2,1.95L68.09,60l9.51,2.19-1.94,2a1.62,1.62,0,0,0,0,2.29l3.44,3.44Z"/><path class="cls-3" d="M62.6,52.19,61,50.57a1.62,1.62,0,0,0-2.29,2.29l1.62,1.62a1.61,1.61,0,0,0,1.15.48,1.59,1.59,0,0,0,1.14-.48A1.62,1.62,0,0,0,62.6,52.19Z"/><path class="cls-3" d="M59.44,56.58H57.15a1.62,1.62,0,0,0,0,3.24h2.29a1.62,1.62,0,0,0,0-3.24Z"/><path class="cls-3" d="M62.6,61.91a1.62,1.62,0,0,0-2.29,0l-1.62,1.62A1.62,1.62,0,0,0,61,65.83l1.62-1.62A1.64,1.64,0,0,0,62.6,61.91Z"/><path class="cls-3" d="M73.94,50.57a1.62,1.62,0,0,0-2.29,0L70,52.19A1.63,1.63,0,0,0,71.18,55a1.59,1.59,0,0,0,1.14-.48l1.62-1.62A1.61,1.61,0,0,0,73.94,50.57Z"/><path class="cls-3" d="M66.32,47.41A1.62,1.62,0,0,0,64.7,49v2.3a1.62,1.62,0,1,0,3.24,0V49A1.63,1.63,0,0,0,66.32,47.41Z"/><path class="cls-2" d="M46.56,76.23a1.51,1.51,0,0,0-.1-.3,1.25,1.25,0,0,0-.15-.28,1,1,0,0,0-.2-.25,1.59,1.59,0,0,0-.24-.2,1.51,1.51,0,0,0-.28-.15,1.58,1.58,0,0,0-.31-.09,1.67,1.67,0,0,0-.63,0l-.3.09a1.51,1.51,0,0,0-.28.15,2.43,2.43,0,0,0-.25.2,1.69,1.69,0,0,0-.2.25,1.25,1.25,0,0,0-.15.28,1.49,1.49,0,0,0-.09.3,1.66,1.66,0,0,0,0,.32,1.63,1.63,0,0,0,0,.31,1.32,1.32,0,0,0,.09.3,1.59,1.59,0,0,0,.15.29,2.31,2.31,0,0,0,.2.24,1.57,1.57,0,0,0,.25.2,1.51,1.51,0,0,0,.28.15l.3.1a1.73,1.73,0,0,0,.32,0,1.63,1.63,0,0,0,.31,0l.31-.1a1.51,1.51,0,0,0,.28-.15,1.16,1.16,0,0,0,.24-.2,1.11,1.11,0,0,0,.2-.24,1.59,1.59,0,0,0,.15-.29,1.32,1.32,0,0,0,.1-.3,1.63,1.63,0,0,0,0-.31A1.66,1.66,0,0,0,46.56,76.23Z"/></g></g></svg>