<svg xmlns="http://www.w3.org/2000/svg" viewBox="0 0 142.61 142.61"><defs><style>.cls-1{fill:#fff;}.cls-2{fill:#2c3058;}.cls-3{fill:#f7cd12;}</style></defs><g id="Calque_2" data-name="Calque 2"><g id="Calque_1-2" data-name="Calque 1"><circle class="cls-1" cx="71.3" cy="71.3" r="71.3"/><path class="cls-2" d="M92.4,53.82,80.93,39.32a12.39,12.39,0,0,0-7.87-4.53V27.32a1.75,1.75,0,0,0-3.49,0v7.47a12.17,12.17,0,0,0-7.86,4.53L50.21,53.84a7.27,7.27,0,0,0-1.55,4.46v43.54A7.14,7.14,0,0,0,55.82,109H86.75a7.15,7.15,0,0,0,7.2-7.07V58.3A7.37,7.37,0,0,0,92.4,53.82Zm-21.09-2a5.07,5.07,0,1,1-5.07,5.07A5.06,5.06,0,0,1,71.31,51.78Zm19.17,50.06a3.65,3.65,0,0,1-3.71,3.63H55.86a3.65,3.65,0,0,1-3.71-3.63V58.3A3.65,3.65,0,0,1,53,56L64.43,41.49a8.69,8.69,0,0,1,5.14-3.16V48.47a8.55,8.55,0,1,0,3.49,0V38.33a8.71,8.71,0,0,1,5.12,3.16L89.68,56a3.75,3.75,0,0,1,.8,2.32v43.54Z"/><path class="cls-3" d="M76.87,89.12A5.84,5.84,0,0,0,71.31,85a2.34,2.34,0,1,1,2.34-2.33,1.74,1.74,0,0,0,3.48,0,5.84,5.84,0,0,0-4.07-5.56v-.77a1.75,1.75,0,0,0-3.49,0v.77a5.82,5.82,0,0,0,1.74,11.38A2.34,2.34,0,1,1,69,90.86a1.75,1.75,0,0,0-3.49,0,5.83,5.83,0,0,0,4.08,5.56v.87a1.75,1.75,0,1,0,3.49,0v-.87A5.83,5.83,0,0,0,76.87,89.12Z"/></g></g></svg>