<svg xmlns="http://www.w3.org/2000/svg" viewBox="0 0 2806.17 1827.66"><defs><style>.cls-1{fill:#f59e26;}.cls-2{fill:#feffff;}.cls-22,.cls-23,.cls-3,.cls-34,.cls-4{fill:#fff;}.cls-10,.cls-17,.cls-4{font-size:64.22px;}.cls-10,.cls-17,.cls-23,.cls-34,.cls-4,.cls-42,.cls-44{font-family:NHaasGroteskDSPro-65Md, Neue Haas Grotesk Display Pro;font-weight:500;}.cls-5{letter-spacing:0em;}.cls-6{letter-spacing:-0.02em;}.cls-7{letter-spacing:-0.02em;}.cls-8{letter-spacing:0em;}.cls-9{letter-spacing:0em;}.cls-11{letter-spacing:0.02em;}.cls-12{letter-spacing:-0.03em;}.cls-13{letter-spacing:0em;}.cls-14{letter-spacing:0em;}.cls-15{letter-spacing:-0.01em;}.cls-16{letter-spacing:-0.06em;}.cls-17,.cls-21,.cls-29,.cls-42,.cls-44{fill:#909091;}.cls-18{letter-spacing:-0.03em;}.cls-19{letter-spacing:-0.02em;}.cls-20{letter-spacing:-0.01em;}.cls-22{isolation:isolate;}.cls-23{font-size:56.94px;}.cls-24{letter-spacing:-0.07em;}.cls-25{letter-spacing:-0.02em;}.cls-26{letter-spacing:-0.01em;}.cls-27{letter-spacing:-0.01em;}.cls-28{letter-spacing:0em;}.cls-29{font-size:37.62px;font-family:NHaasGroteskDSPro-25Th, Neue Haas Grotesk Display Pro;}.cls-30{letter-spacing:-0.03em;}.cls-31{letter-spacing:0em;}.cls-32{letter-spacing:-0.02em;}.cls-33{letter-spacing:-0.03em;}.cls-34,.cls-42,.cls-44{font-size:128.88px;}.cls-35{letter-spacing:-0.02em;}.cls-36{font-size:38.39px;font-family:NHaasGroteskDSPro-45Lt, Neue Haas Grotesk Display Pro;}.cls-37{letter-spacing:0em;}.cls-38{letter-spacing:0em;}.cls-39{letter-spacing:-0.01em;}.cls-40{letter-spacing:-0.02em;}.cls-41{letter-spacing:-0.02em;}.cls-42{letter-spacing:0em;}.cls-43{letter-spacing:0em;}</style></defs><g id="Calque_2" data-name="Calque 2"><g id="Calque_1-2" data-name="Calque 1"><path class="cls-1" d="M1401,0V1827.66H698.39V119.07A119.07,119.07,0,0,1,817.46,0Z"/><path class="cls-2" d="M124.62,463.05H698.39V1827.66H124.62A124.61,124.61,0,0,1,0,1703.05V587.66A124.61,124.61,0,0,1,124.62,463.05Z"/><path class="cls-2" d="M2806.17,124.61V1703.05a124.61,124.61,0,0,1-124.61,124.61H1401V0H2681.56A124.61,124.61,0,0,1,2806.17,124.61Z"/><polygon class="cls-3" points="1021.56 176.98 995.23 177.04 957.8 177.13 957.48 70.01 977.87 69.95 978.13 157.63 994.92 157.6 995.23 157.6 1021.51 157.54 1021.56 176.98"/><polygon class="cls-3" points="1037.62 188.62 1019.07 240.58 999.34 295.85 979.68 295.91 941.42 188.91 962.38 188.84 989.58 264.85 998.21 240.58 1016.68 188.68 1037.62 188.62"/><path class="cls-3" d="M1143.92,204.38q-15.37-15.36-36.56-15.51h-.59a52.92,52.92,0,0,0-52.86,51.8c0,.56,0,1.14,0,1.72A52.52,52.52,0,0,0,1069.14,280q15.19,15.78,38.09,15.71a50.5,50.5,0,0,0,37.13-15.54q15.27-15.44,15.2-37.71Q1159.5,220,1143.92,204.38Zm-13.33,62.52a31.6,31.6,0,0,1-23.42,10,33.27,33.27,0,0,1-21.61-7.61q-12.13-9.79-12.19-26.65c0-.67,0-1.34,0-2q.57-13.78,9.51-23a31.91,31.91,0,0,1,23.69-9.9c.25,0,.51,0,.75,0a31.7,31.7,0,0,1,23,10,34,34,0,0,1,9.83,24.54Q1140.26,256.93,1130.59,266.9Z"/><polygon class="cls-3" points="1117.01 177.06 1107.39 177.09 1096.76 177.13 1096.61 128.79 1096.44 70.01 1116.69 69.95 1117.01 177.06"/><text class="cls-4" transform="translate(874.34 393.46)"><tspan class="cls-5">L</tspan><tspan x="36.22" y="0">i</tspan><tspan class="cls-6" x="50.6" y="0">v</tspan><tspan x="81.17" y="0">o </tspan><tspan class="cls-7" x="128.82" y="0">A</tspan><tspan class="cls-8" x="169.85" y="0">gen</tspan><tspan class="cls-9" x="276.01" y="0">c</tspan><tspan x="309.59" y="0">y </tspan></text><text class="cls-10" transform="translate(97.98 1679.27)">Prix mensuel <tspan class="cls-11" x="373.1" y="0">T</tspan><tspan class="cls-12" x="413.3" y="0">T</tspan><tspan x="450.29" y="0">C</tspan></text><text class="cls-10" transform="translate(204.39 1329.55)"><tspan class="cls-13">R</tspan><tspan x="41.48" y="0">éactivi</tspan><tspan class="cls-13" x="225.47" y="0">t</tspan><tspan class="cls-14" x="246.46" y="0">é</tspan></text><text class="cls-10" transform="translate(192.8 973.18)">Domaine &amp;<tspan x="-40.94" y="59.31">comp</tspan><tspan class="cls-15" x="120.05" y="59.31">é</tspan><tspan class="cls-13" x="154.35" y="59.31">t</tspan><tspan x="175.35" y="59.31">ences</tspan></text><text class="cls-10" transform="translate(79.28 658.11)"><tspan class="cls-7">P</tspan><tspan x="39.62" y="0">as d</tspan><tspan class="cls-16" x="151.42" y="0">’</tspan><tspan x="160.48" y="0">engageme</tspan><tspan class="cls-15" x="459.54" y="0">n</tspan><tspan x="494.15" y="0">t</tspan></text><text class="cls-17" transform="translate(1612.36 393.46)"><tspan class="cls-18">F</tspan><tspan class="cls-19" x="36.22" y="0">r</tspan><tspan x="57.8" y="0">eelance</tspan></text><text class="cls-17" transform="translate(2333.96 390.9)">Empl<tspan class="cls-20" x="144.62" y="0">oy</tspan><tspan class="cls-14" x="211.47" y="0">é</tspan></text><path class="cls-21" d="M1752.28,895a78.19,78.19,0,1,0,78.19,78.18A78.28,78.28,0,0,0,1752.28,895Zm0,146.37a68.19,68.19,0,1,1,68.19-68.19A68.27,68.27,0,0,1,1752.28,1041.37Z"/><path class="cls-21" d="M1759.35,973.19l28.73,28.72a5,5,0,0,1,0,7.07h0a5,5,0,0,1-7.07,0l-28.73-28.73L1723.54,1009a5,5,0,0,1-7.07,0h0a5,5,0,0,1,0-7.07l28.74-28.72-28.74-28.74a5,5,0,0,1,0-7.07h0a5,5,0,0,1,7.07,0l28.74,28.74L1781,937.38a5,5,0,0,1,7.07,0h0a5,5,0,0,1,0,7.07Z"/><path class="cls-21" d="M2454.87,550.82A78.19,78.19,0,1,0,2533.06,629,78.28,78.28,0,0,0,2454.87,550.82Zm0,146.37A68.19,68.19,0,1,1,2523.06,629,68.27,68.27,0,0,1,2454.87,697.19Z"/><path class="cls-21" d="M2461.94,629l28.74,28.73a5,5,0,0,1,0,7.07h0a5,5,0,0,1-7.07,0l-28.74-28.74-28.73,28.74a5,5,0,0,1-7.07,0h0a5,5,0,0,1,0-7.07L2447.8,629l-28.73-28.73a5,5,0,0,1,0-7.07h0a5,5,0,0,1,7.07,0l28.73,28.73,28.74-28.73a5,5,0,0,1,7.07,0h0a5,5,0,0,1,0,7.07Z"/><path class="cls-21" d="M2454.87,895a78.19,78.19,0,1,0,78.19,78.19A78.27,78.27,0,0,0,2454.87,895Zm0,146.37a68.19,68.19,0,1,1,68.19-68.18A68.26,68.26,0,0,1,2454.87,1041.37Z"/><path class="cls-21" d="M2498.82,947.69l-61.59,61.6-7.07-7.07v0L2410.92,983a5,5,0,0,1,0-7.07h0a5,5,0,0,1,7.07,0l19.25,19.25,54.51-54.51a5,5,0,0,1,7.07,0h0A5,5,0,0,1,2498.82,947.69Z"/><path class="cls-21" d="M1752.27,553.2a78.19,78.19,0,1,0,78.19,78.19A78.27,78.27,0,0,0,1752.27,553.2Zm0,146.37a68.19,68.19,0,1,1,68.19-68.18A68.26,68.26,0,0,1,1752.27,699.57Z"/><path class="cls-21" d="M1796.23,605.89l-61.6,61.6-7.07-7.07v0l-19.24-19.25a5,5,0,0,1,0-7.07h0a5,5,0,0,1,7.07,0l19.24,19.25,54.51-54.51a5,5,0,0,1,7.08,0h0A5,5,0,0,1,1796.23,605.89Z"/><path class="cls-22" d="M1050.48,895a78.19,78.19,0,1,0,78.19,78.19A78.27,78.27,0,0,0,1050.48,895Zm0,146.37a68.19,68.19,0,1,1,68.19-68.18A68.26,68.26,0,0,1,1050.48,1041.37Z"/><path class="cls-22" d="M1094.44,947.69l-61.6,61.6-7.07-7.07v0L1006.54,983a5,5,0,0,1,0-7.07h0a5,5,0,0,1,7.07,0l19.24,19.25,54.51-54.51a5,5,0,0,1,7.08,0h0A5,5,0,0,1,1094.44,947.69Z"/><path class="cls-22" d="M1050.48,550.82A78.19,78.19,0,1,0,1128.67,629,78.27,78.27,0,0,0,1050.48,550.82Zm0,146.37A68.19,68.19,0,1,1,1118.67,629,68.26,68.26,0,0,1,1050.48,697.19Z"/><path class="cls-22" d="M1094.44,603.52l-61.6,61.59-7.07-7.07v0l-19.24-19.24a5,5,0,0,1,0-7.07h0a5,5,0,0,1,7.07,0L1032.85,651l54.51-54.51a5,5,0,0,1,7.08,0h0A5,5,0,0,1,1094.44,603.52Z"/><text class="cls-4" transform="translate(964.53 769.52)">1 mois</text><text class="cls-23" transform="translate(907.17 1109.59)"><tspan class="cls-24">T</tspan><tspan class="cls-25" x="30.81" y="0">r</tspan><tspan x="49.94" y="0">an</tspan><tspan class="cls-26" x="110.92" y="0">s</tspan><tspan class="cls-27" x="137.97" y="0">v</tspan><tspan x="165.07" y="0">er</tspan><tspan class="cls-28" x="216.03" y="0">s</tspan><tspan x="243.93" y="0">al</tspan></text><text class="cls-23" transform="translate(912.78 1454.99)"><tspan class="cls-24">T</tspan><tspan class="cls-25" x="30.81" y="0">r</tspan><tspan x="49.94" y="0">ès </tspan><tspan class="cls-27" x="118.09" y="0">r</tspan><tspan x="137.23" y="0">apide</tspan></text><text class="cls-29" transform="translate(2245.98 1746.55)">cha<tspan class="cls-30" x="55.12" y="0">r</tspan><tspan x="65.05" y="0">ge </tspan><tspan class="cls-31" x="109.6" y="0">p</tspan><tspan class="cls-32" x="129.08" y="0">a</tspan><tspan x="146.77" y="0">t</tspan><tspan class="cls-33" x="156.74" y="0">r</tspan><tspan x="166.67" y="0">onale comprise</tspan></text><text class="cls-34" transform="translate(913.42 1703.72)"><tspan class="cls-35">5</tspan><tspan x="71.92" y="0">12€</tspan></text><text class="cls-36" transform="translate(101.51 1721.85)">Calculé sur la <tspan class="cls-37" x="206.87" y="0">ba</tspan><tspan class="cls-38" x="245.99" y="0">s</tspan><tspan x="263.49" y="0">e de n</tspan><tspan class="cls-39" x="353.7" y="0">o</tspan><tspan x="373.43" y="0">t</tspan><tspan class="cls-40" x="384.26" y="0">r</tspan><tspan x="395.12" y="0">e </tspan><tspan class="cls-39" x="420.38" y="0">o</tspan><tspan x="440.11" y="0">ff</tspan><tspan class="cls-41" x="459.03" y="0">r</tspan><tspan x="469.9" y="0">e</tspan></text><text class="cls-42" transform="translate(1602.52 1703.72)">8<tspan class="cls-43" x="76.3" y="0">20€</tspan></text><text class="cls-44" transform="translate(2246.47 1700.72)">3500€*</text><path class="cls-21" d="M1734.66,1376.88v16.7H1618.52v-16.7h8.29c0-1.34,0-2.49,0-3.64a59.94,59.94,0,0,1,.41-8.06c1.09-6.32,3.74-12.13,6.75-17.71,5.13-9.52,10.53-18.9,15.91-28.29,2.06-3.6,2.09-3.5,0-7.09-5.31-9.29-10.65-18.56-15.74-28-2.94-5.43-5.62-11.07-6.73-17.19-.63-3.48-.46-7.1-.63-10.65,0-.64,0-1.29,0-2h-8.29v-16.7h116.14v16.7h-8.28c0,1.7-.08,3.24,0,4.76a31.32,31.32,0,0,1-2.92,15.12c-2.6,5.69-5.16,11.42-8.15,16.9-4.36,8-9.07,15.74-13.67,23.57a1.61,1.61,0,0,0,0,1.91c1.83,3,3.6,6,5.38,9,5.49,9.24,10.88,18.53,15.21,28.39,1.84,4.17,3.6,8.41,4,13,.24,2.84.11,5.72.15,8.58,0,.44,0,.88.07,1.42Zm-99.54-122.59c0,1.82.11,3.52,0,5.21a22.12,22.12,0,0,0,2.65,12.12c4.8,9.24,9.74,18.4,14.62,27.59q3.77,7.1,7.5,14.19a4.36,4.36,0,0,1,0,4.3c-3.05,5.75-6.15,11.48-9.19,17.23-4.37,8.25-8.77,16.48-13,24.79a21.4,21.4,0,0,0-2.56,11.64c.12,1.49,0,3,0,4.49a7.79,7.79,0,0,0,.14,1h81.06c.29,0,.58,0,.87,0,.65.06.89-.23.88-.87a33.43,33.43,0,0,1,0-3.61,24,24,0,0,0-3-13.55c-4.69-8.92-9.52-17.77-14.29-26.65q-3.9-7.29-7.77-14.61a4.26,4.26,0,0,1,0-4.18c1.93-3.71,3.84-7.44,5.83-11.12,5.23-9.67,10.55-19.29,15.73-29,2.48-4.64,4-9.57,3.42-14.94-.1-1,0-2.08,0-3.12,0-.31-.07-.62-.11-1Z"/><path class="cls-21" d="M1647.69,1267.27h57.73a19.21,19.21,0,0,1-.75,7.87,63.7,63.7,0,0,1-8.8,16.11,99.65,99.65,0,0,1-15.09,16.17,2.1,2.1,0,0,0-.62,1.38c-.05,3.32-.07,6.65,0,10a2.89,2.89,0,0,0,.77,1.71A121,121,0,0,1,1705,1357c.78,1.88.48,4.2.69,6.41h-58c.17-2.36-.35-4.68.55-7a94.21,94.21,0,0,1,14.09-24.22c3.15-4,6.64-7.75,9.93-11.66a3.41,3.41,0,0,0,.77-1.94q.12-4.74,0-9.47a2.45,2.45,0,0,0-.86-1.72c-7-5.17-12.31-11.86-16.61-19.32-2.69-4.66-4.82-9.63-7.24-14.44C1647.27,1271.56,1647.83,1269.46,1647.69,1267.27Z"/><path class="cls-3" d="M1108.56,1254.26v-16.7H992.41v16.7h8.3c0,.73,0,1.38,0,2,.18,3.55,0,7.17.64,10.65,1.11,6.12,3.79,11.76,6.72,17.19,5.09,9.41,10.44,18.68,15.74,28,1,1.77,1.52,2.64,1.53,3.5h9a4.57,4.57,0,0,0-.56-2.19q-3.75-7.1-7.51-14.19c-4.87-9.19-9.82-18.35-14.61-27.59a22,22,0,0,1-2.66-12.12c.14-1.69,0-3.39,0-5.21h82.83a8.15,8.15,0,0,1,.11,1c0,1-.08,2.09,0,3.12.54,5.37-.94,10.3-3.42,14.94-5.18,9.7-10.5,19.32-15.73,29-2,3.68-3.89,7.41-5.83,11.12a4.51,4.51,0,0,0-.56,2.18h8.79a2,2,0,0,1,.33-1c4.59-7.83,9.31-15.6,13.66-23.57,3-5.48,5.55-11.21,8.15-16.9a31.33,31.33,0,0,0,2.93-15.12c-.09-1.52,0-3.06,0-4.76Z"/><path class="cls-3" d="M1078.56,1275.14a64,64,0,0,1-8.79,16.11,99.71,99.71,0,0,1-15.1,16.17,2.1,2.1,0,0,0-.62,1.38c0,2.26,0,4.52,0,6.79H1047c0-2.18,0-4.35,0-6.52a2.5,2.5,0,0,0-.87-1.72c-7-5.17-12.31-11.86-16.61-19.32-2.68-4.66-4.81-9.63-7.24-14.44-1-2-.47-4.13-.6-6.32h57.73A19.38,19.38,0,0,1,1078.56,1275.14Z"/><path class="cls-21" d="M1882.62,1376.88v16.7H1766.47v-16.7h8.3c0-1.34,0-2.49,0-3.64a60,60,0,0,1,.4-8.06c1.09-6.32,3.75-12.13,6.75-17.71,5.13-9.52,10.54-18.9,15.92-28.29,2.06-3.6,2.08-3.5,0-7.09-5.31-9.29-10.66-18.56-15.75-28-2.93-5.43-5.61-11.07-6.72-17.19-.63-3.48-.46-7.1-.64-10.65,0-.64,0-1.29,0-2h-8.3v-16.7h116.15v16.7h-8.28c0,1.7-.08,3.24,0,4.76a31.44,31.44,0,0,1-2.92,15.12c-2.61,5.69-5.16,11.42-8.16,16.9-4.35,8-9.07,15.74-13.66,23.57a1.58,1.58,0,0,0,0,1.91c1.82,3,3.59,6,5.37,9,5.49,9.24,10.88,18.53,15.22,28.39,1.83,4.17,3.6,8.41,4,13,.25,2.84.11,5.72.15,8.58,0,.44.05.88.07,1.42Zm-99.54-122.59c0,1.82.11,3.52,0,5.21a22.13,22.13,0,0,0,2.66,12.12c4.8,9.24,9.74,18.4,14.62,27.59l7.5,14.19a4.39,4.39,0,0,1,0,4.3c-3.06,5.75-6.15,11.48-9.2,17.23-4.36,8.25-8.77,16.48-13,24.79a21.31,21.31,0,0,0-2.56,11.64c.12,1.49,0,3,0,4.49a9.93,9.93,0,0,0,.14,1h81.07c.29,0,.58,0,.87,0,.64.06.89-.23.88-.87a31,31,0,0,1,0-3.61,24,24,0,0,0-3-13.55c-4.7-8.92-9.53-17.77-14.29-26.65q-3.91-7.29-7.77-14.61a4.26,4.26,0,0,1,0-4.18c1.94-3.71,3.84-7.44,5.84-11.12,5.22-9.67,10.55-19.29,15.72-29,2.48-4.64,4-9.57,3.43-14.94-.11-1,0-2.08,0-3.12a8.15,8.15,0,0,0-.11-1Z"/><path class="cls-21" d="M1795.65,1267.27h57.73a19.21,19.21,0,0,1-.76,7.87,63.67,63.67,0,0,1-8.79,16.11,99.71,99.71,0,0,1-15.1,16.17,2.1,2.1,0,0,0-.62,1.38c0,3.32-.06,6.65,0,10a2.82,2.82,0,0,0,.76,1.71A120.83,120.83,0,0,1,1853,1357c.78,1.88.49,4.2.7,6.41h-58c.18-2.36-.34-4.68.55-7a94,94,0,0,1,14.1-24.22c3.15-4,6.64-7.75,9.92-11.66a3.41,3.41,0,0,0,.77-1.94q.12-4.74,0-9.47a2.49,2.49,0,0,0-.86-1.72c-7-5.17-12.32-11.86-16.62-19.32-2.68-4.66-4.81-9.63-7.24-14.44C1795.23,1271.56,1795.78,1269.46,1795.65,1267.27Z"/><path class="cls-21" d="M2512.94,1376.88v16.7H2396.8v-16.7h8.29c0-1.34,0-2.49,0-3.64a61.64,61.64,0,0,1,.41-8.06c1.09-6.32,3.74-12.13,6.75-17.71,5.13-9.52,10.54-18.9,15.91-28.29,2.06-3.6,2.09-3.5,0-7.09-5.3-9.29-10.65-18.56-15.74-28-2.94-5.43-5.61-11.07-6.72-17.19-.63-3.48-.46-7.1-.64-10.65,0-.64,0-1.29,0-2h-8.29v-16.7h116.14v16.7h-8.28c0,1.7-.07,3.24,0,4.76a31.33,31.33,0,0,1-2.93,15.12c-2.6,5.69-5.16,11.42-8.15,16.9-4.35,8-9.07,15.74-13.67,23.57a1.61,1.61,0,0,0,0,1.91c1.83,3,3.6,6,5.38,9,5.49,9.24,10.88,18.53,15.21,28.39,1.84,4.17,3.61,8.41,4,13,.25,2.84.11,5.72.15,8.58,0,.44,0,.88.07,1.42Zm-99.54-122.59c0,1.82.12,3.52,0,5.21a22.12,22.12,0,0,0,2.65,12.12c4.8,9.24,9.74,18.4,14.62,27.59q3.76,7.1,7.5,14.19a4.39,4.39,0,0,1,0,4.3c-3.06,5.75-6.15,11.48-9.2,17.23-4.37,8.25-8.77,16.48-13,24.79a21.41,21.41,0,0,0-2.57,11.64c.13,1.49,0,3,0,4.49a7.79,7.79,0,0,0,.14,1h81.06c.29,0,.59,0,.87,0,.65.06.89-.23.88-.87,0-1.2-.09-2.42,0-3.61a24,24,0,0,0-3-13.55c-4.69-8.92-9.52-17.77-14.28-26.65-2.61-4.86-5.19-9.74-7.78-14.61a4.26,4.26,0,0,1,0-4.18c1.94-3.71,3.84-7.44,5.83-11.12,5.23-9.67,10.55-19.29,15.73-29,2.48-4.64,4-9.57,3.42-14.94-.1-1,0-2.08,0-3.12a8.15,8.15,0,0,0-.11-1Z"/><path class="cls-21" d="M2426,1267.27h57.73a19.38,19.38,0,0,1-.76,7.87,63.7,63.7,0,0,1-8.8,16.11,99.21,99.21,0,0,1-15.09,16.17,2.1,2.1,0,0,0-.62,1.38c-.05,3.32-.07,6.65,0,10a2.82,2.82,0,0,0,.76,1.71,121,121,0,0,1,24.07,36.47c.78,1.88.48,4.2.69,6.41h-58c.17-2.36-.35-4.68.55-7a94,94,0,0,1,14.1-24.22c3.15-4,6.63-7.75,9.92-11.66a3.41,3.41,0,0,0,.77-1.94q.12-4.74,0-9.47a2.5,2.5,0,0,0-.87-1.72c-7-5.17-12.31-11.86-16.61-19.32-2.69-4.66-4.82-9.63-7.24-14.44C2425.56,1271.56,2426.11,1269.46,2426,1267.27Z"/><path class="cls-21" d="M1688.39,203.83c-4.15-12.81,5.69-18.28,12.69-25.27,4-4,8.27-7.76,12.19-11.85,3.53-3.68,1.37-5.66-2.51-6.8a3.35,3.35,0,0,0-.71,0c-16-1.75-16-1.75-16-17.9,0-3.31.27-6.64-.06-9.92-.63-6.24,1-10.71,7.8-11.26.61-7,.36-13.72,1.91-20,4-16.32,17.88-26.82,34.6-27,8.74-.1,17.48-.06,26.22,0,22,.12,37.29,15.37,37.42,37.4,0,3,0,6.09,0,9.55,8,.56,8.8,5.67,8.42,12a168.93,168.93,0,0,0,0,18.42c.33,6.56-2.84,8.66-8.94,8.88-3.87.14-7.69,1.6-11.54,2.47,2.24,3.22,4.28,6.6,6.76,9.62a91,91,0,0,0,7.06,7c7,6.79,16.43,12.22,12.3,23.76,1.16.87,1.33,1.11,1.52,1.13,15.25,1.68,15.33,1.69,12.8,17.58-2.41,15.12-5.11,30.2-7.48,45.32-.85,5.42-3.49,7.42-9,7.39q-61.65-.25-123.3,0c-5,0-8-1.31-8.87-6.67-2.83-17.44-6-34.83-8.82-52.27-1.58-9.84-.5-10.83,9.72-11C1684.12,204.2,1685.72,204,1688.39,203.83Zm-4.67,11.64c2.52,14.5,5.24,28.12,7.12,41.86.72,5.22,2.58,6.45,7.57,6.42,31.88-.22,63.76-.09,95.64-.14,5.86,0,13.46,1.8,17.09-1.15s3.24-10.72,4.26-16.44c1.79-10.05,3.3-20.14,5-30.55Zm99.87-77c0-.32-.07-2.44-.32-4.55-1.84-15.53-13.87-28.09-28.57-29.89-12.86-1.58-26.1,7.28-31.34,21.62s-3.63,27.89,5.82,40c11.88,15.27,33.74,15.22,45.85.13C1781,158.36,1783.89,149.84,1783.59,138.48Zm-63.36,34.33c-6.08,6.68-11.53,13.24-17.61,19.15-3.61,3.52-5.13,6.95-3.48,11.92h107.28c-1.87-15.57-16.32-19.89-23.32-30.28C1764.93,191.57,1741,193,1720.23,172.81Zm70.45-53.45c3.71-20.55-8.5-36.39-29.24-34.73a126.94,126.94,0,0,1-19.79,0c-19.7-1.53-32.29,15.44-28,34C1733.87,82.54,1773.76,87.08,1790.68,119.36Zm-79.94,21.3-3.57-8.47c-.73,2.88-2.09,5.77-2,8.62.07,2.68,1.67,5.32,2.6,8Zm82.82-.8c1.21,3.2,2.29,6.08,3.38,8.95.8-3,2.18-6.06,2.21-9.1,0-2.5-1.55-5-2.41-7.53C1795.73,134.63,1794.71,137.08,1793.56,139.86Z"/><path class="cls-21" d="M1832.41,280.52c-.83-4.77-1.66-9.17-2.34-13.59-.55-3.54-.24-7.38,4.23-7.14,2.12.11,5.22,2.92,5.88,5.1,1.89,6.29,2.87,12.86,4,19.36,1,5.73-2.21,7.66-7.34,7.66H1671.73c-12,0-12.77-.88-10.6-12.52.91-4.87,1.37-9.89,3-14.5.78-2.21,3.75-5,5.86-5.11,4.49-.24,4.77,3.63,4.23,7.16-.66,4.42-1.49,8.81-2.31,13.57Z"/><path class="cls-21" d="M2423.67,158.38c10.25,19.56,20.38,38.91,30.76,58.71l30.7-58.62a49.12,49.12,0,0,1,14.64,8c14.11,10.55,24.06,24.38,31.48,40.17,6.77,14.4,10.77,29.64,13.09,45.32,1.91,12.93-6.54,22.62-19.67,22.63-46.66,0-93.31-.12-140,.1-14.43.07-22.12-12.11-20.2-23.19,3.38-19.56,8.58-38.38,18.74-55.57,8.38-14.18,19.1-26.16,33.55-34.47,1.12-.64,2.29-1.2,3.47-1.74C2421.28,159.29,2422.34,158.91,2423.67,158.38Zm30.89,67.56v0h-53.31c-3.32,0-3.53.26-2.66,3.45,3.25,12,6.55,24,9.7,36.1.49,1.9,1.11,2.59,3.18,2.59q43.08-.14,86.17,0c1.67,0,2.4-.46,2.83-2.09,3.24-12.28,6.57-24.54,9.86-36.81.8-3,.65-3.18-2.46-3.18Z"/><path class="cls-21" d="M2493.23,113.23a38.4,38.4,0,0,1-36.4,41.61,39.2,39.2,0,0,1-41.41-38.71c-.4-20.62,17.13-38.87,37.63-39.18C2474.74,76.61,2491.62,92.07,2493.23,113.23Z"/><path class="cls-21" d="M2463.88,188.12a16.6,16.6,0,0,1-.71,1.69c-2.08,3.84-4.15,7.69-6.28,11.51-1.21,2.19-3.18,2.19-4.39,0-2.14-3.89-4.27-7.78-6.26-11.75a4.56,4.56,0,0,1-.23-3c2-6.4,4.15-12.77,6.4-19.1.37-1.05,1.53-1.82,2.33-2.72.78.9,1.93,1.68,2.3,2.73,2.19,6.17,4.2,12.41,6.26,18.63C2463.5,186.74,2463.66,187.37,2463.88,188.12Z"/><path class="cls-21" d="M2549.11,280.61c-1-4.95-1.94-9.5-2.75-14.07-.65-3.67-.28-7.65,5-7.4,2.48.12,6.13,3,6.9,5.29,2.23,6.5,3.38,13.31,4.73,20,1.19,5.93-2.61,7.94-8.64,7.94h-37.51q-78.35,0-156.69,0c-14.15,0-15-.91-12.47-13,1.07-5,1.61-10.24,3.53-15,.93-2.29,4.42-5.18,6.9-5.29,5.28-.25,5.61,3.76,5,7.41-.78,4.57-1.76,9.12-2.73,14.06Z"/></g></g></svg>