<svg xmlns="http://www.w3.org/2000/svg" viewBox="0 0 2806.17 1827.66"><defs><style>.cls-1{fill:#f59e26;}.cls-2{fill:#feffff;}.cls-3,.cls-5{fill:#fff;}.cls-4{fill:#909091;}.cls-5{isolation:isolate;}</style></defs><g id="Calque_2" data-name="Calque 2"><g id="Calque_1-2" data-name="Calque 1"><path class="cls-1" d="M1401,0V1827.66H698.39V119.07A119.07,119.07,0,0,1,817.46,0Z"/><path class="cls-2" d="M124.62,463.05H698.39V1827.66H124.62A124.61,124.61,0,0,1,0,1703.05V587.66A124.61,124.61,0,0,1,124.62,463.05Z"/><path class="cls-2" d="M2806.17,124.61V1703.05a124.61,124.61,0,0,1-124.61,124.61H1401V0H2681.56A124.61,124.61,0,0,1,2806.17,124.61Z"/><polygon class="cls-3" points="1021.56 176.98 995.23 177.04 957.8 177.13 957.48 70.01 977.87 69.95 978.13 157.63 994.92 157.6 995.23 157.6 1021.51 157.54 1021.56 176.98"/><polygon class="cls-3" points="1037.62 188.62 1019.07 240.58 999.34 295.85 979.68 295.91 941.42 188.91 962.38 188.84 989.58 264.85 998.21 240.58 1016.68 188.68 1037.62 188.62"/><path class="cls-3" d="M1143.92,204.38q-15.37-15.36-36.56-15.51h-.59a52.92,52.92,0,0,0-52.86,51.8c0,.56,0,1.14,0,1.72A52.52,52.52,0,0,0,1069.14,280q15.19,15.78,38.09,15.71a50.5,50.5,0,0,0,37.13-15.54q15.27-15.44,15.2-37.71Q1159.5,220,1143.92,204.38Zm-13.33,62.52a31.6,31.6,0,0,1-23.42,10,33.27,33.27,0,0,1-21.61-7.61q-12.13-9.79-12.19-26.65c0-.67,0-1.34,0-2q.57-13.78,9.51-23a31.91,31.91,0,0,1,23.69-9.9c.25,0,.51,0,.75,0a31.7,31.7,0,0,1,23,10,34,34,0,0,1,9.83,24.54Q1140.26,256.93,1130.59,266.9Z"/><polygon class="cls-3" points="1117.01 177.06 1107.39 177.09 1096.76 177.13 1096.61 128.79 1096.44 70.01 1116.69 69.95 1117.01 177.06"/><path class="cls-3" d="M877.87,347.54h9.32v38.15h21.57v7.77H877.87Z"/><path class="cls-3" d="M913.38,347.54h8.74v7.84h-8.74Zm0,13h8.74v32.95h-8.74Z"/><path class="cls-3" d="M925.07,360.51h8.86l5.27,17.09c1,3.15,1.48,5.26,1.48,5.26h.13s.45-2.11,1.41-5.26l5.39-17.09h8.74l-11.5,32.95H936.5Z"/><path class="cls-3" d="M956.73,377c0-9.83,7-17.4,17.21-17.4s17.21,7.57,17.21,17.4-7,17.41-17.21,17.41S956.73,386.85,956.73,377Zm25.56,0c0-6.42-3-10.79-8.35-10.79s-8.35,4.37-8.35,10.79,3,10.73,8.35,10.73S982.29,383.44,982.29,377Z"/><path class="cls-3" d="M1019.34,347.54H1029l16.18,45.92h-9.7l-3.08-9.76h-16.57l-3,9.76h-9.44Zm-1.35,29h12.14L1026,363.34c-.77-2.44-1.86-7.06-1.86-7.06H1024s-1.15,4.62-1.92,7.06Z"/><path class="cls-3" d="M1046.12,394.43h8.67c.71,2.05,2.57,3.66,6.62,3.66,4.94,0,7.32-2.38,7.32-6.88v-3.59h-.19a10.68,10.68,0,0,1-8.61,3.85c-7.32,0-14.51-5.78-14.51-15.73s5.9-16.12,14.25-16.12a10.62,10.62,0,0,1,9.12,4.36h.13v-3.47h8.41V391c0,4.62-1.47,7.77-3.91,10-2.76,2.56-7,3.72-11.88,3.72C1052.54,404.7,1047,400.85,1046.12,394.43Zm23.06-18.89c0-4.81-2.57-8.92-7.84-8.92-4.43,0-7.38,3.46-7.38,9s3,8.86,7.45,8.86C1066.93,384.47,1069.18,380.42,1069.18,375.54Z"/><path class="cls-3" d="M1081.38,377c0-9.77,6.61-17.34,16.25-17.34,10.59,0,16.24,8.09,16.24,19.84H1090c.65,5.07,3.47,8.22,8.42,8.22,3.4,0,5.39-1.54,6.35-4h8.61c-1.22,5.84-6.42,10.79-14.9,10.79C1087.54,394.43,1081.38,386.78,1081.38,377Zm8.73-3.54h14.64c-.25-4.17-3-7.06-7-7.06C1093.13,366.36,1090.88,369.12,1090.11,373.42Z"/><path class="cls-3" d="M1126.46,365h.19a10.71,10.71,0,0,1,9.76-5.39c6.81,0,11.37,5.13,11.37,12.33v21.51h-8.73V373.23c0-3.53-2.06-6-5.72-6-3.85,0-6.68,3.09-6.68,7.58v18.69h-8.73V360.51h8.54Z"/><path class="cls-3" d="M1151.57,377c0-9.83,6.42-17.4,16.44-17.4,8.54,0,13.81,4.94,15,12.07h-8.54a6,6,0,0,0-6-5.07c-5.26,0-8,4-8,10.4s2.5,10.4,7.83,10.4c3.54,0,6-1.86,6.62-5.58h8.41c-.58,7-6,12.59-14.83,12.59C1158.05,394.43,1151.57,386.85,1151.57,377Z"/><path class="cls-3" d="M1187.46,397.38h3.09c3.47,0,4.88-1.8,4.88-4.5,0-1.79-.64-3.91-2.51-8.92l-8.86-23.45h9.18l4.89,14.84c1,3,2.12,7.19,2.12,7.19h.12s.9-4.17,1.93-7.19l4.62-14.84h8.8l-11.49,33.79c-2.51,7.32-5,9.95-11.63,9.95h-5.14Z"/><path d="M101.51,1633.35h20.17c5.33,0,9.31,1.54,12,4.31a14.68,14.68,0,0,1,4.11,10.46c0,8.67-5.72,14.52-15.35,14.52h-11.3v16.63h-9.64Zm9.64,21.71h9.63c4.88,0,7.45-2.7,7.45-6.87s-2.7-6.74-7.32-6.74h-9.76Z"/><path d="M150.13,1651.59h.19c2-3.72,4.24-5.65,8.09-5.65a5.82,5.82,0,0,1,2.06.26v7.64h-.2c-5.71-.58-9.82,2.44-9.82,9.38v16h-8.74v-32.94h8.42Z"/><path d="M164.25,1633.35H173v7.84h-8.74Zm0,13H173v32.94h-8.74Z"/><path d="M188.34,1661.8l-10.73-15.47h9.95l5.85,9.44h.13l5.52-9.44h9.06l-10.22,15.41,11.76,17.53H199.25l-6.1-10.91H193l-7.13,10.91h-9.56Z"/><path d="M223.78,1646.33h8.41v4.43h.2a10.76,10.76,0,0,1,9.57-5.33,9.84,9.84,0,0,1,9.12,5.78h.13a11.47,11.47,0,0,1,9.89-5.78c6.93,0,10.85,4.49,10.85,11.69v22.15h-8.73v-20.68c0-3.72-1.87-5.65-5.08-5.65-3.66,0-5.91,2.83-5.91,7.19v19.14H243.5v-20.68c0-3.72-1.86-5.65-5.08-5.65-3.53,0-5.9,2.83-5.9,7.19v19.14h-8.74Z"/><path d="M275.73,1662.77c0-9.76,6.62-17.34,16.25-17.34,10.6,0,16.25,8.09,16.25,19.84H284.34c.64,5.08,3.47,8.22,8.41,8.22,3.41,0,5.4-1.54,6.36-4h8.61c-1.22,5.84-6.43,10.79-14.9,10.79C281.9,1680.24,275.73,1672.59,275.73,1662.77Zm8.74-3.53h14.64c-.26-4.18-3-7.07-7-7.07C287.49,1652.17,285.24,1654.93,284.47,1659.24Z"/><path d="M320.81,1650.82h.2a10.7,10.7,0,0,1,9.76-5.39c6.81,0,11.37,5.14,11.37,12.33v21.51H333.4V1659c0-3.53-2-6-5.71-6-3.86,0-6.68,3.08-6.68,7.57v18.69h-8.74v-32.94h8.54Z"/><path d="M345.47,1668.61h8.09c.58,3.79,3.28,5.46,7.2,5.46s6-1.48,6-3.79c0-3.14-4.18-3.47-8.67-4.37-5.91-1.15-11.69-2.76-11.69-10s5.9-10.53,13.42-10.53c8.67,0,13.49,4.3,14.13,10.92h-7.9c-.39-3.54-2.63-4.82-6.36-4.82-3.4,0-5.65,1.28-5.65,3.66,0,2.83,4.37,3.08,9.05,4,5.53,1.15,11.63,2.69,11.63,10.4,0,6.61-5.65,10.6-13.87,10.6C351.32,1680.24,346,1675.61,345.47,1668.61Z"/><path d="M399.48,1679.27v-3.85h-.19a10.57,10.57,0,0,1-9.44,4.75c-7.32,0-11.43-4.69-11.43-11.88v-22h8.67v20.48c0,3.86,1.73,6,5.46,6,4.11,0,6.61-3.09,6.61-7.45v-19h8.74v32.94Z"/><path d="M411.94,1662.77c0-9.76,6.61-17.34,16.25-17.34,10.59,0,16.25,8.09,16.25,19.84h-23.9c.65,5.08,3.47,8.22,8.42,8.22,3.4,0,5.39-1.54,6.35-4h8.61c-1.22,5.84-6.42,10.79-14.9,10.79C418.1,1680.24,411.94,1672.59,411.94,1662.77Zm8.73-3.53h14.64c-.25-4.18-3-7.07-7-7.07C423.69,1652.17,421.44,1654.93,420.67,1659.24Z"/><path d="M448.61,1633.35h8.73v45.92h-8.73Z"/><path d="M472.24,1633.35h36.93v7.84H495.36v38.08h-9.31v-38.08H472.24Z"/><path d="M512.44,1633.35h36.93v7.84H535.56v38.08h-9.31v-38.08H512.44Z"/><path d="M549.81,1656.47c0-13.61,8.48-24,22-24,11.3,0,18,6.75,18.95,15.48h-9.25c-.84-4.62-4.3-7.64-9.7-7.64-8.48,0-12.52,7.06-12.52,16.18,0,9.38,4.88,16.12,12.59,16.12,5.45,0,9.31-3.27,9.89-8.09h9.12a16.3,16.3,0,0,1-5.08,10.86c-3.15,3-7.58,4.88-13.93,4.88C559,1680.24,549.81,1670.28,549.81,1656.47Z"/><path d="M207.92,1283.63H229c8.86,0,14.77,5.14,14.77,12.78,0,5.4-2.51,9.51-8.42,11.12v.19c4.24,1.22,6.43,3.66,7,9.25.65,6.48.39,11.43,2,12.13v.45h-8.93c-1.16-.51-1.29-5.65-1.67-10.59s-3.21-7.84-9-7.84h-7.52v18.43h-9.31Zm9.31,20.3h9.89c5.08,0,7.58-2.63,7.58-6.29s-2.37-6.49-7.32-6.49H217.23Z"/><path d="M247.09,1313.05c0-9.76,6.62-17.34,16.25-17.34,10.6,0,16.25,8.09,16.25,19.84H255.7c.64,5.08,3.47,8.22,8.41,8.22,3.41,0,5.4-1.54,6.36-4h8.61c-1.22,5.84-6.43,10.79-14.9,10.79C253.26,1330.52,247.09,1322.88,247.09,1313.05Zm8.74-3.53h14.64c-.26-4.18-3-7.07-7-7.07C258.85,1302.45,256.6,1305.21,255.83,1309.52Zm10.85-17h-6.81l3.54-9.06h10.21Z"/><path d="M303.35,1325.89h-.13c-1.67,2.51-4.05,4.43-9.7,4.43-6.74,0-11.49-3.53-11.49-10.08,0-7.26,5.91-9.57,13.23-10.6,5.46-.77,8-1.22,8-3.72s-1.86-3.92-5.52-3.92c-4.11,0-6.1,1.48-6.36,4.63h-7.77c.26-5.78,4.56-10.86,14.19-10.86,9.89,0,13.87,4.43,13.87,12.14v16.76c0,2.51.39,4,1.16,4.56v.32h-8.41A8.77,8.77,0,0,1,303.35,1325.89Zm.06-8v-5a24.05,24.05,0,0,1-6.1,1.93c-4.56,1-6.81,2.06-6.81,5.14s2.06,4.17,5.14,4.17C300.65,1324.22,303.41,1321.14,303.41,1317.93Z"/><path d="M315.55,1313.11c0-9.82,6.42-17.4,16.44-17.4,8.54,0,13.81,4.94,15,12.07h-8.54a6,6,0,0,0-6-5.07c-5.26,0-8,4-8,10.4s2.51,10.41,7.84,10.41c3.53,0,6-1.86,6.61-5.59h8.41c-.57,7-6,12.59-14.83,12.59C322,1330.52,315.55,1322.94,315.55,1313.11Z"/><path d="M349.13,1296.61h4.56v-10.28h8.55v10.28h5.65v5.78h-5.65v17.47c0,2.44,1.34,3.27,3.27,3.27,1.09,0,2.57-.06,2.57-.06v6.42s-2,.13-5.46.13c-4.24,0-8.93-1.67-8.93-7.9v-19.33h-4.56Z"/><path d="M372.38,1283.63h8.73v7.84h-8.73Zm0,13h8.73v32.94h-8.73Z"/><path d="M384.07,1296.61h8.86l5.27,17.08c1,3.15,1.47,5.27,1.47,5.27h.13s.45-2.12,1.41-5.27l5.4-17.08h8.73l-11.49,32.94H395.5Z"/><path d="M418.29,1283.63H427v7.84h-8.74Zm0,13H427v32.94h-8.74Z"/><path d="M430.75,1296.61h4.56v-10.28h8.55v10.28h5.65v5.78h-5.65v17.47c0,2.44,1.34,3.27,3.27,3.27,1.09,0,2.57-.06,2.57-.06v6.42s-2,.13-5.46.13c-4.24,0-8.93-1.67-8.93-7.9v-19.33h-4.56Z"/><path d="M452.07,1313.05c0-9.76,6.62-17.34,16.25-17.34,10.6,0,16.25,8.09,16.25,19.84H460.68c.64,5.08,3.47,8.22,8.41,8.22,3.41,0,5.4-1.54,6.36-4h8.61c-1.22,5.84-6.43,10.79-14.9,10.79C458.24,1330.52,452.07,1322.88,452.07,1313.05Zm8.74-3.53h14.64c-.26-4.18-3-7.07-7-7.07C463.83,1302.45,461.58,1305.21,460.81,1309.52Zm10.85-17h-6.81l3.54-9.06H478.6Z"/><path d="M196.33,927.26h17.92c12.26,0,20.16,9.89,20.16,23.44,0,7.46-2.5,14-7.32,18-3.4,2.83-7.83,4.43-13.61,4.43H196.33Zm16.5,37.9c8.74,0,12.14-5.34,12.14-14.46s-4-15.47-11.88-15.47h-7.45v29.93Z"/><path d="M237.17,956.74c0-9.82,7-17.4,17.21-17.4s17.22,7.58,17.22,17.4-7,17.41-17.22,17.41S237.17,966.57,237.17,956.74Zm25.56,0c0-6.42-3-10.79-8.35-10.79S246,950.32,246,956.74s3,10.73,8.35,10.73S262.73,963.16,262.73,956.74Z"/><path d="M275.64,940.24h8.41v4.43h.19a10.76,10.76,0,0,1,9.57-5.33,9.82,9.82,0,0,1,9.12,5.78h.13a11.49,11.49,0,0,1,9.89-5.78c6.94,0,10.86,4.49,10.86,11.69v22.15h-8.74V952.5c0-3.72-1.86-5.65-5.07-5.65-3.66,0-5.91,2.83-5.91,7.19v19.14h-8.74V952.5c0-3.72-1.86-5.65-5.07-5.65-3.53,0-5.91,2.83-5.91,7.19v19.14h-8.73Z"/><path d="M348.91,969.52h-.13c-1.67,2.51-4,4.43-9.69,4.43-6.75,0-11.5-3.53-11.5-10.08,0-7.26,5.91-9.57,13.23-10.6,5.46-.77,8-1.22,8-3.72s-1.86-3.92-5.52-3.92c-4.11,0-6.1,1.48-6.36,4.63h-7.77c.26-5.78,4.56-10.86,14.19-10.86,9.89,0,13.88,4.43,13.88,12.14V968.3c0,2.51.38,4,1.15,4.56v.32h-8.41A8.77,8.77,0,0,1,348.91,969.52Zm.07-8v-4.95a24.26,24.26,0,0,1-6.11,1.93c-4.56,1-6.8,2.06-6.8,5.14s2.05,4.17,5.13,4.17C346.21,967.85,349,964.77,349,961.56Z"/><path d="M362.72,927.26h8.73v7.84h-8.73Zm0,13h8.73v32.94h-8.73Z"/><path d="M385.64,944.73h.2a10.69,10.69,0,0,1,9.76-5.39c6.8,0,11.36,5.14,11.36,12.33v21.51h-8.73V953c0-3.53-2.06-6-5.72-6-3.85,0-6.67,3.08-6.67,7.57v18.69H377.1V940.24h8.54Z"/><path d="M410.75,956.68c0-9.76,6.62-17.34,16.25-17.34,10.6,0,16.25,8.09,16.25,19.84H419.36c.64,5.08,3.46,8.22,8.41,8.22,3.4,0,5.39-1.54,6.36-4h8.6c-1.22,5.84-6.42,10.79-14.9,10.79C416.92,974.15,410.75,966.5,410.75,956.68Zm8.73-3.53h14.65c-.26-4.18-3-7.07-7-7.07C422.5,946.08,420.25,948.84,419.48,953.15Z"/><path d="M456.47,961.37c0-6.55,4.18-10.67,10.15-13.68-2.63-3.21-3.85-5.78-3.85-9.51,0-6,4.75-10.6,11.88-10.6,6.93,0,12,4.24,12,10.54,0,5.65-3.28,8.47-8.22,11l6.1,7.9a29.39,29.39,0,0,0,1.8-7.45h7.77a32,32,0,0,1-4.37,14.2l7.26,9.37H486.34l-2.38-3a20.37,20.37,0,0,1-12.2,4C461.67,974.15,456.47,968.56,456.47,961.37Zm22.93,2.89-8.41-11c-3.92,2.38-5.27,5-5.27,7.84,0,3.47,2.76,5.84,6.36,5.84A11.2,11.2,0,0,0,479.4,964.26Zm-4.88-20c3-1.8,3.85-3.79,3.85-6a3.6,3.6,0,1,0-7.19.06C471.18,940.37,472.59,942.36,474.52,944.22Z"/><path d="M153.08,1016.05c0-9.83,6.42-17.41,16.44-17.41,8.54,0,13.81,5,15,12.08h-8.54a6,6,0,0,0-6-5.08c-5.27,0-8,4.05-8,10.41s2.51,10.4,7.84,10.4c3.53,0,6-1.86,6.61-5.58h8.41c-.57,7-6,12.58-14.83,12.58C159.56,1033.45,153.08,1025.87,153.08,1016.05Z"/><path d="M187,1016.05c0-9.83,7-17.41,17.21-17.41s17.21,7.58,17.21,17.41-7,17.4-17.21,17.4S187,1025.87,187,1016.05Zm25.56,0c0-6.42-3-10.79-8.35-10.79s-8.35,4.37-8.35,10.79,3,10.72,8.35,10.72S212.55,1022.47,212.55,1016.05Z"/><path d="M225.45,999.54h8.41V1004h.2a10.78,10.78,0,0,1,9.57-5.33,9.85,9.85,0,0,1,9.12,5.78h.13a11.49,11.49,0,0,1,9.89-5.78c6.93,0,10.85,4.5,10.85,11.69v22.16h-8.74v-20.68c0-3.73-1.86-5.65-5.07-5.65-3.66,0-5.91,2.82-5.91,7.19v19.14h-8.73v-20.68c0-3.73-1.86-5.65-5.08-5.65-3.53,0-5.9,2.82-5.9,7.19v19.14h-8.74Z"/><path d="M279,999.54h8.41v4.11h.19a11.53,11.53,0,0,1,9.7-5c8.74,0,14.32,7.13,14.32,17.41,0,10.66-5.78,17.4-14.25,17.4-4.63,0-7.65-1.86-9.51-4.69h-.13v14.52H279Zm23.76,16.76c0-6.22-2.18-10.59-7.58-10.59s-7.64,4.69-7.64,10.59,2.76,9.9,8,9.9C300,1026.2,302.77,1022.53,302.77,1016.3Z"/><path d="M314.07,1016c0-9.76,6.62-17.34,16.25-17.34,10.6,0,16.25,8.1,16.25,19.85H322.68c.64,5.07,3.47,8.22,8.41,8.22,3.4,0,5.4-1.54,6.36-4.05h8.6c-1.21,5.85-6.42,10.79-14.89,10.79C320.24,1033.45,314.07,1025.81,314.07,1016Zm8.74-3.53h14.64c-.26-4.17-3-7.06-7-7.06C325.82,1005.39,323.58,1008.15,322.81,1012.45Zm10.85-17h-6.81l3.53-9H340.6Z"/><path d="M348,999.54h4.56V989.27h8.54v10.27h5.66v5.78h-5.66v17.47c0,2.44,1.35,3.28,3.28,3.28,1.09,0,2.57-.07,2.57-.07v6.43s-2,.12-5.46.12c-4.24,0-8.93-1.67-8.93-7.9v-19.33H348Z"/><path d="M369.36,1016c0-9.76,6.62-17.34,16.25-17.34,10.6,0,16.25,8.1,16.25,19.85H378c.64,5.07,3.47,8.22,8.41,8.22,3.41,0,5.4-1.54,6.36-4.05h8.61c-1.22,5.85-6.43,10.79-14.9,10.79C375.53,1033.45,369.36,1025.81,369.36,1016Zm8.74-3.53h14.64c-.26-4.17-3-7.06-7-7.06C381.12,1005.39,378.87,1008.15,378.1,1012.45Z"/><path d="M414.44,1004h.2a10.7,10.7,0,0,1,9.76-5.4c6.81,0,11.37,5.14,11.37,12.33v21.52H427v-20.23c0-3.53-2-6-5.71-6-3.86,0-6.68,3.08-6.68,7.58v18.69H405.9v-33h8.54Z"/><path d="M439.55,1016.05c0-9.83,6.42-17.41,16.44-17.41,8.54,0,13.81,5,15,12.08h-8.54a6,6,0,0,0-6-5.08c-5.27,0-8,4.05-8,10.41s2.51,10.4,7.84,10.4c3.53,0,6-1.86,6.62-5.58h8.41c-.58,7-6,12.58-14.84,12.58C446,1033.45,439.55,1025.87,439.55,1016.05Z"/><path d="M473.46,1016c0-9.76,6.61-17.34,16.25-17.34,10.59,0,16.25,8.1,16.25,19.85h-23.9c.65,5.07,3.47,8.22,8.42,8.22,3.4,0,5.39-1.54,6.36-4.05h8.6c-1.22,5.85-6.42,10.79-14.9,10.79C479.62,1033.45,473.46,1025.81,473.46,1016Zm8.73-3.53h14.65c-.26-4.17-3-7.06-7-7.06C485.21,1005.39,483,1008.15,482.19,1012.45Z"/><path d="M507.94,1021.83H516c.57,3.79,3.27,5.46,7.19,5.46s6-1.48,6-3.79c0-3.15-4.18-3.47-8.68-4.37-5.9-1.16-11.68-2.76-11.68-10s5.9-10.54,13.42-10.54c8.67,0,13.49,4.31,14.13,10.92h-7.9c-.39-3.53-2.63-4.82-6.36-4.82-3.4,0-5.65,1.29-5.65,3.67,0,2.82,4.37,3.08,9.05,4,5.53,1.16,11.63,2.7,11.63,10.41,0,6.61-5.65,10.59-13.87,10.59C513.79,1033.45,508.46,1028.83,507.94,1021.83Z"/><path d="M82.81,612.19H103c5.33,0,9.31,1.54,12,4.3A14.69,14.69,0,0,1,119.1,627c0,8.67-5.72,14.51-15.35,14.51H92.44v16.64H82.81Zm9.63,21.7h9.64c4.88,0,7.45-2.69,7.45-6.87s-2.7-6.74-7.32-6.74H92.44Z"/><path d="M141.44,654.45h-.12c-1.67,2.5-4,4.43-9.7,4.43-6.75,0-11.5-3.53-11.5-10.09,0-7.25,5.91-9.57,13.23-10.59,5.46-.77,8-1.22,8-3.73s-1.87-3.92-5.53-3.92c-4.11,0-6.1,1.48-6.36,4.63h-7.77c.26-5.78,4.56-10.86,14.2-10.86,9.89,0,13.87,4.44,13.87,12.14v16.77c0,2.5.38,4,1.15,4.56v.32h-8.41A9.18,9.18,0,0,1,141.44,654.45Zm.07-8v-4.94a24.19,24.19,0,0,1-6.1,1.92c-4.56,1-6.81,2.06-6.81,5.14s2.05,4.18,5.14,4.18C138.75,652.78,141.51,649.69,141.51,646.48Z"/><path d="M153.19,647.45h8.1c.57,3.78,3.27,5.45,7.19,5.45s6-1.47,6-3.78c0-3.15-4.18-3.47-8.68-4.37-5.9-1.16-11.68-2.76-11.68-10s5.9-10.53,13.42-10.53c8.67,0,13.49,4.3,14.13,10.92h-7.9c-.39-3.53-2.63-4.82-6.36-4.82-3.4,0-5.65,1.29-5.65,3.66,0,2.83,4.37,3.09,9,4.05,5.53,1.15,11.63,2.7,11.63,10.4,0,6.62-5.65,10.6-13.87,10.6C159,659.07,153.71,654.45,153.19,647.45Z"/><path d="M195.58,641.67c0-10.28,5.84-17.41,14.06-17.41a10.45,10.45,0,0,1,9.31,4.88h.2V612.19h8.73v45.92h-8.41V653.8h-.13a11,11,0,0,1-9.83,5.27C201.23,659.07,195.58,652.33,195.58,641.67Zm23.76.19c0-6.3-2.06-10.54-7.64-10.54-4.82,0-7.26,4.24-7.26,10.35,0,6.35,2.5,10.08,7,10.08C216.64,651.75,219.34,647.9,219.34,641.86Z"/><path d="M232.76,626.38a6.28,6.28,0,0,0,4.36-5.84h-4.23v-8.35h8.67v7.57c0,5.85-4.5,8.93-8.8,9.64Z"/><path d="M241,641.6c0-9.76,6.61-17.34,16.25-17.34,10.59,0,16.24,8.09,16.24,19.85H249.58c.64,5.07,3.47,8.22,8.42,8.22,3.4,0,5.39-1.55,6.35-4.05H273c-1.22,5.84-6.42,10.79-14.9,10.79C247.14,659.07,241,651.43,241,641.6Zm8.73-3.53h14.64c-.25-4.18-3-7.07-7-7.07C252.73,631,250.48,633.77,249.71,638.07Z"/><path d="M286.06,629.66h.19a10.7,10.7,0,0,1,9.76-5.4c6.81,0,11.37,5.14,11.37,12.33v21.52h-8.73V637.88c0-3.54-2.06-6-5.72-6-3.85,0-6.68,3.08-6.68,7.58v18.69h-8.73v-33h8.54Z"/><path d="M311.87,659.07h8.67c.71,2.06,2.57,3.66,6.62,3.66,4.94,0,7.32-2.38,7.32-6.87v-3.6h-.19a10.65,10.65,0,0,1-8.61,3.86c-7.32,0-14.51-5.78-14.51-15.74s5.9-16.12,14.25-16.12a10.62,10.62,0,0,1,9.12,4.37h.13v-3.47h8.42V655.6c0,4.63-1.48,7.77-3.92,10-2.76,2.57-7,3.73-11.88,3.73C318.29,669.35,312.77,665.49,311.87,659.07Zm23.06-18.88c0-4.82-2.57-8.93-7.84-8.93-4.43,0-7.38,3.47-7.38,9s3,8.87,7.45,8.87C332.68,649.12,334.93,645.07,334.93,640.19Z"/><path d="M368.45,654.45h-.13c-1.67,2.5-4,4.43-9.7,4.43-6.74,0-11.49-3.53-11.49-10.09,0-7.25,5.91-9.57,13.23-10.59,5.46-.77,8-1.22,8-3.73s-1.86-3.92-5.52-3.92c-4.11,0-6.1,1.48-6.36,4.63h-7.77c.26-5.78,4.56-10.86,14.19-10.86,9.89,0,13.87,4.44,13.87,12.14v16.77c0,2.5.39,4,1.16,4.56v.32h-8.41A8.86,8.86,0,0,1,368.45,654.45Zm.06-8v-4.94a24.06,24.06,0,0,1-6.1,1.92c-4.56,1-6.81,2.06-6.81,5.14s2.06,4.18,5.14,4.18C365.75,652.78,368.51,649.69,368.51,646.48Z"/><path d="M381.35,659.07H390c.71,2.06,2.57,3.66,6.62,3.66,4.95,0,7.32-2.38,7.32-6.87v-3.6h-.19a10.64,10.64,0,0,1-8.61,3.86c-7.32,0-14.51-5.78-14.51-15.74s5.91-16.12,14.26-16.12a10.62,10.62,0,0,1,9.12,4.37h.12v-3.47h8.42V655.6c0,4.63-1.48,7.77-3.92,10-2.76,2.57-7,3.73-11.88,3.73C387.78,669.35,382.25,665.49,381.35,659.07Zm23.06-18.88c0-4.82-2.57-8.93-7.83-8.93-4.44,0-7.39,3.47-7.39,9s2.95,8.87,7.45,8.87C402.16,649.12,404.41,645.07,404.41,640.19Z"/><path d="M416.61,641.6c0-9.76,6.62-17.34,16.25-17.34,10.6,0,16.25,8.09,16.25,19.85H425.22c.64,5.07,3.46,8.22,8.41,8.22,3.4,0,5.39-1.55,6.36-4.05h8.6c-1.22,5.84-6.42,10.79-14.9,10.79C422.78,659.07,416.61,651.43,416.61,641.6Zm8.73-3.53H440c-.26-4.18-3-7.07-7-7.07C428.36,631,426.12,633.77,425.34,638.07Z"/><path d="M453.15,625.16h8.41v4.43h.2a10.74,10.74,0,0,1,9.57-5.33,9.81,9.81,0,0,1,9.11,5.78h.13a11.49,11.49,0,0,1,9.89-5.78c6.94,0,10.86,4.5,10.86,11.69v22.16h-8.74V637.43c0-3.73-1.86-5.66-5.07-5.66-3.66,0-5.91,2.83-5.91,7.2v19.14h-8.73V637.43c0-3.73-1.87-5.66-5.08-5.66-3.53,0-5.91,2.83-5.91,7.2v19.14h-8.73Z"/><path d="M505.1,641.6c0-9.76,6.62-17.34,16.25-17.34,10.6,0,16.25,8.09,16.25,19.85H513.71c.64,5.07,3.47,8.22,8.41,8.22,3.4,0,5.4-1.55,6.36-4.05h8.61c-1.23,5.84-6.43,10.79-14.9,10.79C511.27,659.07,505.1,651.43,505.1,641.6Zm8.74-3.53h14.64c-.26-4.18-3-7.07-7-7.07C516.85,631,514.61,633.77,513.84,638.07Z"/><path d="M550.18,629.66h.2a10.68,10.68,0,0,1,9.76-5.4c6.81,0,11.36,5.14,11.36,12.33v21.52h-8.73V637.88c0-3.54-2-6-5.72-6-3.85,0-6.67,3.08-6.67,7.58v18.69h-8.74v-33h8.54Z"/><path d="M574.33,625.16h4.56V614.88h8.54v10.28h5.65v5.78h-5.65v17.47c0,2.44,1.35,3.27,3.28,3.27,1.09,0,2.56-.06,2.56-.06V658s-2,.13-5.46.13c-4.23,0-8.92-1.67-8.92-7.9V630.94h-4.56Z"/><path class="cls-4" d="M1615.9,347.54h32.88v7.9h-23.57v11.05h20v8h-20v19h-9.31Z"/><path class="cls-4" d="M1659.82,365.78h.19c2-3.72,4.24-5.65,8.1-5.65a5.5,5.5,0,0,1,2.05.26V368H1670c-5.72-.58-9.83,2.44-9.83,9.38v16h-8.73V360.51h8.41Z"/><path class="cls-4" d="M1671.38,377c0-9.77,6.61-17.34,16.25-17.34,10.6,0,16.25,8.09,16.25,19.84H1680c.64,5.07,3.46,8.22,8.41,8.22,3.4,0,5.39-1.54,6.36-4h8.6c-1.22,5.84-6.42,10.79-14.9,10.79C1677.54,394.43,1671.38,386.78,1671.38,377Zm8.73-3.54h14.65c-.26-4.17-3-7.06-7-7.06C1683.13,366.36,1680.88,369.12,1680.11,373.42Z"/><path class="cls-4" d="M1706.31,377c0-9.77,6.62-17.34,16.25-17.34,10.6,0,16.25,8.09,16.25,19.84h-23.89c.64,5.07,3.47,8.22,8.41,8.22,3.41,0,5.4-1.54,6.36-4h8.61c-1.22,5.84-6.42,10.79-14.9,10.79C1712.48,394.43,1706.31,386.78,1706.31,377Zm8.74-3.54h14.64c-.26-4.17-3-7.06-7-7.06C1718.07,366.36,1715.82,369.12,1715.05,373.42Z"/><path class="cls-4" d="M1743,347.54h8.74v45.92H1743Z"/><path class="cls-4" d="M1777.21,389.8h-.13c-1.67,2.51-4,4.43-9.7,4.43-6.74,0-11.49-3.53-11.49-10.08,0-7.26,5.91-9.57,13.23-10.6,5.46-.77,8-1.22,8-3.72s-1.86-3.92-5.52-3.92c-4.11,0-6.1,1.48-6.36,4.62h-7.77c.26-5.78,4.56-10.85,14.19-10.85,9.89,0,13.88,4.43,13.88,12.14v16.76c0,2.51.38,4,1.15,4.56v.32h-8.41A8.92,8.92,0,0,1,1777.21,389.8Zm.07-8v-4.95a24.68,24.68,0,0,1-6.11,1.93c-4.56,1-6.8,2.05-6.8,5.14s2.05,4.17,5.13,4.17C1774.51,388.13,1777.28,385.05,1777.28,381.84Z"/><path class="cls-4" d="M1799.56,365h.19a10.71,10.71,0,0,1,9.76-5.39c6.81,0,11.37,5.13,11.37,12.33v21.51h-8.73V373.23c0-3.53-2.06-6-5.72-6-3.85,0-6.68,3.09-6.68,7.58v18.69H1791V360.51h8.54Z"/><path class="cls-4" d="M1824.67,377c0-9.83,6.42-17.4,16.44-17.4,8.54,0,13.8,4.94,15,12.07h-8.54a6,6,0,0,0-6-5.07c-5.26,0-8,4-8,10.4s2.5,10.4,7.83,10.4c3.54,0,6-1.86,6.62-5.58h8.41c-.58,7-6,12.59-14.83,12.59C1831.15,394.43,1824.67,386.85,1824.67,377Z"/><path class="cls-4" d="M1858.57,377c0-9.77,6.62-17.34,16.25-17.34,10.6,0,16.25,8.09,16.25,19.84h-23.89c.64,5.07,3.47,8.22,8.41,8.22,3.41,0,5.4-1.54,6.36-4h8.61c-1.22,5.84-6.43,10.79-14.9,10.79C1864.74,394.43,1858.57,386.78,1858.57,377Zm8.74-3.54H1882c-.26-4.17-3-7.06-7-7.06C1870.32,366.36,1868.08,369.12,1867.31,373.42Z"/><path class="cls-4" d="M2337.49,345h33.79v7.84h-24.47V363.1h21.45v7.64h-21.45v12.39h24.66v7.77h-34Z"/><path class="cls-4" d="M2376.54,358H2385v4.43h.19a10.76,10.76,0,0,1,9.57-5.33,9.82,9.82,0,0,1,9.12,5.78h.13a11.49,11.49,0,0,1,9.89-5.78c6.94,0,10.86,4.49,10.86,11.69V390.9H2416V370.22c0-3.72-1.86-5.65-5.07-5.65-3.66,0-5.91,2.83-5.91,7.2V390.9h-8.74V370.22c0-3.72-1.86-5.65-5.07-5.65-3.53,0-5.91,2.83-5.91,7.2V390.9h-8.73Z"/><path class="cls-4" d="M2430.09,358h8.42v4.11h.19a11.51,11.51,0,0,1,9.7-5c8.73,0,14.32,7.13,14.32,17.4,0,10.66-5.78,17.41-14.26,17.41-4.62,0-7.64-1.86-9.5-4.69h-.13v14.51h-8.74Zm23.77,16.76c0-6.23-2.19-10.6-7.58-10.6s-7.64,4.69-7.64,10.6,2.76,9.89,8,9.89C2451,384.61,2453.86,381,2453.86,374.72Z"/><path class="cls-4" d="M2466.89,345h8.74V390.9h-8.74Z"/><path class="cls-4" d="M2479.8,374.46c0-9.82,7-17.4,17.21-17.4s17.21,7.58,17.21,17.4-7,17.41-17.21,17.41S2479.8,384.29,2479.8,374.46Zm25.56,0c0-6.42-3-10.79-8.35-10.79s-8.35,4.37-8.35,10.79,3,10.73,8.35,10.73S2505.36,380.89,2505.36,374.46Z"/><path class="cls-4" d="M2518,394.82h3.08c3.47,0,4.88-1.8,4.88-4.49,0-1.8-.64-3.92-2.5-8.93L2514.6,358h9.19l4.88,14.83c1,3,2.12,7.2,2.12,7.2h.13s.9-4.18,1.92-7.2l4.63-14.83h8.8l-11.5,33.78c-2.5,7.32-4.94,9.95-11.62,9.95H2518Z"/><path class="cls-4" d="M2546.65,374.4c0-9.76,6.61-17.34,16.25-17.34,10.59,0,16.25,8.09,16.25,19.84h-23.9c.65,5.08,3.47,8.22,8.42,8.22,3.4,0,5.39-1.54,6.36-4h8.6c-1.22,5.84-6.42,10.79-14.9,10.79C2552.81,391.87,2546.65,384.23,2546.65,374.4Zm8.73-3.53H2570c-.26-4.18-3-7.07-7-7.07C2558.4,363.8,2556.15,366.56,2555.38,370.87Zm10.86-17h-6.81l3.53-9.06h10.21Z"/><path class="cls-4" d="M1752.28,895a78.19,78.19,0,1,0,78.19,78.18A78.28,78.28,0,0,0,1752.28,895Zm0,146.37a68.19,68.19,0,1,1,68.19-68.19A68.27,68.27,0,0,1,1752.28,1041.37Z"/><path class="cls-4" d="M1759.35,973.19l28.73,28.72a5,5,0,0,1,0,7.07h0a5,5,0,0,1-7.07,0l-28.73-28.73L1723.54,1009a5,5,0,0,1-7.07,0h0a5,5,0,0,1,0-7.07l28.74-28.72-28.74-28.74a5,5,0,0,1,0-7.07h0a5,5,0,0,1,7.07,0l28.74,28.74L1781,937.38a5,5,0,0,1,7.07,0h0a5,5,0,0,1,0,7.07Z"/><path class="cls-4" d="M2454.87,550.82A78.19,78.19,0,1,0,2533.06,629,78.28,78.28,0,0,0,2454.87,550.82Zm0,146.37A68.19,68.19,0,1,1,2523.06,629,68.27,68.27,0,0,1,2454.87,697.19Z"/><path class="cls-4" d="M2461.94,629l28.74,28.73a5,5,0,0,1,0,7.07h0a5,5,0,0,1-7.07,0l-28.74-28.74-28.73,28.74a5,5,0,0,1-7.07,0h0a5,5,0,0,1,0-7.07L2447.8,629l-28.73-28.73a5,5,0,0,1,0-7.07h0a5,5,0,0,1,7.07,0l28.73,28.73,28.74-28.73a5,5,0,0,1,7.07,0h0a5,5,0,0,1,0,7.07Z"/><path class="cls-4" d="M2454.87,895a78.19,78.19,0,1,0,78.19,78.19A78.27,78.27,0,0,0,2454.87,895Zm0,146.37a68.19,68.19,0,1,1,68.19-68.18A68.26,68.26,0,0,1,2454.87,1041.37Z"/><path class="cls-4" d="M2498.82,947.69l-61.59,61.6-7.07-7.07v0L2410.92,983a5,5,0,0,1,0-7.07h0a5,5,0,0,1,7.07,0l19.25,19.25,54.51-54.51a5,5,0,0,1,7.07,0h0A5,5,0,0,1,2498.82,947.69Z"/><path class="cls-4" d="M1752.27,553.2a78.19,78.19,0,1,0,78.19,78.19A78.27,78.27,0,0,0,1752.27,553.2Zm0,146.37a68.19,68.19,0,1,1,68.19-68.18A68.26,68.26,0,0,1,1752.27,699.57Z"/><path class="cls-4" d="M1796.23,605.89l-61.6,61.6-7.07-7.07v0l-19.24-19.25a5,5,0,0,1,0-7.07h0a5,5,0,0,1,7.07,0l19.24,19.25,54.51-54.51a5,5,0,0,1,7.08,0h0A5,5,0,0,1,1796.23,605.89Z"/><path class="cls-5" d="M1050.48,895a78.19,78.19,0,1,0,78.19,78.19A78.27,78.27,0,0,0,1050.48,895Zm0,146.37a68.19,68.19,0,1,1,68.19-68.18A68.26,68.26,0,0,1,1050.48,1041.37Z"/><path class="cls-5" d="M1094.44,947.69l-61.6,61.6-7.07-7.07v0L1006.54,983a5,5,0,0,1,0-7.07h0a5,5,0,0,1,7.07,0l19.24,19.25,54.51-54.51a5,5,0,0,1,7.08,0h0A5,5,0,0,1,1094.44,947.69Z"/><path class="cls-5" d="M1050.48,550.82A78.19,78.19,0,1,0,1128.67,629,78.27,78.27,0,0,0,1050.48,550.82Zm0,146.37A68.19,68.19,0,1,1,1118.67,629,68.26,68.26,0,0,1,1050.48,697.19Z"/><path class="cls-5" d="M1094.44,603.52l-61.6,61.59-7.07-7.07v0l-19.24-19.24a5,5,0,0,1,0-7.07h0a5,5,0,0,1,7.07,0L1032.85,651l54.51-54.51a5,5,0,0,1,7.08,0h0A5,5,0,0,1,1094.44,603.52Z"/><path class="cls-3" d="M976.22,738.82h-10V733c5.39-.19,10.21-2.18,11.11-7.83H985v44.31h-8.8Z"/><path class="cls-3" d="M1003.32,736.58h8.41V741h.2a10.76,10.76,0,0,1,9.57-5.33,9.84,9.84,0,0,1,9.12,5.78h.13a11.47,11.47,0,0,1,9.89-5.78c6.93,0,10.85,4.49,10.85,11.69v22.15h-8.74V748.84c0-3.72-1.86-5.65-5.07-5.65-3.66,0-5.91,2.83-5.91,7.2v19.13H1023V748.84c0-3.72-1.86-5.65-5.08-5.65-3.53,0-5.9,2.83-5.9,7.2v19.13h-8.74Z"/><path class="cls-3" d="M1055.27,753.08c0-9.82,7-17.4,17.22-17.4s17.21,7.58,17.21,17.4-7,17.41-17.21,17.41S1055.27,762.91,1055.27,753.08Zm25.57,0c0-6.42-3-10.79-8.35-10.79s-8.35,4.37-8.35,10.79,2.95,10.73,8.35,10.73S1080.84,759.51,1080.84,753.08Z"/><path class="cls-3" d="M1093.74,723.6h8.73v7.84h-8.73Zm0,13h8.73v32.94h-8.73Z"/><path class="cls-3" d="M1106.07,758.86h8.09c.58,3.79,3.28,5.46,7.19,5.46s6-1.47,6-3.79c0-3.14-4.17-3.47-8.67-4.36-5.91-1.16-11.69-2.77-11.69-10s5.91-10.53,13.43-10.53c8.67,0,13.48,4.3,14.12,10.92h-7.89c-.39-3.54-2.64-4.82-6.36-4.82-3.41,0-5.66,1.28-5.66,3.66,0,2.83,4.37,3.08,9.06,4,5.52,1.15,11.63,2.69,11.63,10.4,0,6.62-5.66,10.6-13.88,10.6C1111.91,770.49,1106.58,765.86,1106.07,758.86Z"/><path class="cls-3" d="M908.19,1068.88h32.75v6.94H928.69v33.77h-8.25v-33.77H908.19Z"/><path class="cls-3" d="M947.94,1085.05h.17c1.77-3.31,3.76-5,7.18-5a5.12,5.12,0,0,1,1.82.22V1087h-.17c-5.07-.51-8.72,2.16-8.72,8.32v14.23h-7.74v-29.21h7.46Z"/><path class="cls-3" d="M977.09,1106.35H977c-1.48,2.22-3.59,3.93-8.6,3.93-6,0-10.19-3.14-10.19-9,0-6.43,5.24-8.48,11.73-9.39,4.84-.68,7.06-1.08,7.06-3.3s-1.65-3.48-4.9-3.48c-3.64,0-5.41,1.31-5.63,4.1h-6.89c.22-5.12,4-9.62,12.58-9.62,8.77,0,12.3,3.93,12.3,10.76v14.86c0,2.22.34,3.53,1,4v.28H978A8,8,0,0,1,977.09,1106.35Zm.06-7.07v-4.38a21.52,21.52,0,0,1-5.41,1.71c-4,.91-6,1.82-6,4.55s1.82,3.71,4.55,3.71C974.7,1104.87,977.15,1102.13,977.15,1099.28Z"/><path class="cls-3" d="M996.91,1084.36h.17a9.49,9.49,0,0,1,8.66-4.78c6,0,10.07,4.56,10.07,10.93v19.08h-7.74v-17.94c0-3.13-1.82-5.35-5.07-5.35-3.41,0-5.92,2.73-5.92,6.72v16.57h-7.74v-29.21h7.57Z"/><path class="cls-3" d="M1018.77,1100.14H1026c.51,3.36,2.9,4.84,6.38,4.84s5.35-1.31,5.35-3.36c0-2.79-3.7-3.08-7.69-3.87-5.24-1-10.36-2.45-10.36-8.83s5.24-9.34,11.9-9.34c7.69,0,12,3.82,12.53,9.68h-7c-.34-3.13-2.33-4.27-5.63-4.27-3,0-5,1.14-5,3.25,0,2.5,3.88,2.73,8,3.58,4.9,1,10.31,2.4,10.31,9.23,0,5.87-5,9.4-12.3,9.4C1024,1110.45,1019.23,1106.35,1018.77,1100.14Z"/><path class="cls-3" d="M1045.25,1080.38h7.86l4.67,15.15c.85,2.79,1.31,4.67,1.31,4.67h.11s.4-1.88,1.26-4.67l4.78-15.15H1073l-10.19,29.21h-7.4Z"/><path class="cls-3" d="M1073.32,1095c0-8.66,5.87-15.38,14.41-15.38,9.4,0,14.41,7.18,14.41,17.6H1081c.57,4.5,3.08,7.29,7.46,7.29,3,0,4.79-1.37,5.64-3.59h7.63c-1.08,5.18-5.69,9.57-13.21,9.57C1078.79,1110.45,1073.32,1103.67,1073.32,1095Zm7.75-3.14h13c-.23-3.7-2.68-6.26-6.21-6.26C1083.74,1085.56,1081.75,1088,1081.07,1091.82Z"/><path class="cls-3" d="M1113.18,1085.05h.17c1.77-3.31,3.76-5,7.18-5a5.12,5.12,0,0,1,1.82.22V1087h-.17c-5.07-.51-8.71,2.16-8.71,8.32v14.23h-7.75v-29.21h7.46Z"/><path class="cls-3" d="M1123.89,1100.14h7.17c.51,3.36,2.91,4.84,6.38,4.84s5.35-1.31,5.35-3.36c0-2.79-3.7-3.08-7.69-3.87-5.23-1-10.36-2.45-10.36-8.83s5.24-9.34,11.9-9.34c7.69,0,12,3.82,12.53,9.68h-7c-.35-3.13-2.34-4.27-5.64-4.27-3,0-5,1.14-5,3.25,0,2.5,3.87,2.73,8,3.58,4.89,1,10.3,2.4,10.3,9.23,0,5.87-5,9.4-12.3,9.4C1129.07,1110.45,1124.34,1106.35,1123.89,1100.14Z"/><path class="cls-3" d="M1171.09,1106.35H1171c-1.48,2.22-3.59,3.93-8.6,3.93-6,0-10.2-3.14-10.2-9,0-6.43,5.24-8.48,11.74-9.39,4.84-.68,7.06-1.08,7.06-3.3s-1.65-3.48-4.9-3.48c-3.65,0-5.41,1.31-5.64,4.1h-6.89c.23-5.12,4-9.62,12.59-9.62,8.77,0,12.3,3.93,12.3,10.76v14.86c0,2.22.34,3.53,1,4v.28H1172A8,8,0,0,1,1171.09,1106.35Zm.06-7.07v-4.38a21.79,21.79,0,0,1-5.41,1.71c-4,.91-6,1.82-6,4.55s1.82,3.71,4.56,3.71C1168.7,1104.87,1171.15,1102.13,1171.15,1099.28Z"/><path class="cls-3" d="M1183.44,1068.88h7.75v40.71h-7.75Z"/><path class="cls-3" d="M913.8,1414.27h32.75v7H934.3V1455h-8.25v-33.77H913.8Z"/><path class="cls-3" d="M953.55,1430.44h.17c1.76-3.3,3.76-5,7.17-5a5.11,5.11,0,0,1,1.83.23v6.78h-.17c-5.07-.51-8.72,2.16-8.72,8.31V1455h-7.74v-29.22h7.46Z"/><path class="cls-3" d="M963.8,1440.35c0-8.65,5.86-15.37,14.4-15.37,9.4,0,14.41,7.17,14.41,17.59H971.43c.57,4.5,3.07,7.29,7.46,7.29,3,0,4.78-1.36,5.64-3.58h7.63c-1.09,5.18-5.7,9.56-13.22,9.56C969.26,1455.84,963.8,1449.07,963.8,1440.35Zm5.52-26.25h9.06l3.13,8h-6Zm2.22,23.12h13c-.23-3.7-2.68-6.26-6.21-6.26C974.22,1431,972.22,1433.41,971.54,1437.22Z"/><path class="cls-3" d="M994.37,1445.53h7.18c.51,3.36,2.9,4.85,6.38,4.85s5.35-1.31,5.35-3.36c0-2.79-3.7-3.08-7.69-3.88-5.24-1-10.36-2.45-10.36-8.82s5.24-9.34,11.9-9.34c7.69,0,12,3.81,12.53,9.68h-7c-.34-3.13-2.33-4.27-5.63-4.27-3,0-5,1.14-5,3.24,0,2.51,3.88,2.74,8,3.59,4.9,1,10.31,2.39,10.31,9.23,0,5.86-5,9.39-12.3,9.39C999.56,1455.84,994.83,1451.74,994.37,1445.53Z"/><path class="cls-3" d="M1040.84,1430.44h.17c1.76-3.3,3.76-5,7.17-5a5.11,5.11,0,0,1,1.83.23v6.78h-.17c-5.07-.51-8.72,2.16-8.72,8.31V1455h-7.74v-29.22h7.46Z"/><path class="cls-3" d="M1070,1451.74h-.11c-1.48,2.22-3.59,3.93-8.6,3.93-6,0-10.19-3.13-10.19-8.94,0-6.43,5.24-8.48,11.73-9.4,4.84-.68,7.06-1.08,7.06-3.3s-1.65-3.47-4.9-3.47c-3.64,0-5.41,1.31-5.64,4.1h-6.89c.23-5.13,4-9.63,12.59-9.63,8.77,0,12.3,3.93,12.3,10.77v14.86c0,2.22.34,3.53,1,4v.29h-7.46A8,8,0,0,1,1070,1451.74Zm.06-7.06v-4.38a21.66,21.66,0,0,1-5.41,1.7c-4,.92-6,1.83-6,4.56s1.83,3.7,4.56,3.7C1067.6,1450.26,1070.05,1447.53,1070.05,1444.68Z"/><path class="cls-3" d="M1082.23,1425.77h7.46v3.65h.17a10.23,10.23,0,0,1,8.6-4.44c7.75,0,12.7,6.32,12.7,15.43,0,9.45-5.12,15.43-12.64,15.43-4.1,0-6.78-1.65-8.43-4.15H1090v12.86h-7.75Zm21.07,14.87c0-5.53-1.93-9.4-6.72-9.4s-6.77,4.16-6.77,9.4,2.45,8.77,7.06,8.77C1100.8,1449.41,1103.3,1446.16,1103.3,1440.64Z"/><path class="cls-3" d="M1114.75,1414.27h7.74v7h-7.74Zm0,11.5h7.74V1455h-7.74Z"/><path class="cls-3" d="M1126.08,1440.41c0-9.11,5.18-15.43,12.47-15.43a9.27,9.27,0,0,1,8.26,4.33h.17v-15h7.74V1455h-7.46v-3.82h-.11a9.72,9.72,0,0,1-8.72,4.67C1131.09,1455.84,1126.08,1449.86,1126.08,1440.41Zm21.07.17c0-5.58-1.82-9.34-6.78-9.34-4.27,0-6.43,3.76-6.43,9.17,0,5.64,2.22,8.94,6.2,8.94C1144.76,1449.35,1147.15,1445.93,1147.15,1440.58Z"/><path class="cls-3" d="M1158.31,1440.35c0-8.65,5.86-15.37,14.4-15.37,9.4,0,14.41,7.17,14.41,17.59h-21.18c.57,4.5,3.07,7.29,7.46,7.29,3,0,4.78-1.36,5.63-3.58h7.64c-1.09,5.18-5.7,9.56-13.22,9.56C1163.77,1455.84,1158.31,1449.07,1158.31,1440.35Zm7.74-3.13h13c-.22-3.7-2.67-6.26-6.2-6.26C1168.73,1431,1166.73,1433.41,1166.05,1437.22Z"/><path class="cls-4" d="M2263.75,1740c-.49,4-3.2,6.92-8.06,6.92-5.57,0-8.73-4.52-8.73-10.12s3.16-10,8.73-10c4.25,0,7.19,2.22,7.9,6.1h-1.12c-.8-3.58-3.47-5.08-6.78-5.08-4.59,0-7.6,3.61-7.6,9s3,9.1,7.6,9.1c4,0,6.48-2.29,7-5.9Z"/><path class="cls-4" d="M2267.66,1730.6h.07a7.64,7.64,0,0,1,7-3.8c3.88,0,6.1,2.37,6.1,5.83v13.92h-1.17v-13.81c0-3.31-2-4.93-5.12-4.93-3.95,0-6.88,2.75-6.88,5.69v13h-1.13v-26.9h1.13Z"/><path class="cls-4" d="M2297.23,1744.11v-1.32h-.08c-.94,2.18-3.5,4.14-7.37,4.14-3.69,0-6.21-2-6.21-5.27,0-4.25,3.46-5.23,7.53-5.72,4.77-.52,6.13-.94,6.13-3v-.3c0-3.2-1.81-4.85-5.42-4.85-3.8,0-5.94,1.54-6.21,4.93h-1.16c.26-3.47,2.4-6,7.37-6,4.33,0,6.55,2.07,6.55,5.91V1744c0,1.43.56,1.85,1.43,1.85a2.54,2.54,0,0,0,1-.27h.12v.91a2.94,2.94,0,0,1-1.36.3C2297.87,1746.78,2297.23,1745.69,2297.23,1744.11Zm0-4.52v-4.36c-.94.75-2.48,1.24-5.91,1.65-4.06.49-6.62,1.28-6.62,4.82,0,3.12,2.63,4.25,5.15,4.25C2294.22,1746,2297.23,1743.2,2297.23,1739.59Z"/><path class="cls-4" d="M2311.52,1728.15a7,7,0,0,0-2.14.08,6.31,6.31,0,0,0-5.15,6.13v12.19h-1.13V1727.1h1.13v4h.07a6.29,6.29,0,0,1,4.7-3.72,5.92,5.92,0,0,1,2.52-.27Z"/><path class="cls-4" d="M2327.52,1727.1h1.12v18.74a7.14,7.14,0,0,1-2.18,5.45,8.25,8.25,0,0,1-5.83,1.92c-4.7,0-7.34-1.92-7.71-4.74h1.16c.49,2.49,2.83,3.76,6.51,3.76,4.78,0,6.93-2.7,6.93-6.39v-4.44h-.08a7.24,7.24,0,0,1-7.15,5c-5,0-8.28-3.91-8.28-9.78,0-6.51,3.88-9.82,8.28-9.82a7.25,7.25,0,0,1,7.15,5.19h.08Zm.07,9.59c0-5.3-2.75-8.91-7.19-8.91-4.1,0-7.26,3.12-7.26,8.84,0,5.19,2.82,8.77,7.23,8.77S2327.59,1742,2327.59,1736.69Z"/><path class="cls-4" d="M2332.74,1736.77c0,5.27,2.68,9.14,7.72,9.14a6.48,6.48,0,0,0,6.7-5.08h1.12a7.54,7.54,0,0,1-7.82,6.1c-5.76,0-8.85-4.33-8.85-10.24,0-5.64,3.28-9.93,8.7-9.93a7.54,7.54,0,0,1,5,1.73c2.15,1.81,3.12,4.67,3.2,8.28Zm7.57-9c-4.26,0-7.27,3.16-7.53,8h14.56C2347,1730.64,2344.3,1727.78,2340.31,1727.78Z"/><path class="cls-4" d="M2357.57,1727.1h1.13v5h0a7.6,7.6,0,0,1,7.45-5.34c4.4,0,8.13,3.39,8.13,10,0,5.94-3.35,10.08-8.24,10.08a7.49,7.49,0,0,1-7.34-5h0v10.91h-1.13Zm15.58,9.75c0-6-3.08-9.07-7.15-9.07-4.44,0-7.37,3.72-7.37,9.14s2.9,9,7.41,9C2370.33,1745.91,2373.15,1742.15,2373.15,1736.85Z"/><path class="cls-4" d="M2389.63,1744.11v-1.32h-.07c-.94,2.18-3.5,4.14-7.38,4.14-3.69,0-6.21-2-6.21-5.27,0-4.25,3.46-5.23,7.53-5.72,4.78-.52,6.13-.94,6.13-3v-.3c0-3.2-1.8-4.85-5.42-4.85-3.8,0-5.94,1.54-6.21,4.93h-1.16c.26-3.47,2.41-6,7.37-6,4.33,0,6.55,2.07,6.55,5.91V1744c0,1.43.57,1.85,1.43,1.85a2.59,2.59,0,0,0,1-.27h.11v.91a2.88,2.88,0,0,1-1.36.3C2390.27,1746.78,2389.63,1745.69,2389.63,1744.11Zm0-4.52v-4.36c-.94.75-2.48,1.24-5.91,1.65-4.06.49-6.62,1.28-6.62,4.82,0,3.12,2.64,4.25,5.16,4.25C2386.62,1746,2389.63,1743.2,2389.63,1739.59Z"/><path class="cls-4" d="M2393.43,1727.1h2.82v-6h1.13v6h4.25v1h-4.25v15.39c0,1.58.64,2.29,2.37,2.29a5.26,5.26,0,0,0,1.77-.3h.07v1a6.48,6.48,0,0,1-2,.3c-2.22,0-3.31-1-3.31-3.2v-15.46h-2.82Z"/><path class="cls-4" d="M2413.15,1728.15a7.06,7.06,0,0,0-2.15.08,6.32,6.32,0,0,0-5.15,6.13v12.19h-1.13V1727.1h1.13v4h.07a6.29,6.29,0,0,1,4.7-3.72,6,6,0,0,1,2.53-.27Z"/><path class="cls-4" d="M2413.63,1736.81c0-5.57,3.31-10,8.85-10s8.84,4.44,8.84,10-3.28,10.12-8.84,10.12S2413.63,1742.41,2413.63,1736.81Zm16.52,0c0-5.46-3.2-9.07-7.67-9.07s-7.72,3.65-7.72,9.07,3.24,9.14,7.72,9.14S2430.15,1742.26,2430.15,1736.81Z"/><path class="cls-4" d="M2435.42,1730.6h.07a7.64,7.64,0,0,1,7-3.8c3.84,0,6.06,2.37,6.06,5.83v13.92h-1.13v-13.81c0-3.31-2-4.93-5.12-4.93-4,0-6.88,2.75-6.88,5.69v13h-1.13V1727.1h1.13Z"/><path class="cls-4" d="M2465,1744.11v-1.32h-.07c-1,2.18-3.5,4.14-7.38,4.14-3.69,0-6.21-2-6.21-5.27,0-4.25,3.46-5.23,7.53-5.72,4.78-.52,6.13-.94,6.13-3v-.3c0-3.2-1.81-4.85-5.42-4.85-3.8,0-5.94,1.54-6.21,4.93h-1.16c.26-3.47,2.4-6,7.37-6,4.33,0,6.55,2.07,6.55,5.91V1744c0,1.43.56,1.85,1.43,1.85a2.64,2.64,0,0,0,1-.27h.11v.91a2.91,2.91,0,0,1-1.36.3C2465.63,1746.78,2465,1745.69,2465,1744.11Zm0-4.52v-4.36c-.94.75-2.48,1.24-5.91,1.65-4.06.49-6.62,1.28-6.62,4.82,0,3.12,2.63,4.25,5.16,4.25C2462,1746,2465,1743.2,2465,1739.59Z"/><path class="cls-4" d="M2472.1,1746.55H2471v-26.9h1.13Z"/><path class="cls-4" d="M2476.31,1736.77c0,5.27,2.68,9.14,7.72,9.14a6.46,6.46,0,0,0,6.69-5.08h1.13a7.54,7.54,0,0,1-7.82,6.1c-5.76,0-8.85-4.33-8.85-10.24,0-5.64,3.28-9.93,8.7-9.93a7.54,7.54,0,0,1,5,1.73c2.15,1.81,3.12,4.67,3.2,8.28Zm7.57-9c-4.26,0-7.27,3.16-7.53,8h14.56C2490.61,1730.64,2487.87,1727.78,2483.88,1727.78Z"/><path class="cls-4" d="M2516.91,1740c-.49,4-3.2,6.92-8,6.92-5.57,0-8.73-4.52-8.73-10.12s3.16-10,8.73-10c4.25,0,7.18,2.22,7.9,6.1h-1.13c-.79-3.58-3.46-5.08-6.77-5.08-4.59,0-7.6,3.61-7.6,9s3,9.1,7.6,9.1c4,0,6.47-2.29,7-5.9Z"/><path class="cls-4" d="M2518.6,1736.81c0-5.57,3.31-10,8.84-10s8.85,4.44,8.85,10-3.28,10.12-8.85,10.12S2518.6,1742.41,2518.6,1736.81Zm16.52,0c0-5.46-3.2-9.07-7.68-9.07s-7.71,3.65-7.71,9.07,3.24,9.14,7.71,9.14S2535.12,1742.26,2535.12,1736.81Z"/><path class="cls-4" d="M2552.39,1746.55h-1.13v-13.81c0-3.31-1.84-4.93-4.7-4.93a6,6,0,0,0-6.18,5.69v13h-1.12V1727.1h1.12v3.39h.08a6.8,6.8,0,0,1,6.28-3.69c2.9,0,4.75,1.5,5.31,4h.11a6.89,6.89,0,0,1,6.51-4c3.69,0,5.68,2.37,5.68,5.83v13.92h-1.12v-13.81c0-3.31-1.77-4.93-4.75-4.93a5.74,5.74,0,0,0-6.09,5.69Z"/><path class="cls-4" d="M2568.23,1727.1h1.12v5h0a7.61,7.61,0,0,1,7.45-5.34c4.41,0,8.13,3.39,8.13,10,0,5.94-3.35,10.08-8.24,10.08a7.49,7.49,0,0,1-7.34-5h0v10.91h-1.12Zm15.57,9.75c0-6-3.08-9.07-7.15-9.07-4.44,0-7.37,3.72-7.37,9.14s2.9,9,7.41,9C2581,1745.91,2583.8,1742.15,2583.8,1736.85Z"/><path class="cls-4" d="M2596.33,1728.15a7,7,0,0,0-2.14.08,6.32,6.32,0,0,0-5.16,6.13v12.19h-1.13V1727.1H2589v4h.08a6.26,6.26,0,0,1,4.7-3.72,5.92,5.92,0,0,1,2.52-.27Z"/><path class="cls-4" d="M2600.13,1722.36H2599v-2.52h1.13Zm0,24.19H2599V1727.1h1.13Z"/><path class="cls-4" d="M2604,1740.57c.3,3.42,2.6,5.38,6.74,5.38,3.87,0,6.09-1.77,6.09-4.48s-1.46-3.76-6.24-4.62-7-2.15-7-5.16,2.37-4.93,6.54-4.93c4.63,0,6.55,2.41,7,5.61h-1.13c-.41-2.79-2.18-4.59-5.91-4.59s-5.42,1.69-5.42,3.91,1.62,3.35,6.21,4.14c4.75.83,7,2.14,7,5.64,0,3.35-2.82,5.46-7.22,5.46-5.12,0-7.64-2.71-7.87-6.36Z"/><path class="cls-4" d="M2621,1736.77c0,5.27,2.67,9.14,7.72,9.14a6.46,6.46,0,0,0,6.69-5.08h1.13a7.54,7.54,0,0,1-7.82,6.1c-5.76,0-8.85-4.33-8.85-10.24,0-5.64,3.28-9.93,8.7-9.93a7.54,7.54,0,0,1,5,1.73c2.14,1.81,3.12,4.67,3.2,8.28Zm7.57-9c-4.26,0-7.27,3.16-7.53,8h14.56C2635.27,1730.64,2632.52,1727.78,2628.54,1727.78Z"/><path class="cls-3" d="M915.1,1678.2h17.27c1.54,8.63,8.76,12.76,17.91,12.76,10.06,0,16.37-7.22,16.37-16.63,0-10.44-7.09-16.24-16.37-16.24-6.7,0-11.85,2.58-14.43,5.54H919l8.51-48.2h52.07V1630H939.71l-3.35,19.08h.26c3.87-3.35,10.18-5.55,18.3-5.55,15.6,0,29.91,11.73,29.91,30.81,0,18.43-14.83,31.32-34.16,31.32C931.08,1705.65,916.77,1695.34,915.1,1678.2Z"/><path class="cls-3" d="M1008.8,1642.11h-20v-11.6c10.82-.39,20.49-4.39,22.3-15.73h15.33v88.94H1008.8Z"/><path class="cls-3" d="M1060.48,1668.66c11.08-8.77,23.2-15,23.2-26.3,0-8.24-4.38-13.79-12.25-13.79-8.89,0-14.17,6.45-14.43,17.92h-16.5c0-20.11,10.31-32.87,31.32-32.87,19.21,0,30,13,30,28.23,0,16.63-11.34,24.49-22.17,31.71-6.83,4.38-14.82,10-17.78,15.72h40.73v14.44h-63.42C1039.86,1686.83,1050.43,1676.52,1060.48,1668.66Z"/><path class="cls-3" d="M1108.68,1648.55h6.83c3.48-21,17.27-35.06,36.86-35.06,19.85,0,31.2,12.5,32.87,29.91h-17.53c-1.42-9.41-6.44-15.21-15.34-15.21-10,0-16.24,7.86-18.43,20.36h22.82v7.61h-23.59a33.32,33.32,0,0,0-.13,3.6c0,1.55,0,3.1.13,4.52h23.59v7.6h-22.69c2.45,12.37,8.89,19.08,19,19.08s14.82-7.48,16-17.92h17c-1,19.08-12.76,32.74-33.25,32.74-19.33,0-33.25-13-37.12-33.9h-7v-7.6h6.06c-.13-1.42-.13-3-.13-4.52a33.32,33.32,0,0,1,.13-3.6h-6.06Z"/><path d="M102.89,1708.14c0-8.29,4.73-14.32,12.48-14.32,5.8,0,9.64,3.23,10.56,8.33h-2.54c-.72-3.57-3.57-6.1-8.06-6.1-6.45,0-9.75,5.33-9.75,12.09s3.42,11.94,9.71,11.94c5.3,0,8.18-3.69,8.6-8.22h2.5a11.85,11.85,0,0,1-2.84,7.18,10.75,10.75,0,0,1-8.29,3.31C107.62,1722.35,102.89,1716.55,102.89,1708.14Z"/><path d="M128.38,1716.78c0-4.72,3.69-5.68,8.18-6.22,3.92-.46,5.34-.69,5.34-2.69v-.38c0-2.69-1.69-4-4.76-4-3.54,0-5.38,1.45-5.57,4.41h-2.34c.27-3.84,2.8-6.33,7.91-6.33,4.33,0,7,1.8,7,6.14v10.79c0,1.19.46,1.69,1.31,1.72a4,4,0,0,0,.88-.15h.11v1.73a3.87,3.87,0,0,1-1.61.3,2.65,2.65,0,0,1-2.92-2.8v-.42h-.11a8,8,0,0,1-6.95,3.42C131.19,1722.31,128.38,1720.46,128.38,1716.78Zm13.55-2.11v-3.57a16.48,16.48,0,0,1-5.14,1.3c-3.34.46-5.91,1-5.91,4.38,0,2.76,2.07,3.61,4.41,3.61C139.63,1720.39,141.93,1717.39,141.93,1714.67Z"/><path d="M148.77,1694.4h2.38v27.45h-2.38Z"/><path d="M154.22,1711.94c0-5.91,3.3-10.4,9.06-10.4,4.37,0,7.33,2.38,8,6.45h-2.38c-.57-3-2.53-4.46-5.6-4.46-4.57,0-6.61,3.8-6.61,8.41s2.08,8.37,6.57,8.37a5.58,5.58,0,0,0,5.87-5.3h2.27c-.46,4.49-3.42,7.34-8.14,7.34C157.44,1722.35,154.22,1717.85,154.22,1711.94Z"/><path d="M174,1716v-14h2.38v13.86c0,3,1.8,4.45,4.68,4.45a5.65,5.65,0,0,0,5.76-5.91V1702h2.34v19.85h-2.34v-2.92h-.08a7,7,0,0,1-6.22,3.38C176.64,1722.31,174,1720,174,1716Z"/><path d="M193.22,1694.4h2.38v27.45h-2.38Z"/><path d="M198.67,1711.94c0-6,3.57-10.4,9.06-10.4,6.37,0,8.56,5.26,8.52,10.82H201.13c.11,4.46,2.26,8,6.79,8a5.54,5.54,0,0,0,5.8-4.45H216a7.75,7.75,0,0,1-8.1,6.49C202,1722.35,198.67,1717.89,198.67,1711.94Zm15.09-1.46c-.12-3.91-2-7-6-7s-6.14,3-6.57,7Zm-5-16.24h3.14l-3.6,4.88h-2.08Z"/><path d="M223.7,1715.67h2.42c.34,3.34,2.65,4.68,5.83,4.68s5-1.54,5-3.84-1.23-2.92-5.3-3.84-7.25-1.88-7.25-5.72c0-3.3,2.84-5.37,6.91-5.37,4.72,0,6.91,2.38,7.37,5.87h-2.38c-.27-2.57-2-3.92-5-3.92s-4.53,1.46-4.53,3.31c0,2.26,1.88,2.8,5.68,3.68,4,.85,6.87,1.84,6.87,6,0,3.53-2.84,5.91-7.45,5.91C226.62,1722.38,223.93,1719.5,223.7,1715.67Z"/><path d="M242.12,1716v-14h2.38v13.86c0,3,1.81,4.45,4.69,4.45a5.65,5.65,0,0,0,5.76-5.91V1702h2.34v19.85H255v-2.92h-.08a7,7,0,0,1-6.22,3.38C244.81,1722.31,242.12,1720,242.12,1716Z"/><path d="M261.28,1702h2.38v3.68h.08a6.72,6.72,0,0,1,6.06-3.84,2.35,2.35,0,0,1,.65.08v2.34a5.76,5.76,0,0,0-4.22,1,6.52,6.52,0,0,0-2.57,5.34v11.29h-2.38Z"/><path d="M279,1694.4h2.38v27.45H279Z"/><path d="M284.35,1716.78c0-4.72,3.68-5.68,8.18-6.22,3.91-.46,5.33-.69,5.33-2.69v-.38c0-2.69-1.69-4-4.76-4-3.53,0-5.37,1.45-5.56,4.41h-2.35c.27-3.84,2.81-6.33,7.91-6.33,4.34,0,7,1.8,7,6.14v10.79c0,1.19.46,1.69,1.3,1.72a4.13,4.13,0,0,0,.89-.15h.11v1.73a3.87,3.87,0,0,1-1.61.3,2.65,2.65,0,0,1-2.92-2.8v-.42h-.11a8,8,0,0,1-7,3.42C287.15,1722.31,284.35,1720.46,284.35,1716.78Zm13.55-2.11v-3.57a16.55,16.55,0,0,1-5.14,1.3c-3.34.46-5.92,1-5.92,4.38,0,2.76,2.08,3.61,4.42,3.61C295.6,1720.39,297.9,1717.39,297.9,1714.67Z"/><path d="M312.83,1718.85h-.07v3h-2.38V1694.4h2.38v11h.07a7.47,7.47,0,0,1,6.72-3.83c4.76,0,8.18,3.8,8.18,10.4,0,6.1-3.11,10.4-8.33,10.4A7.21,7.21,0,0,1,312.83,1718.85Zm12.48-6.83c0-5-2.11-8.45-6.07-8.45-4.37,0-6.68,3.73-6.68,8.45,0,5,2.31,8.37,6.72,8.37C323.35,1720.39,325.31,1716.66,325.31,1712Z"/><path d="M329.42,1716.78c0-4.72,3.68-5.68,8.17-6.22,3.92-.46,5.34-.69,5.34-2.69v-.38c0-2.69-1.69-4-4.76-4-3.53,0-5.38,1.45-5.57,4.41h-2.34c.27-3.84,2.8-6.33,7.91-6.33,4.34,0,7,1.8,7,6.14v10.79c0,1.19.47,1.69,1.31,1.72a4,4,0,0,0,.88-.15h.12v1.73a3.94,3.94,0,0,1-1.61.3,2.64,2.64,0,0,1-2.92-2.8v-.42h-.12a8,8,0,0,1-7,3.42C332.22,1722.31,329.42,1720.46,329.42,1716.78Zm13.55-2.11v-3.57a16.62,16.62,0,0,1-5.15,1.3c-3.34.46-5.91,1-5.91,4.38,0,2.76,2.07,3.61,4.42,3.61C340.66,1720.39,343,1717.39,343,1714.67Z"/><path d="M348.23,1715.67h2.41c.35,3.34,2.65,4.68,5.84,4.68s5-1.54,5-3.84-1.23-2.92-5.3-3.84S349,1710.79,349,1707c0-3.3,2.84-5.37,6.91-5.37,4.72,0,6.91,2.38,7.37,5.87h-2.38c-.27-2.57-2-3.92-5-3.92s-4.53,1.46-4.53,3.31c0,2.26,1.88,2.8,5.68,3.68,4,.85,6.87,1.84,6.87,6,0,3.53-2.84,5.91-7.45,5.91C351.14,1722.38,348.46,1719.5,348.23,1715.67Z"/><path d="M366,1711.94c0-6,3.57-10.4,9.06-10.4,6.37,0,8.56,5.26,8.52,10.82H368.42c.11,4.46,2.26,8,6.79,8a5.54,5.54,0,0,0,5.8-4.45h2.3a7.75,7.75,0,0,1-8.1,6.49C369.26,1722.35,366,1717.89,366,1711.94Zm15.09-1.46c-.12-3.91-2-7-6-7s-6.14,3-6.56,7Z"/><path d="M391.22,1712c0-6.6,3.76-10.4,8.48-10.4a7.08,7.08,0,0,1,6.53,3.72h.08v-10.9h2.38v27.45h-2.38v-3h-.08a7.11,7.11,0,0,1-6.45,3.49C394.44,1722.38,391.22,1718.08,391.22,1712Zm15.28,0c0-4.88-2.34-8.45-6.64-8.45-3.92,0-6.18,3.5-6.18,8.45,0,4.64,2,8.37,6.18,8.37S406.5,1717,406.5,1712Z"/><path d="M411.64,1711.94c0-6,3.57-10.4,9.06-10.4,6.37,0,8.56,5.26,8.52,10.82H414.1c.11,4.46,2.26,8,6.79,8a5.53,5.53,0,0,0,5.8-4.45H429a7.75,7.75,0,0,1-8.1,6.49C414.94,1722.35,411.64,1717.89,411.64,1711.94Zm15.09-1.46c-.12-3.91-2-7-6-7s-6.14,3-6.56,7Z"/><path d="M437.94,1702h2.38v3h.07a7.64,7.64,0,0,1,6.65-3.45c3.68,0,6.33,2.18,6.33,6.18v14.09H451V1708c0-3-1.73-4.38-4.53-4.38-3.38,0-6.14,2.38-6.14,5.64v12.6h-2.38Z"/><path d="M456.17,1711.94c0-5.91,3.49-10.4,9.21-10.4s9.14,4.49,9.14,10.4-3.42,10.41-9.14,10.41S456.17,1717.85,456.17,1711.94Zm15.93,0c0-4.64-2.3-8.41-6.72-8.41s-6.75,3.77-6.75,8.41,2.3,8.41,6.75,8.41S472.1,1716.59,472.1,1711.94Z"/><path d="M478.59,1718.43V1704h-3v-2h3v-6.11H481V1702h3.68v2H481v14.09c0,1.42.65,1.88,1.92,1.88a4.6,4.6,0,0,0,1.57-.31h.12v2a6.45,6.45,0,0,1-2.19.35C480.12,1722,478.59,1721,478.59,1718.43Z"/><path d="M487.76,1702h2.38v3.68h.08a6.73,6.73,0,0,1,6.07-3.84,2.41,2.41,0,0,1,.65.08v2.34a5.75,5.75,0,0,0-4.22,1,6.5,6.5,0,0,0-2.58,5.34v11.29h-2.38Z"/><path d="M497.59,1711.94c0-6,3.57-10.4,9.06-10.4,6.37,0,8.56,5.26,8.52,10.82H500.05c.11,4.46,2.26,8,6.79,8a5.54,5.54,0,0,0,5.8-4.45h2.3a7.75,7.75,0,0,1-8.1,6.49C500.89,1722.35,497.59,1717.89,497.59,1711.94Zm15.09-1.46c-.12-3.91-2-7-6-7s-6.14,3-6.56,7Z"/><path d="M522.85,1711.94c0-5.91,3.49-10.4,9.21-10.4s9.14,4.49,9.14,10.4-3.42,10.41-9.14,10.41S522.85,1717.85,522.85,1711.94Zm15.93,0c0-4.64-2.3-8.41-6.72-8.41s-6.75,3.77-6.75,8.41,2.3,8.41,6.75,8.41S538.78,1716.59,538.78,1711.94Z"/><path d="M545.11,1704h-2.88v-2h2.88v-3.34c0-3,1.62-4.26,4.65-4.26.23,0,1.15,0,1.3,0v2h-1c-2,0-2.57.73-2.57,2.26V1702h6.25v-3.53c0-3,1.65-4.27,4.65-4.27l1.34,0v2h-1c-2,0-2.58.77-2.58,2.26V1702h3.69v2h-3.69v17.89h-2.38V1704h-6.25v17.89h-2.35Z"/><path d="M562.54,1702h2.38v3.68H565a6.73,6.73,0,0,1,6.06-3.84,2.49,2.49,0,0,1,.66.08v2.34a5.79,5.79,0,0,0-4.23,1,6.52,6.52,0,0,0-2.57,5.34v11.29h-2.38Z"/><path d="M572.37,1711.94c0-6,3.57-10.4,9.06-10.4,6.37,0,8.56,5.26,8.52,10.82H574.83c.11,4.46,2.26,8,6.79,8a5.54,5.54,0,0,0,5.8-4.45h2.3a7.76,7.76,0,0,1-8.1,6.49C575.67,1722.35,572.37,1717.89,572.37,1711.94Zm15.09-1.46c-.12-3.91-2-7-6-7s-6.14,3-6.57,7Z"/><path class="cls-4" d="M1605.48,1678.2c0-11,6.45-19.47,16.11-23.2v-.39c-7.86-3.61-12.37-9-12.37-17.53,0-14.95,13-23.46,32.1-23.46s31.44,8.38,31.44,23.2c0,8.25-4.64,14-12.24,17.66v.39a23.2,23.2,0,0,1,16,22.55c0,18.18-15.08,28.23-35.06,28.23S1605.48,1696,1605.48,1678.2Zm53-.65c0-9-6.32-15-17.14-15s-17.66,5.93-17.66,15c0,8.64,6.7,13.92,17.4,13.92C1651.37,1691.47,1658.46,1685.93,1658.46,1677.55Zm-2.84-39c0-7-5.41-11.6-14.56-11.6s-14.7,4.64-14.7,11.6,5.42,11.86,14.7,11.86S1655.62,1645.46,1655.62,1638.5Z"/><path class="cls-4" d="M1703.44,1668.66c11.08-8.77,23.2-15,23.2-26.3,0-8.24-4.39-13.79-12.25-13.79-8.89,0-14.18,6.45-14.43,17.92h-16.5c0-20.11,10.31-32.87,31.32-32.87,19.2,0,30,13,30,28.23,0,16.63-11.34,24.49-22.17,31.71-6.83,4.38-14.82,10-17.79,15.72h40.73v14.44h-63.41C1682.81,1686.83,1693.38,1676.52,1703.44,1668.66Z"/><path class="cls-4" d="M1753.18,1659.64c0-28.23,14.57-46.15,37-46.15,22.81,0,36.73,17.79,36.73,46.15,0,28.09-13.92,46.14-36.86,46.14C1767.49,1705.78,1753.18,1687.73,1753.18,1659.64Zm55.43,0c0-18.69-5.42-31.2-18.43-31.2s-18.69,12.38-18.69,31.2,5.54,31.19,18.69,31.19S1808.61,1678.58,1808.61,1659.64Z"/><path class="cls-4" d="M1833.09,1648.55h6.83c3.48-21,17.27-35.06,36.87-35.06,19.84,0,31.19,12.5,32.86,29.91h-17.53c-1.41-9.41-6.44-15.21-15.33-15.21-10.06,0-16.24,7.86-18.44,20.36h22.82v7.61h-23.59a33.32,33.32,0,0,0-.13,3.6c0,1.55,0,3.1.13,4.52h23.59v7.6h-22.69c2.45,12.37,8.9,19.08,19,19.08s14.82-7.48,16-17.92h17c-1,19.08-12.76,32.74-33.26,32.74-19.33,0-33.25-13-37.12-33.9h-7v-7.6h6.06c-.13-1.42-.13-3-.13-4.52a33.32,33.32,0,0,1,.13-3.6h-6.06Z"/><path class="cls-4" d="M2248.41,1670.69h16.75c.65,10.56,5.29,17.91,17.4,17.91,9.8,0,15.6-5.28,15.6-14.31,0-8.5-5.42-13.66-16.24-13.66h-5.42v-13.27h5c8.38,0,14.31-4.26,14.31-11.73,0-7-4.77-11.6-12.5-11.6-10.06,0-15,6.57-15.34,15.72h-16.76c.64-17.4,11.6-29.13,32.1-29.13,18.43,0,30.28,9.15,30.28,23.85,0,9.92-6.31,15.72-15.08,18.56v.25c11.22,2.71,17.92,9.93,17.92,22.17,0,18.31-15.08,27.2-33.25,27.2C2260.39,1702.65,2248.66,1690,2248.41,1670.69Z"/><path class="cls-4" d="M2321.22,1675.2h17.28c1.54,8.63,8.76,12.76,17.91,12.76,10.05,0,16.37-7.22,16.37-16.63,0-10.44-7.09-16.24-16.37-16.24-6.7,0-11.86,2.58-14.44,5.54h-16.88l8.51-48.2h52.07V1627h-39.83l-3.35,19.08h.26c3.86-3.35,10.18-5.55,18.3-5.55,15.6,0,29.9,11.73,29.9,30.81,0,18.43-14.82,31.32-34.15,31.32C2337.21,1702.65,2322.9,1692.34,2321.22,1675.2Z"/><path class="cls-4" d="M2397.91,1656.64c0-28.23,14.56-46.15,37-46.15,22.81,0,36.73,17.79,36.73,46.15,0,28.09-13.92,46.14-36.86,46.14C2412.21,1702.78,2397.91,1684.73,2397.91,1656.64Zm55.42,0c0-18.69-5.41-31.2-18.43-31.2s-18.69,12.38-18.69,31.2,5.54,31.19,18.69,31.19S2453.33,1675.58,2453.33,1656.64Z"/><path class="cls-4" d="M2479.36,1656.64c0-28.23,14.57-46.15,37-46.15,22.82,0,36.74,17.79,36.74,46.15,0,28.09-13.92,46.14-36.87,46.14C2493.67,1702.78,2479.36,1684.73,2479.36,1656.64Zm55.43,0c0-18.69-5.42-31.2-18.44-31.2s-18.69,12.38-18.69,31.2,5.55,31.19,18.69,31.19S2534.79,1675.58,2534.79,1656.64Z"/><path class="cls-4" d="M2559.27,1645.55h6.83c3.48-21,17.27-35.06,36.86-35.06,19.85,0,31.19,12.5,32.87,29.91H2618.3c-1.42-9.41-6.44-15.21-15.34-15.21-10.05,0-16.24,7.86-18.43,20.36h22.81v7.61h-23.58a33.32,33.32,0,0,0-.13,3.6c0,1.55,0,3.1.13,4.52h23.58v7.6h-22.68c2.45,12.37,8.89,19.08,19,19.08s14.82-7.48,16-17.92h17c-1,19.08-12.76,32.74-33.25,32.74-19.33,0-33.25-13-37.12-33.9h-7v-7.6h6.06c-.13-1.42-.13-3-.13-4.52a33.32,33.32,0,0,1,.13-3.6h-6.06Z"/><path class="cls-4" d="M2647.42,1644.52l8.77-11.86-13.92-4.51,3.48-8.89,13.4,4.51v-15.21h9.93v15.21l13.27-4.51,3.49,8.89-13.67,4.51,8.64,11.86-7.86,5.8-8.77-12.5-8.76,12.5Z"/><path class="cls-4" d="M1734.66,1376.88v16.7H1618.52v-16.7h8.29c0-1.34,0-2.49,0-3.64a59.94,59.94,0,0,1,.41-8.06c1.09-6.32,3.74-12.13,6.75-17.71,5.13-9.52,10.53-18.9,15.91-28.29,2.06-3.6,2.09-3.5,0-7.09-5.31-9.29-10.65-18.56-15.74-28-2.94-5.43-5.62-11.07-6.73-17.19-.63-3.48-.46-7.1-.63-10.65,0-.64,0-1.29,0-2h-8.29v-16.7h116.14v16.7h-8.28c0,1.7-.08,3.24,0,4.76a31.32,31.32,0,0,1-2.92,15.12c-2.6,5.69-5.16,11.42-8.15,16.9-4.36,8-9.07,15.74-13.67,23.57a1.61,1.61,0,0,0,0,1.91c1.83,3,3.6,6,5.38,9,5.49,9.24,10.88,18.53,15.21,28.39,1.84,4.17,3.6,8.41,4,13,.24,2.84.11,5.72.15,8.58,0,.44,0,.88.07,1.42Zm-99.54-122.59c0,1.82.11,3.52,0,5.21a22.12,22.12,0,0,0,2.65,12.12c4.8,9.24,9.74,18.4,14.62,27.59q3.77,7.1,7.5,14.19a4.36,4.36,0,0,1,0,4.3c-3.05,5.75-6.15,11.48-9.19,17.23-4.37,8.25-8.77,16.48-13,24.79a21.4,21.4,0,0,0-2.56,11.64c.12,1.49,0,3,0,4.49a7.79,7.79,0,0,0,.14,1h81.06c.29,0,.58,0,.87,0,.65.06.89-.23.88-.87a33.43,33.43,0,0,1,0-3.61,24,24,0,0,0-3-13.55c-4.69-8.92-9.52-17.77-14.29-26.65q-3.9-7.29-7.77-14.61a4.26,4.26,0,0,1,0-4.18c1.93-3.71,3.84-7.44,5.83-11.12,5.23-9.67,10.55-19.29,15.73-29,2.48-4.64,4-9.57,3.42-14.94-.1-1,0-2.08,0-3.12,0-.31-.07-.62-.11-1Z"/><path class="cls-4" d="M1647.69,1267.27h57.73a19.21,19.21,0,0,1-.75,7.87,63.7,63.7,0,0,1-8.8,16.11,99.65,99.65,0,0,1-15.09,16.17,2.1,2.1,0,0,0-.62,1.38c-.05,3.32-.07,6.65,0,10a2.89,2.89,0,0,0,.77,1.71A121,121,0,0,1,1705,1357c.78,1.88.48,4.2.69,6.41h-58c.17-2.36-.35-4.68.55-7a94.21,94.21,0,0,1,14.09-24.22c3.15-4,6.64-7.75,9.93-11.66a3.41,3.41,0,0,0,.77-1.94q.12-4.74,0-9.47a2.45,2.45,0,0,0-.86-1.72c-7-5.17-12.31-11.86-16.61-19.32-2.69-4.66-4.82-9.63-7.24-14.44C1647.27,1271.56,1647.83,1269.46,1647.69,1267.27Z"/><path class="cls-3" d="M1108.56,1254.26v-16.7H992.41v16.7h8.3c0,.73,0,1.38,0,2,.18,3.55,0,7.17.64,10.65,1.11,6.12,3.79,11.76,6.72,17.19,5.09,9.41,10.44,18.68,15.74,28,1,1.77,1.52,2.64,1.53,3.5h9a4.57,4.57,0,0,0-.56-2.19q-3.75-7.1-7.51-14.19c-4.87-9.19-9.82-18.35-14.61-27.59a22,22,0,0,1-2.66-12.12c.14-1.69,0-3.39,0-5.21h82.83a8.15,8.15,0,0,1,.11,1c0,1-.08,2.09,0,3.12.54,5.37-.94,10.3-3.42,14.94-5.18,9.7-10.5,19.32-15.73,29-2,3.68-3.89,7.41-5.83,11.12a4.51,4.51,0,0,0-.56,2.18h8.79a2,2,0,0,1,.33-1c4.59-7.83,9.31-15.6,13.66-23.57,3-5.48,5.55-11.21,8.15-16.9a31.33,31.33,0,0,0,2.93-15.12c-.09-1.52,0-3.06,0-4.76Z"/><path class="cls-3" d="M1078.56,1275.14a64,64,0,0,1-8.79,16.11,99.71,99.71,0,0,1-15.1,16.17,2.1,2.1,0,0,0-.62,1.38c0,2.26,0,4.52,0,6.79H1047c0-2.18,0-4.35,0-6.52a2.5,2.5,0,0,0-.87-1.72c-7-5.17-12.31-11.86-16.61-19.32-2.68-4.66-4.81-9.63-7.24-14.44-1-2-.47-4.13-.6-6.32h57.73A19.38,19.38,0,0,1,1078.56,1275.14Z"/><path class="cls-4" d="M1882.62,1376.88v16.7H1766.47v-16.7h8.3c0-1.34,0-2.49,0-3.64a60,60,0,0,1,.4-8.06c1.09-6.32,3.75-12.13,6.75-17.71,5.13-9.52,10.54-18.9,15.92-28.29,2.06-3.6,2.08-3.5,0-7.09-5.31-9.29-10.66-18.56-15.75-28-2.93-5.43-5.61-11.07-6.72-17.19-.63-3.48-.46-7.1-.64-10.65,0-.64,0-1.29,0-2h-8.3v-16.7h116.15v16.7h-8.28c0,1.7-.08,3.24,0,4.76a31.44,31.44,0,0,1-2.92,15.12c-2.61,5.69-5.16,11.42-8.16,16.9-4.35,8-9.07,15.74-13.66,23.57a1.58,1.58,0,0,0,0,1.91c1.82,3,3.59,6,5.37,9,5.49,9.24,10.88,18.53,15.22,28.39,1.83,4.17,3.6,8.41,4,13,.25,2.84.11,5.72.15,8.58,0,.44.05.88.07,1.42Zm-99.54-122.59c0,1.82.11,3.52,0,5.21a22.13,22.13,0,0,0,2.66,12.12c4.8,9.24,9.74,18.4,14.62,27.59l7.5,14.19a4.39,4.39,0,0,1,0,4.3c-3.06,5.75-6.15,11.48-9.2,17.23-4.36,8.25-8.77,16.48-13,24.79a21.31,21.31,0,0,0-2.56,11.64c.12,1.49,0,3,0,4.49a9.93,9.93,0,0,0,.14,1h81.07c.29,0,.58,0,.87,0,.64.06.89-.23.88-.87a31,31,0,0,1,0-3.61,24,24,0,0,0-3-13.55c-4.7-8.92-9.53-17.77-14.29-26.65q-3.91-7.29-7.77-14.61a4.26,4.26,0,0,1,0-4.18c1.94-3.71,3.84-7.44,5.84-11.12,5.22-9.67,10.55-19.29,15.72-29,2.48-4.64,4-9.57,3.43-14.94-.11-1,0-2.08,0-3.12a8.15,8.15,0,0,0-.11-1Z"/><path class="cls-4" d="M1795.65,1267.27h57.73a19.21,19.21,0,0,1-.76,7.87,63.67,63.67,0,0,1-8.79,16.11,99.71,99.71,0,0,1-15.1,16.17,2.1,2.1,0,0,0-.62,1.38c0,3.32-.06,6.65,0,10a2.82,2.82,0,0,0,.76,1.71A120.83,120.83,0,0,1,1853,1357c.78,1.88.49,4.2.7,6.41h-58c.18-2.36-.34-4.68.55-7a94,94,0,0,1,14.1-24.22c3.15-4,6.64-7.75,9.92-11.66a3.41,3.41,0,0,0,.77-1.94q.12-4.74,0-9.47a2.49,2.49,0,0,0-.86-1.72c-7-5.17-12.32-11.86-16.62-19.32-2.68-4.66-4.81-9.63-7.24-14.44C1795.23,1271.56,1795.78,1269.46,1795.65,1267.27Z"/><path class="cls-4" d="M2512.94,1376.88v16.7H2396.8v-16.7h8.29c0-1.34,0-2.49,0-3.64a61.64,61.64,0,0,1,.41-8.06c1.09-6.32,3.74-12.13,6.75-17.71,5.13-9.52,10.54-18.9,15.91-28.29,2.06-3.6,2.09-3.5,0-7.09-5.3-9.29-10.65-18.56-15.74-28-2.94-5.43-5.61-11.07-6.72-17.19-.63-3.48-.46-7.1-.64-10.65,0-.64,0-1.29,0-2h-8.29v-16.7h116.14v16.7h-8.28c0,1.7-.07,3.24,0,4.76a31.33,31.33,0,0,1-2.93,15.12c-2.6,5.69-5.16,11.42-8.15,16.9-4.35,8-9.07,15.74-13.67,23.57a1.61,1.61,0,0,0,0,1.91c1.83,3,3.6,6,5.38,9,5.49,9.24,10.88,18.53,15.21,28.39,1.84,4.17,3.61,8.41,4,13,.25,2.84.11,5.72.15,8.58,0,.44,0,.88.07,1.42Zm-99.54-122.59c0,1.82.12,3.52,0,5.21a22.12,22.12,0,0,0,2.65,12.12c4.8,9.24,9.74,18.4,14.62,27.59q3.76,7.1,7.5,14.19a4.39,4.39,0,0,1,0,4.3c-3.06,5.75-6.15,11.48-9.2,17.23-4.37,8.25-8.77,16.48-13,24.79a21.41,21.41,0,0,0-2.57,11.64c.13,1.49,0,3,0,4.49a7.79,7.79,0,0,0,.14,1h81.06c.29,0,.59,0,.87,0,.65.06.89-.23.88-.87,0-1.2-.09-2.42,0-3.61a24,24,0,0,0-3-13.55c-4.69-8.92-9.52-17.77-14.28-26.65-2.61-4.86-5.19-9.74-7.78-14.61a4.26,4.26,0,0,1,0-4.18c1.94-3.71,3.84-7.44,5.83-11.12,5.23-9.67,10.55-19.29,15.73-29,2.48-4.64,4-9.57,3.42-14.94-.1-1,0-2.08,0-3.12a8.15,8.15,0,0,0-.11-1Z"/><path class="cls-4" d="M2426,1267.27h57.73a19.38,19.38,0,0,1-.76,7.87,63.7,63.7,0,0,1-8.8,16.11,99.21,99.21,0,0,1-15.09,16.17,2.1,2.1,0,0,0-.62,1.38c-.05,3.32-.07,6.65,0,10a2.82,2.82,0,0,0,.76,1.71,121,121,0,0,1,24.07,36.47c.78,1.88.48,4.2.69,6.41h-58c.17-2.36-.35-4.68.55-7a94,94,0,0,1,14.1-24.22c3.15-4,6.63-7.75,9.92-11.66a3.41,3.41,0,0,0,.77-1.94q.12-4.74,0-9.47a2.5,2.5,0,0,0-.87-1.72c-7-5.17-12.31-11.86-16.61-19.32-2.69-4.66-4.82-9.63-7.24-14.44C2425.56,1271.56,2426.11,1269.46,2426,1267.27Z"/><path class="cls-4" d="M1688.39,203.83c-4.15-12.81,5.69-18.28,12.69-25.27,4-4,8.27-7.76,12.19-11.85,3.53-3.68,1.37-5.66-2.51-6.8a3.35,3.35,0,0,0-.71,0c-16-1.75-16-1.75-16-17.9,0-3.31.27-6.64-.06-9.92-.63-6.24,1-10.71,7.8-11.26.61-7,.36-13.72,1.91-20,4-16.32,17.88-26.82,34.6-27,8.74-.1,17.48-.06,26.22,0,22,.12,37.29,15.37,37.42,37.4,0,3,0,6.09,0,9.55,8,.56,8.8,5.67,8.42,12a168.93,168.93,0,0,0,0,18.42c.33,6.56-2.84,8.66-8.94,8.88-3.87.14-7.69,1.6-11.54,2.47,2.24,3.22,4.28,6.6,6.76,9.62a91,91,0,0,0,7.06,7c7,6.79,16.43,12.22,12.3,23.76,1.16.87,1.33,1.11,1.52,1.13,15.25,1.68,15.33,1.69,12.8,17.58-2.41,15.12-5.11,30.2-7.48,45.32-.85,5.42-3.49,7.42-9,7.39q-61.65-.25-123.3,0c-5,0-8-1.31-8.87-6.67-2.83-17.44-6-34.83-8.82-52.27-1.58-9.84-.5-10.83,9.72-11C1684.12,204.2,1685.72,204,1688.39,203.83Zm-4.67,11.64c2.52,14.5,5.24,28.12,7.12,41.86.72,5.22,2.58,6.45,7.57,6.42,31.88-.22,63.76-.09,95.64-.14,5.86,0,13.46,1.8,17.09-1.15s3.24-10.72,4.26-16.44c1.79-10.05,3.3-20.14,5-30.55Zm99.87-77c0-.32-.07-2.44-.32-4.55-1.84-15.53-13.87-28.09-28.57-29.89-12.86-1.58-26.1,7.28-31.34,21.62s-3.63,27.89,5.82,40c11.88,15.27,33.74,15.22,45.85.13C1781,158.36,1783.89,149.84,1783.59,138.48Zm-63.36,34.33c-6.08,6.68-11.53,13.24-17.61,19.15-3.61,3.52-5.13,6.95-3.48,11.92h107.28c-1.87-15.57-16.32-19.89-23.32-30.28C1764.93,191.57,1741,193,1720.23,172.81Zm70.45-53.45c3.71-20.55-8.5-36.39-29.24-34.73a126.94,126.94,0,0,1-19.79,0c-19.7-1.53-32.29,15.44-28,34C1733.87,82.54,1773.76,87.08,1790.68,119.36Zm-79.94,21.3-3.57-8.47c-.73,2.88-2.09,5.77-2,8.62.07,2.68,1.67,5.32,2.6,8Zm82.82-.8c1.21,3.2,2.29,6.08,3.38,8.95.8-3,2.18-6.06,2.21-9.1,0-2.5-1.55-5-2.41-7.53C1795.73,134.63,1794.71,137.08,1793.56,139.86Z"/><path class="cls-4" d="M1832.41,280.52c-.83-4.77-1.66-9.17-2.34-13.59-.55-3.54-.24-7.38,4.23-7.14,2.12.11,5.22,2.92,5.88,5.1,1.89,6.29,2.87,12.86,4,19.36,1,5.73-2.21,7.66-7.34,7.66H1671.73c-12,0-12.77-.88-10.6-12.52.91-4.87,1.37-9.89,3-14.5.78-2.21,3.75-5,5.86-5.11,4.49-.24,4.77,3.63,4.23,7.16-.66,4.42-1.49,8.81-2.31,13.57Z"/><path class="cls-4" d="M2423.67,158.38c10.25,19.56,20.38,38.91,30.76,58.71l30.7-58.62a49.12,49.12,0,0,1,14.64,8c14.11,10.55,24.06,24.38,31.48,40.17,6.77,14.4,10.77,29.64,13.09,45.32,1.91,12.93-6.54,22.62-19.67,22.63-46.66,0-93.31-.12-140,.1-14.43.07-22.12-12.11-20.2-23.19,3.38-19.56,8.58-38.38,18.74-55.57,8.38-14.18,19.1-26.16,33.55-34.47,1.12-.64,2.29-1.2,3.47-1.74C2421.28,159.29,2422.34,158.91,2423.67,158.38Zm30.89,67.56v0h-53.31c-3.32,0-3.53.26-2.66,3.45,3.25,12,6.55,24,9.7,36.1.49,1.9,1.11,2.59,3.18,2.59q43.08-.14,86.17,0c1.67,0,2.4-.46,2.83-2.09,3.24-12.28,6.57-24.54,9.86-36.81.8-3,.65-3.18-2.46-3.18Z"/><path class="cls-4" d="M2493.23,113.23a38.4,38.4,0,0,1-36.4,41.61,39.2,39.2,0,0,1-41.41-38.71c-.4-20.62,17.13-38.87,37.63-39.18C2474.74,76.61,2491.62,92.07,2493.23,113.23Z"/><path class="cls-4" d="M2463.88,188.12a16.6,16.6,0,0,1-.71,1.69c-2.08,3.84-4.15,7.69-6.28,11.51-1.21,2.19-3.18,2.19-4.39,0-2.14-3.89-4.27-7.78-6.26-11.75a4.56,4.56,0,0,1-.23-3c2-6.4,4.15-12.77,6.4-19.1.37-1.05,1.53-1.82,2.33-2.72.78.9,1.93,1.68,2.3,2.73,2.19,6.17,4.2,12.41,6.26,18.63C2463.5,186.74,2463.66,187.37,2463.88,188.12Z"/><path class="cls-4" d="M2549.11,280.61c-1-4.95-1.94-9.5-2.75-14.07-.65-3.67-.28-7.65,5-7.4,2.48.12,6.13,3,6.9,5.29,2.23,6.5,3.38,13.31,4.73,20,1.19,5.93-2.61,7.94-8.64,7.94h-37.51q-78.35,0-156.69,0c-14.15,0-15-.91-12.47-13,1.07-5,1.61-10.24,3.53-15,.93-2.29,4.42-5.18,6.9-5.29,5.28-.25,5.61,3.76,5,7.41-.78,4.57-1.76,9.12-2.73,14.06Z"/></g></g></svg>