<svg xmlns="http://www.w3.org/2000/svg" viewBox="0 0 142.61 142.61"><defs><style>.cls-1{fill:#fff;}.cls-2{fill:#2c3058;}.cls-3{fill:#f7cd12;}</style></defs><g id="Calque_2" data-name="Calque 2"><g id="Calque_1-2" data-name="Calque 1"><circle class="cls-1" cx="71.3" cy="71.3" r="71.3"/><path class="cls-2" d="M90.46,79.19A6.48,6.48,0,0,0,85.75,77,6.74,6.74,0,0,0,81,79.17l-4.4,4.39c-.36-.2-.72-.38-1.07-.56a14.56,14.56,0,0,1-1.38-.74A47.71,47.71,0,0,1,62.68,71.82a28.25,28.25,0,0,1-3.76-5.93c1.14-1,2.2-2.13,3.23-3.18l1.17-1.18a6.4,6.4,0,0,0,0-9.64l-3.8-3.8c-.44-.43-.88-.88-1.3-1.32-.83-.87-1.71-1.76-2.62-2.59a6.57,6.57,0,0,0-4.66-2,6.83,6.83,0,0,0-4.74,2l0,0L41.44,49a10.19,10.19,0,0,0-3,6.48A24.32,24.32,0,0,0,40.2,65.79,60.09,60.09,0,0,0,50.85,83.56a65.52,65.52,0,0,0,21.83,17.09,34,34,0,0,0,12.25,3.62l.88,0a10.47,10.47,0,0,0,8-3.46s0,0,.06-.07a31.84,31.84,0,0,1,2.44-2.52c.6-.57,1.21-1.17,1.81-1.79a7,7,0,0,0,2.1-4.82,6.71,6.71,0,0,0-2.14-4.78Zm5,14.66s0,0,0,0c-.55.59-1.1,1.12-1.7,1.7a34.07,34.07,0,0,0-2.69,2.79,6.73,6.73,0,0,1-5.24,2.21h-.64a30.29,30.29,0,0,1-10.86-3.26,62.12,62.12,0,0,1-20.56-16.1,56.75,56.75,0,0,1-10-16.7,19.81,19.81,0,0,1-1.56-8.72,6.35,6.35,0,0,1,1.92-4.13l4.75-4.75a3.15,3.15,0,0,1,2.12-1,3,3,0,0,1,2,1l0,0c.85.79,1.66,1.61,2.51,2.49l1.32,1.35,3.8,3.8c1.48,1.48,1.48,2.84,0,4.32-.4.4-.79.81-1.2,1.2-1.17,1.19-2.28,2.31-3.49,3.39l-.07.07a2.85,2.85,0,0,0-.73,3.17l0,.12a30.68,30.68,0,0,0,4.49,7.34h0A51.06,51.06,0,0,0,72.11,85.43a19.29,19.29,0,0,0,1.71.93c.5.25,1,.49,1.38.74l.16.09a3,3,0,0,0,1.38.35,3,3,0,0,0,2.12-1l4.76-4.76a3.2,3.2,0,0,1,2.11-1,2.84,2.84,0,0,1,2,1l0,0,7.67,7.67C96.87,90.91,96.87,92.38,95.45,93.85Z"/><path class="cls-3" d="M74,54A17.92,17.92,0,0,1,88.57,68.6a1.86,1.86,0,0,0,1.85,1.56,1.73,1.73,0,0,0,.32,0A1.87,1.87,0,0,0,92.28,68,21.67,21.67,0,0,0,74.63,50.3a1.91,1.91,0,0,0-2.18,1.54A1.86,1.86,0,0,0,74,54Z"/><path class="cls-3" d="M104.22,67.42A35.69,35.69,0,0,0,75.14,38.34,1.88,1.88,0,0,0,73,39.87a1.91,1.91,0,0,0,1.55,2.18,31.9,31.9,0,0,1,26,26,1.86,1.86,0,0,0,1.85,1.56,1.73,1.73,0,0,0,.32,0A1.84,1.84,0,0,0,104.22,67.42Z"/></g></g></svg>