<svg xmlns="http://www.w3.org/2000/svg" viewBox="0 0 142.61 142.61"><defs><style>.cls-1{fill:#fff;}.cls-2{fill:#f7cd12;}.cls-3{fill:#2c3058;}</style></defs><g id="Calque_2" data-name="Calque 2"><g id="Calque_1-2" data-name="Calque 1"><circle class="cls-1" cx="71.3" cy="71.3" r="71.3"/><path class="cls-2" d="M88.91,62.17,83.06,68l-3.75-3.75a2.33,2.33,0,1,0-3.3,3.3l5.4,5.4a2.34,2.34,0,0,0,3.3,0l7.5-7.5a2.33,2.33,0,1,0-3.3-3.3Z"/><path class="cls-3" d="M66.8,48.45H50.21a2.34,2.34,0,0,0,0,4.67h11.5A27.93,27.93,0,0,0,55.1,69H41.56a2.33,2.33,0,1,0,0,4.66H55.1a28,28,0,0,0,6.61,15.88H33.83a2.34,2.34,0,1,0,0,4.67h33a28.06,28.06,0,0,0,44.32-22.87c0-22.88-25.92-36-44.32-22.87ZM83.06,94.71A23.39,23.39,0,0,1,67,54.35c14.8-14.06,39.49-3.6,39.49,17A23.39,23.39,0,0,1,83.06,94.71Z"/><circle class="cls-2" cx="83.06" cy="56.1" r="2.59"/><circle class="cls-2" cx="83.06" cy="86.53" r="2.59"/><path class="cls-2" d="M98.19,68.64a2.6,2.6,0,1,0,2.59,2.59A2.6,2.6,0,0,0,98.19,68.64Z"/><circle class="cls-2" cx="67.75" cy="71.24" r="2.59"/></g></g></svg>