<svg xmlns="http://www.w3.org/2000/svg" viewBox="0 0 523.55 323.96"><defs><style>.cls-1{fill:#909091;}</style></defs><g id="Calque_2" data-name="Calque 2"><g id="Calque_1-2" data-name="Calque 1"><path class="cls-1" d="M457.46,64.84c.68-.88,1.2-1.46,1.62-2.11C468.58,48,488.67,44,503.56,50.42a29,29,0,0,1,14.37,13.91,51.44,51.44,0,0,1,5.46,23.16c.25,17.48.12,35,.14,52.43a11.18,11.18,0,0,1-.2,1.54c-2.84.86-20.47,1.08-25.9.26-.07-1.44-.22-3-.22-4.52,0-14.4.06-28.81-.06-43.22A43.72,43.72,0,0,0,496,83.7c-1.77-7-7-11.23-13.57-11.71-8-.6-13.74,2.57-16.89,9.45a35.36,35.36,0,0,0-2.8,14.82c0,13.61,0,27.21,0,40.82v4.27c-3.13,1-21.65,1.16-25.94.19v-4.22c0-14.54.08-29.08-.07-43.62a40.57,40.57,0,0,0-1.39-10.24c-1.86-6.78-6.77-10.9-12.89-11.46-7.87-.73-14.49,2.63-17.76,9-2.13,4.15-2.61,8.65-2.61,13.21q0,21.6,0,43.22v4.47H376.29V50h25.58V63.21l.63.47c5.68-11.47,15-16.51,27.38-16.13S451.34,53.83,457.46,64.84Z"/><path class="cls-1" d="M246.48,141.91H221.2c-.15-3.2-.3-6.29-.45-9.4-.51.08-.85,0-1,.17-13.11,14.46-38.92,16.19-56.4,1.61-10.77-9-16-20.79-17-34.54-.77-10.89,1.28-21.24,7-30.7,10.86-18.08,32.9-26.13,52.4-19.2a32.56,32.56,0,0,1,13.34,8.54,20.79,20.79,0,0,0,1.77,1.44V0h25.51l.27.26c.09.1.24.2.25.31.08,1.32.2,2.65.2,4Q247.07,72.76,247,141C247,141.19,246.75,141.42,246.48,141.91ZM196.69,71.79a23.77,23.77,0,0,0-23.9,23.84c-.08,13.31,10.47,24.29,23.44,24.42a24.14,24.14,0,0,0,.46-48.26Z"/><path class="cls-1" d="M359.31,104.45H291a24.15,24.15,0,0,0,.87,3.36c4,9.18,11.47,13,20.93,13.47a32,32,0,0,0,22.5-7.87c1-.84,2-1.7,2.81-2.4l15.28,14.57a28.41,28.41,0,0,1-1.92,2.69c-8.48,9.33-19.31,14-31.57,15.66a52.25,52.25,0,0,1-28.6-3.76c-15.93-7.11-24.89-19.52-27.38-36.69-1.54-10.58-.21-20.8,4.73-30.32,7.94-15.35,21-23.4,37.86-25.36a48.9,48.9,0,0,1,26.61,3.87c17.41,8.09,26.28,21.91,27.13,41,.14,3.32-.16,6.66-.31,10A8.19,8.19,0,0,1,359.31,104.45ZM333.83,87.1A16.45,16.45,0,0,0,327,74.37c-7.66-5.91-20.77-5.89-28.45,0a20.32,20.32,0,0,0-7.68,12.74Z"/><path class="cls-1" d="M86.84,211.44c.51,1.18.86,2,1.24,2.88,4.46,10,2.52,19.26-3.61,27.89A18.34,18.34,0,0,1,76,248.67c-3.33,1.29-6.54.13-7.82-2.71S68,240,71,238.17c6.3-3.76,8.82-9.42,7.18-16.16a13.08,13.08,0,0,0-6-8.37c-2.92,1.18-4.49,3.62-5.77,6.25a24.48,24.48,0,0,0-2.1,10.9q0,41.82,0,83.64a27.77,27.77,0,0,1-.19,4.38,5.72,5.72,0,0,1-11.41-.41c-.2-4-.07-8-.08-12,0-1.58,0-3.16,0-5.07h-9.6c-.09,1.45-.22,2.74-.23,4,0,4.14.08,8.28,0,12.41-.12,3.8-2.63,6.29-5.92,6.2s-5.39-2.46-5.63-6.09c-.07-1.19,0-2.4,0-3.6,0-26.81,0-53.62,0-80.44,0-4.8-.18-9.56,1.22-14.26C36.32,206.62,46.15,199,59.63,199c3.44,0,6.88.59,10.33.79a20.77,20.77,0,0,0,4.73-.21,40.79,40.79,0,0,1,17.46.42c9.83,2.6,16.39,8.82,19,18.69,2.61,10-.43,18.72-7.55,26a20.39,20.39,0,0,1-6.37,4,5.57,5.57,0,0,1-7.48-2.61,5.68,5.68,0,0,1,2.69-7.8c4.94-2.47,7.19-6.47,7.66-11.77A13.9,13.9,0,0,0,86.84,211.44Zm-29.19-.25a19.65,19.65,0,0,0-2.67.3A15.27,15.27,0,0,0,43.9,223c-1.84,7.19-.82,14.5-.93,22.07h9.75c0-4.24.16-8.2,0-12.15C52.29,225.43,53.39,218.32,57.65,211.19ZM43.11,289.41h9.31V279H43.11Zm9.31-22.36v-10H43.15c-.28,3.54-.68,6.76.24,10Z"/><path class="cls-1" d="M89.57,67.37,70.26,80.82C57.64,69.49,42.56,68.86,33,79c-8.76,9.27-8.47,25,.62,34.13,9.79,9.85,24.58,9.07,36.66-2.17L89.6,124.49c-1,1.38-1.73,2.48-2.59,3.46-10.57,12.09-24,17.3-39.9,16.29-13.93-.89-25.8-6.3-35.19-16.71-20.6-22.82-15.63-66.87,23.75-78C53,44.67,69.27,47.37,83.11,59.84a60.72,60.72,0,0,1,4.65,5A29.37,29.37,0,0,1,89.57,67.37Z"/><path class="cls-1" d="M475.68,245.9l11.9,11c-2.07,2-3.7,3.93-5.63,5.47-12.16,9.74-31.27,11.43-44.88,3.84-12.19-6.79-17.91-17.68-18.16-31.27-.33-18,9.85-32.75,28.36-37,15.33-3.55,31.32,2.29,39.57,14.51,5.6,8.29,6.85,17.44,5.19,27.64-1.49.07-3,.21-4.57.22q-21.58,0-43.19,0c-1.41,0-2.82.12-4.74.21,1.88,6.69,5.84,10.59,11.91,12.24,7.88,2.13,15,.21,21.48-4.58C474,247.36,475,246.5,475.68,245.9Zm-3-18.91c-.92-7.63-7.61-13.68-18.44-12.64-7.92.76-13.8,6.07-14.14,12.91C444.19,228.07,469.59,227.92,472.69,227Z"/><path class="cls-1" d="M358.15,268.72c-1.53.16-2.44.34-3.35.34-5.19,0-10.38,0-15.46,0-.95-2.94-1.45-62.81-.7-69.7,2.95-.95,15.5-1,19.71,0v9.2c1.79-2.11,2.85-3.61,4.15-4.85,12.39-11.79,35.14-7.59,41.12,7.92a49,49,0,0,1,3.43,17.15c.16,12.54.06,25.08.05,37.62,0,.64-.13,1.29-.24,2.35a133.87,133.87,0,0,1-19.44.1v-4.6c0-10.54,0-21.08,0-31.61a28,28,0,0,0-.67-6.34c-1.57-6.44-6-10.2-12-10.51-7.25-.38-13.24,3-15.29,9.17a30.75,30.75,0,0,0-1.27,9c-.15,10-.05,20-.05,30Z"/><path class="cls-1" d="M212.12,219.84H194c-2.24-5.84-5.48-8-10.87-6.9a9.63,9.63,0,0,0-4.23,2c-2.68,2.32-2.36,5.87.66,7.75a18.72,18.72,0,0,0,4.78,2c4.23,1.2,8.54,2.11,12.74,3.41,5.54,1.72,10.72,4.16,14,9.34,6,9.47,3.84,20.74-5.26,27.26-6.79,4.86-14.55,6.48-22.74,6.14a32.5,32.5,0,0,1-17-5.25,21.68,21.68,0,0,1-9.7-13.66c-.3-1.38-.33-2.82-.52-4.51h17.84c3.39,7.36,9.15,9.93,16.09,7.09a9.72,9.72,0,0,0,3.29-2.17c2.59-2.69,2-6.26-1.29-8a29.73,29.73,0,0,0-5.65-2c-3.08-.85-6.28-1.33-9.28-2.39a76.46,76.46,0,0,1-10.24-4.4c-11.18-5.84-13.45-23.44-1.59-32.38a32,32,0,0,1,19.82-6.33,33.84,33.84,0,0,1,17.26,4.3,20.19,20.19,0,0,1,10.45,16.52,4.82,4.82,0,0,1,0,1.2A3.75,3.75,0,0,1,212.12,219.84Z"/><path class="cls-1" d="M290.69,212.29,276.25,222.4c-11-8.68-21.84-8.92-29-.82a19.25,19.25,0,0,0,.88,25.84c7.54,7.42,18.32,6.92,28-1.68l14.11,9.85c-5.81,10.76-21.31,17.73-37.11,14.55-14.85-3-29.48-13.85-30.6-35.15-.94-18.13,10.72-31.25,25.53-36C265.6,193.3,282.82,199.86,290.69,212.29Z"/><path class="cls-1" d="M104.17,50h25.1l.27.27c.08.1.21.2.23.31a8.48,8.48,0,0,1,.23,1.58q0,43.61,0,87.23a7.73,7.73,0,0,1-.18,1.58,3.71,3.71,0,0,1-.52.92H104.17Z"/><path class="cls-1" d="M321.45,199.2v69.58H302.16V199.32C305,198.46,317.44,198.34,321.45,199.2Z"/><path class="cls-1" d="M123.86,198.85h19.37c.25,23.31-.23,46.41-.06,69.41-3.29,1-14.46,1.15-19.31.28Z"/><path class="cls-1" d="M116.94,2.83c7.6,0,13.9,4.43,15.81,11.12,3,10.44-5.52,20.56-16.68,19.89-8.43-.5-15.13-6.72-15.55-14.41C100,9.91,107,2.82,116.94,2.83Z"/><path class="cls-1" d="M145.83,174.46c.06,6.62-5.41,11.89-12.37,11.93a12.34,12.34,0,0,1-12.71-12.15c-.09-6.15,5.63-11.36,12.51-11.41C140.41,162.79,145.77,167.74,145.83,174.46Z"/><path class="cls-1" d="M311.73,162.83c6.95,0,12.53,5.08,12.46,11.33a12.07,12.07,0,0,1-12.49,12.23c-7,0-12.41-5.19-12.41-11.85S304.57,162.82,311.73,162.83Z"/></g></g></svg>