<svg xmlns="http://www.w3.org/2000/svg" viewBox="0 0 572.58 331.52"><defs><style>.cls-1{fill:#909091;}</style></defs><g id="Calque_2" data-name="Calque 2"><g id="Calque_1-2" data-name="Calque 1"><path class="cls-1" d="M93.05,110.05c-4.53-1.82-8.59-3.76-12.84-5.1-11.66-3.68-23.29-4.59-34.26,2.21-9.83,6.09-13.86,18.37-10.36,30.78,2.72,9.64,12.45,16.56,23.55,16.73,3,0,5.92,0,9.17,0V143.19H56.75V122.57h38V174.9c-7.67,1.17-15.42,2.65-23.24,3.46-9.61,1-19.28,1.44-28.88-.38-16.25-3.07-29.44-10.65-37.18-25.85-13.69-26.86-.58-58.9,28.14-68.61C52.87,77,72,78.17,91,85.18c.83.31,2,1.32,2,2C93.11,94.75,93.05,102.29,93.05,110.05Z"/><path class="cls-1" d="M392.56,331.52H362.84V224.11h29.57v6.34a19.82,19.82,0,0,0,2.23-1.22c18.31-13.86,44.74-5.21,51.87,18.31,3.55,11.72,2.82,23.25-3.05,34.14-7,12.92-22,20.37-37.21,18.56-4.53-.54-9-1.58-13.69-2.43v33.71Zm0-70.12h0v4c0,9.17.44,9.79,9.7,10.32,5.68.33,10.75-1.31,13.94-6.41a15.48,15.48,0,0,0,.65-15.7c-3.41-6.94-12.76-9.34-21.07-5.87-2.31,1-3.54,2.07-3.27,4.81C392.79,255.45,392.57,258.43,392.57,261.4Z"/><path class="cls-1" d="M546,131.66l-42.45-30.93L460.64,132c5.17-15.79,10.06-30.95,15.12-46.07,1-3,1.21-4.81-1.93-7-13.19-9.15-26.09-18.71-39.6-28.48h9c13.64,0,27.27,0,40.91.18,2.52,0,3.4-1,4.08-3.12,4.93-15.53,9.94-31,15.22-47.5,1.66,5,3.09,9.09,4.43,13.24C511.64,24.82,515.41,36.38,519,48c.74,2.43,2.17,2.55,4.15,2.54q24.07-.13,48.16-.17a8.14,8.14,0,0,1,1.3.28L543.14,72c-3.74,2.7-7.44,5.44-11.26,8-2,1.31-1.55,2.79-1,4.56q7.64,22.9,15.19,45.82A4.65,4.65,0,0,1,546,131.66Z"/><path class="cls-1" d="M37.81,278.52H77v20.57H4V202.37h72.3v20.32H37.83v16.9H73v20.66H37.81Z"/><path class="cls-1" d="M181.35,278.89c-2.46,6.49-4.79,12.74-7.24,18.94a2.62,2.62,0,0,1-1.85,1.44c-6.21.24-12.48.85-18.64.32-6.5-.56-10.05-5.26-11.9-11.58-1.77,1.68-3.24,3.25-4.88,4.61-9.92,8.25-21.06,10.19-32.9,5.24-9.08-3.8-13-11.91-13.28-21.14-.51-17.43-.15-34.88-.15-52.57H120.1v4.55q0,17.48,0,34.95a26.4,26.4,0,0,0,.33,4.26c1.29,7.42,8.36,10.39,14.51,6,3.46-2.47,5.75-5.32,5.59-10.3-.44-13.05-.15-26.13-.15-39.45H170.1c.05,1.08.15,2.24.15,3.41,0,14.28,0,28.57,0,42.85a15.79,15.79,0,0,0,.35,3.9c1,3.81,3,5.24,6.93,5C178.73,279.29,179.9,279.07,181.35,278.89Z"/><path class="cls-1" d="M349.18,261.79c.31,18.35-12.1,33.92-32.47,37.56-11.23,2-22.36,1.57-33-2.92-12.93-5.47-20.5-15.18-22.62-29.22-3.59-23.74,13.24-42,35.85-44a68.26,68.26,0,0,1,25.36,2A36.65,36.65,0,0,1,349.18,261.79Zm-29.81-.41c0-8.28-6-14.2-14.41-14.21s-14.6,6.1-14.57,14.46,6,14.08,14.48,14.09C313.61,275.72,319.4,270,319.37,261.38Z"/><path class="cls-1" d="M181.77,152c1.56,3.52,3.28,7,4.65,10.69.3.78-.37,2.26-1,3-7.08,7.76-16.25,11.58-26.42,12.63s-20,.23-29.12-4.83c-14.27-7.93-21-20.32-20.24-36.43a37.07,37.07,0,0,1,25.56-33.86c20.23-6.73,40.79,2.09,48.43,20.91a38.45,38.45,0,0,1,2.34,21.43H137.26a11.83,11.83,0,0,0,4.78,9c8.27,6.76,17.58,6.74,27.06,3.44C173.39,156.55,177.37,154.13,181.77,152ZM136,134h25.53c-.42-5.59-.74-11.09-5.91-14.35a12.44,12.44,0,0,0-13.72,0C136.74,122.82,135.67,128,136,134Z"/><path class="cls-1" d="M535.68,267H486.12c1.48,2.92,2.25,5.6,3.91,7.5,5.07,5.77,11.87,7.8,19.3,7.14a44.93,44.93,0,0,0,11.44-2.74c3.56-1.31,6.82-3.43,10.63-5.4,1.61,3.63,3.39,7.33,4.82,11.17.28.73-.62,2.21-1.36,2.95-9.9,9.94-22.21,13.28-35.8,12.64-11.48-.54-21.84-4.18-29.72-12.89-9.95-11-12.56-23.94-8.31-38s14.22-22.82,28.53-25.85c18.49-3.92,36.05,4.73,43.19,20.89C535.9,251.54,536.63,258.93,535.68,267ZM486,255.32h25.23c-.86-11.38-5.74-16.82-13.84-15.83C489,240.5,484.52,246.82,486,255.32Z"/><path class="cls-1" d="M276.37,121.2H263.19c0-2.94-.14-5.55.08-8.14a4.68,4.68,0,0,1,1.62-2.65c11-9.75,22-19.58,33.23-29,1.77-1.48,5-1.21,8-1.82v22.51h23.68v19.06H306.59c0,8.78-.34,17.21.13,25.59.27,4.62,3.23,6.94,7.88,6.47,4.16-.43,8.24-1.92,12.3-3.14a29.11,29.11,0,0,0,4.66-2.42c.12,1.14.27,1.94.27,2.74,0,4.4-.47,8.86.13,13.17.78,5.72-1.8,8.63-6.59,10.8-11.91,5.41-23.95,6-36.08,1.12-9.51-3.85-12.76-11.8-12.87-21.41-.1-9.23,0-18.46-.05-27.69Z"/><path class="cls-1" d="M197.14,150.16c4.4,2.59,8.05,5.36,12.16,7A53.32,53.32,0,0,0,222,159.9c2.88.37,5.52-.86,6.47-4s-1-5-3.46-6.35c-3.66-2-7.47-3.67-11.2-5.51-4.95-2.45-9.77-5.13-13.05-9.77a19.82,19.82,0,0,1,9.43-30c14.52-5.64,29-4.26,43.08,2.27a2.7,2.7,0,0,1,1.38,1.88c.1,6,.06,12.05.06,18.3-4.26-1.92-8.1-4-12.19-5.4a35.5,35.5,0,0,0-9.64-1.53c-2.66-.11-5,1.17-5.62,4.1-.55,2.74,1.28,4.41,3.45,5.39,4,1.79,8.16,3.19,12.17,4.94a26.42,26.42,0,0,1,12.29,10.1,21.12,21.12,0,0,1-6.56,29.42,29.66,29.66,0,0,1-15.22,4.71c-10.87.45-21.45-.74-31.66-4.79-3.37-1.34-5-3.1-4.67-7C197.45,161.37,197.14,156,197.14,150.16Z"/><path class="cls-1" d="M248.39,257.52c-4.46-1.83-8.29-4-12.4-4.93-4.49-1-8,1.69-10.52,5.33a21.63,21.63,0,0,0-4,13c.12,9.32,0,18.64,0,28.21H191.81v-75h26.56v19.21c2.16-3.79,3.73-7.15,5.83-10.14,6.85-9.76,16.09-12.74,27.36-9.1,10.08,3.24,10.08,3.24,5.92,12.7C254.35,243.93,251.23,251,248.39,257.52Z"/><path class="cls-1" d="M342,118.55c.82-1,1.45-2.24,2.48-2.81a14.89,14.89,0,0,0,7.71-10.12c.33-1.47.52-2.87-1.56-3.66-5.26-2-7.39-5.58-7-11.2a13,13,0,0,1,8.78-11.22c7.79-2.28,15.18,2.16,17.24,10.35a23.24,23.24,0,0,1-13.91,26.81c-4.09,1.57-8.54,2.19-12.83,3.24Z"/><path class="cls-1" d="M555,227.09c-1.7-2.12-3.18-4-5.2-6.47,0,4,.12,7.17-.07,10.37-.05.89-1,1.73-1.54,2.6-.43-.84-1.23-1.67-1.25-2.52-.12-4.91-.06-9.84-.06-15,4.78,0,5,4.82,8.18,6.45,2.88-1.43,3.49-6.07,8-6.6,0,5.72,0,11,0,16.21,0,.5-.82,1-1.25,1.48-.52-.53-1.47-1-1.5-1.59-.14-3.39-.07-6.8-.07-11.11C558.21,223.26,556.7,225.05,555,227.09Z"/><path class="cls-1" d="M538.92,218.75c0,4.35.09,8.27-.07,12.19,0,.89-.94,1.75-1.45,2.63-.46-.84-1.28-1.66-1.31-2.51-.14-3.93-.06-7.86-.06-12.31a29.45,29.45,0,0,1-4.17-.06c-.53-.08-1-.83-1.42-1.28.48-.44.95-1.25,1.44-1.26q5.76-.17,11.52,0c.47,0,.92.91,1.38,1.4-.52.4-1,1.06-1.58,1.15A31.94,31.94,0,0,1,538.92,218.75Z"/></g></g></svg>