<svg xmlns="http://www.w3.org/2000/svg" viewBox="0 0 725.06 216.18"><defs><style>.cls-1{fill:#909091;}</style></defs><g id="Calque_2" data-name="Calque 2"><g id="Calque_1-2" data-name="Calque 1"><path class="cls-1" d="M29.57,152.26v63.92H0V57.83H29.6v12c.47-.17.75-.18.87-.32,9.29-10.84,21.46-14.88,35.26-14.45,24,.75,44.05,18,48.85,42.15,3.61,18.11,1,35.11-10.53,50.06-14.55,18.94-41.44,25.14-61.93,14.15C37.63,159,33.8,155.4,29.57,152.26ZM58.21,139c15.21,0,27.22-12.37,27.23-28S73.31,82.85,58.27,82.83a27.94,27.94,0,0,0-27.7,28.25C30.62,126.2,43.28,139,58.21,139Z"/><path class="cls-1" d="M219.52,71.35V57.85h29.8v106H219.65V149.32c-.8.85-1.13,1.16-1.41,1.51-9.57,11.79-22.14,16.63-37.06,15.86-24.53-1.27-43-19.36-47-44.37-2-12.45-1-24.59,3.79-36.29,8.24-20.16,27-32,49.18-31C200.05,55.62,210.94,60.33,219.52,71.35ZM191,139c15,.1,27.51-12.4,27.75-27.75S206.51,83,191.36,82.83c-15.45-.13-27.38,12-27.47,27.94C163.81,126.38,175.79,138.85,191,139Z"/><path class="cls-1" d="M419.39,70.74V57.84H449v106H419.48V149.26c-.84.89-1.27,1.3-1.64,1.75-9.38,11.42-21.65,16.37-36.17,15.73-27.08-1.21-44.82-21.38-48-46.16-1.63-12.83-.39-25.29,5.17-37.1C352,55.49,383.21,50,403.29,58.67A43.81,43.81,0,0,1,419.39,70.74ZM390.61,139c14.91.15,27.59-12.37,27.77-27.41.18-15.75-11.94-28.54-27.21-28.71s-27.52,12-27.65,27.84C363.38,126.15,375.51,138.8,390.61,139Z"/><path class="cls-1" d="M651,163.91H621.26V57.9h29.6V74.1c.5-.37.74-.46.82-.62,5.93-11.84,16.21-17.22,28.74-18.26,13.37-1.11,25.3,2.56,34.14,13.4,5.62,6.9,8.37,15.07,9.46,23.75a138.89,138.89,0,0,1,1,16.31c.12,17.38,0,34.75,0,52.13v3.09H695V161c0-17.8,0-35.59,0-53.39a35.87,35.87,0,0,0-.91-8.47c-3.25-13-14.83-18.91-28-14.51-9.15,3-14.87,10.94-15,21.36-.16,18.21-.06,36.43-.08,54.65Z"/><path class="cls-1" d="M489.47,80.84H470.3v-23h19V19.07h30V57.68h22.33V80.84H519.45v83h-30Z"/><path class="cls-1" d="M309.15,163.9H279.56V0h29.59Z"/><path class="cls-1" d="M590.91,164H561.44V57.87h29.47Z"/><path class="cls-1" d="M576.16,3.26c10.57,0,18.9,8,18.77,17.91s-8.57,18-19.15,17.88c-10.28-.09-18.84-8.38-18.72-18.14S565.62,3.21,576.16,3.26Z"/><path class="cls-1" d="M318.6,213.42h-4.55c0-3.73,0-7.4,0-11.07a26.74,26.74,0,0,0-.15-4c-.53-3.42-2.44-5.24-5.36-5.28-3.32-.06-6.07,1.84-6.51,5.08a93.62,93.62,0,0,0-.38,9.78c0,1.75,0,3.5,0,5.44H297.2v-24h4.22c.11.74.22,1.53.39,2.73,2.38-2.35,5-3.66,8.29-3.44s5.63,1.86,7.37,4.82c2.23-3.11,4.93-4.93,8.73-4.84,5,.12,8.65,3,9,8,.35,5.49.08,11,.08,16.74H331c-.05-1-.12-2.08-.13-3.13,0-3.77.05-7.55-.1-11.32-.13-3.47-2.09-5.58-5.07-5.83-3.51-.3-5.75,1.24-6.65,4.74a16,16,0,0,0-.42,3.72C318.57,205.39,318.6,209.24,318.6,213.42Z"/><path class="cls-1" d="M271.68,193.42c2.12-3.12,4.78-4.87,8.49-4.81,5,.06,8.63,2.67,9,7.6.47,5.64.11,11.35.11,17.18H285v-4.94c0-3.19.06-6.38-.05-9.56s-2-5.45-4.85-5.78c-3.53-.41-5.86,1-6.81,4.48a15.84,15.84,0,0,0-.47,4c-.06,3.84,0,7.69,0,11.77h-4.57c0-3.55,0-7.13,0-10.71a33.79,33.79,0,0,0-.07-3.77c-.42-3.61-2.28-5.63-5.18-5.78-3.52-.18-6.3,1.76-6.81,5.32a79.47,79.47,0,0,0-.37,9.27c0,1.84,0,3.67,0,5.7h-4.39v-24h4.25l.28,2.55C262.63,187.07,267.34,187.48,271.68,193.42Z"/><path class="cls-1" d="M373.24,176.14h4.39v16.49c3.27-3.63,7.12-4.82,11.16-3.72a15.19,15.19,0,0,1,6.89,4.17c4.22,4.58,3.78,12.69-.47,17.31-4.39,4.77-10.44,4.91-17.48.29-.07.89-.13,1.69-.2,2.68h-4.29Zm20.64,25.18c0-4.71-3.39-8.39-7.83-8.47a8.53,8.53,0,0,0-8.41,8.58,8.33,8.33,0,0,0,8.23,8.42C390.42,209.86,393.88,206.18,393.88,201.32Z"/><path class="cls-1" d="M464.76,203.31H445.59c-.6,3.78,3.87,7.58,9.53,6.34a6,6,0,0,0,3.31-1.64c1.79-2.27,3.46-1.6,5.3-.32-1.61,4.94-8.45,7.77-14.52,6-6.5-1.89-10.17-8.89-8.34-15.89a12.33,12.33,0,0,1,15-9C462.14,190.31,466,196.44,464.76,203.31Zm-19.3-4.06h14.67c-.21-3.71-2.82-6.13-6.77-6.4C449.26,192.58,446.21,195,445.46,199.25Z"/><path class="cls-1" d="M354,188.62c7.46,0,12.95,5.39,12.94,12.76a12.8,12.8,0,1,1-25.59,0A12.35,12.35,0,0,1,354,188.62Zm0,21.23a8.26,8.26,0,0,0,8.36-8.52,8.22,8.22,0,1,0-16.43,0A8.2,8.2,0,0,0,354,209.85Z"/><path class="cls-1" d="M417.43,176.14h4.27v37.2h-4.27Z"/><path class="cls-1" d="M486.94,189.45c-.28,1.49-.53,2.78-.77,4.07-6.51-1.13-9.13.66-9.93,7.24-.5,4.13-.43,8.33-.62,12.64h-4.18V189.31h4.22v3.63l.43.65C478.35,188.46,482.06,187.73,486.94,189.45Z"/><path class="cls-1" d="M239,189.26h4.2v24.05H239Z"/><path class="cls-1" d="M409.16,213.41H405v-24.1h4.18Z"/><path class="cls-1" d="M429.79,189.27H434v24h-4.18Z"/><path class="cls-1" d="M410.29,180.56a2.88,2.88,0,0,1-3.08,2.64,3,3,0,0,1-3.33-3,3.08,3.08,0,0,1,3.11-3A3.16,3.16,0,0,1,410.29,180.56Z"/><path class="cls-1" d="M244.27,180.35a3,3,0,0,1-3.4,2.85,2.76,2.76,0,0,1-2.88-3.08c0-2,1.35-2.8,3.1-2.92A3.08,3.08,0,0,1,244.27,180.35Z"/><path class="cls-1" d="M431.48,183.2a2.73,2.73,0,0,1-2.7-2.87A3,3,0,0,1,432,177.2c1.73.14,3,1,3.1,2.93C435.12,182,433.82,183.21,431.48,183.2Z"/></g></g></svg>