<svg xmlns="http://www.w3.org/2000/svg" viewBox="0 0 893.49 279.23"><defs><style>.cls-1{fill:#909091;}</style></defs><g id="Calque_2" data-name="Calque 2"><g id="Calque_1-2" data-name="Calque 1"><path class="cls-1" d="M0,58.55c1.28-4,4.26-5.74,8-7.53A240.84,240.84,0,0,0,32.24,37.4C47.23,27.8,62,17.84,78.4,10.68,99.89,1.32,122.36-1,145.51.36,174.06,2,198.6,14.06,222,29.31c8.82,5.76,17.65,11.49,26.63,17a63.13,63.13,0,0,0,11,5.12c4.43,1.64,6.94,4.46,6.89,9.21-.11,10.56.07,21.14-.59,31.66-.7,11.31-1.8,22.63-3.46,33.83-5.15,34.6-15.93,67-38.06,94.82-16,20.06-36.05,34.88-59,45.92-8.9,4.28-18.1,8-27.33,11.54a13.44,13.44,0,0,1-8.54.28c-24.69-8.7-47.87-20.26-67.83-37.54C40.73,223,26.11,200.57,16.46,174.77A222.93,222.93,0,0,1,3.66,121.9C2.28,109.83,1.55,97.69.51,85.58.42,84.49.17,83.4,0,82.31Zm72.86,169.7c.54-.87.89-1.36,1.17-1.89a206,206,0,0,1,56-67.25q50.52-39.51,114.59-43.83c1.82-.13,2.5-.69,2.6-2.46.76-13.66,1.47-27.33,2.46-41,.3-4.24-1-6.3-4.95-8.49-11.2-6.27-22-13.3-32.78-20.25-20.36-13.08-41.55-24-66.25-25.63-15.31-1-30.54-.65-45.47,3.61-17,4.85-32.15,13.51-47,22.88C41.72,51.24,30,58.16,18.37,65.38c-.81.5-1.26,2.14-1.26,3.26C17,92.4,18.77,116,23.78,139.28c4.77,22.21,12.47,43.26,25.28,62.21A136.85,136.85,0,0,0,72.86,228.25Zm96.79-5.08.62.06c2.25-8.67,4.44-17.36,6.83-26a4.54,4.54,0,0,1,2.59-2.65c3.24-1.07,6.62-1.74,9.94-2.6,5.34-1.37,10.67-2.77,16.87-4.39-1.83-.54-2.73-.84-3.65-1.08-7.81-2-15.63-4-23.4-6.14a3.83,3.83,0,0,1-2.26-2.2c-1.16-3.76-2.05-7.59-3-11.4q-2-7.42-3.89-14.84a242.4,242.4,0,0,0-6.83,24.29c-.69,3.09-2.16,4.2-5,4.87-8.08,1.88-16.09,4.07-24.77,6.3,1.21.48,1.74.76,2.31.91,7.8,2,15.57,4.2,23.43,6,2.52.57,3.34,1.75,3.9,4.06C165.28,206.65,167.51,214.9,169.65,223.17ZM122.83,204.7h-.6c-1.16,4.56-2.4,9.1-3.46,13.68-.48,2.05-1.26,3.22-3.59,3.69-4.65.93-9.2,2.36-13.79,3.58a79.51,79.51,0,0,0,13.38,4c2.63.51,3.54,1.81,4.07,4.23,1,4.48,2.29,8.89,3.46,13.33,1.78-4.88,2.94-9.74,4.4-14.52a5.69,5.69,0,0,1,2.59-2.71c1-.59,2.32-.57,3.49-.88,3.69-1,7.37-2,11.05-3-5-1.76-9.86-2.92-14.68-4.35a4.28,4.28,0,0,1-2.44-2.49C125.27,214.46,124.1,209.57,122.83,204.7Zm91.76-72.47-.61,0c-1.26,4.78-2.63,9.53-3.72,14.34a3.27,3.27,0,0,1-2.94,2.84c-4.78,1.12-9.51,2.47-14.26,3.73a118.71,118.71,0,0,0,14,4.12,3.78,3.78,0,0,1,3.28,3.28c1,4.71,2.38,9.34,3.61,14a44.14,44.14,0,0,0,3.32-10.78c.65-4.49,2.69-6.76,7.33-7.32,3.68-.44,7.24-1.84,10.86-2.82a99.19,99.19,0,0,0-14.15-4.15c-2.12-.43-2.8-1.53-3.23-3.31C217,141.54,215.77,136.89,214.59,132.23Z"/><path class="cls-1" d="M322.25,50.54c9.69,0,19.39.22,29.07-.08,4.25-.12,5.71,1.36,6.43,5.49,3.18,18.39,6.71,36.71,10.18,55.05.22,1.15,1,2.2,1.8,4.06,5.46-20,10.79-39.17,15.87-58.4,1.17-4.44,2.87-6.55,8-6.25,9.21.53,18.48.15,27.9.15,5.92,21.3,11.74,42.2,17.56,63.1l1.38.08q6-31.44,12.07-63H486.4c-8.59,39.05-17.11,77.83-25.72,117H425.21q-10-36-20-71.76L404,95.86c-6.7,24-13.41,48.07-20.17,72.3-10.69,0-21-.14-31.3.08-3.75.07-4.38-1.91-5-4.9q-11.91-54.34-24-108.65a18.75,18.75,0,0,0-1.18-2.88Z"/><path class="cls-1" d="M505.54,255.46c-18.59-7.18-26.42-23.7-20.07-42.33,3.87-11.36,12.93-18.17,24.43-18.36,12.09-.2,20.81,6.14,25.07,18.13a36.5,36.5,0,0,1,.19,24c-3.13,9.81-10,15.54-19.51,18.54Zm24-30.16a30.38,30.38,0,0,0,0-5.05c-1.34-7.75-4.14-14.69-12.1-17.87-6.78-2.72-13.64-2.06-18.87,3-7.37,7-9.15,16.13-7,26.09,2.52,11.83,9.09,17.93,19.39,17.71C522.3,248.88,529.63,239.57,529.54,225.3Z"/><path class="cls-1" d="M637,255.46c-18.48-8.22-25.89-25.36-18.82-43.52,4.51-11.59,14.83-18.24,26.56-17.12,12.52,1.2,22.45,9.75,23.54,22.39a68,68,0,0,1-2.57,23.35c-2.26,8.21-9.79,12-17.33,14.9ZM623.14,225c0,1.27-.1,2.54,0,3.79,1,10.3,7.15,18.26,15.48,20.06a17.92,17.92,0,0,0,20.08-9.54c5.13-9.65,4.76-19.43-.25-29A18,18,0,0,0,632.42,204C625.28,209.08,623.26,216.72,623.14,225Z"/><path class="cls-1" d="M865.79,255.46c-3.68-1.84-8.2-2.91-10.82-5.74-3.29-3.56-5-8.58-8-14l7.43-.59c3.23,13,13.88,16.71,25.32,12.33,2.75-1.06,5-5.19,6.07-8.38,1.36-4.18-1.42-7.4-5.37-8.73-5.93-2-12.05-3.4-18-5.25-9-2.79-11.91-6.3-11.84-13.91S854.79,198.4,863,196c14.45-4.2,25,1.75,27.86,16-3.56,1-6.12,1.59-8-3.32-3.15-8.2-16-10.5-22.5-4.59-5.07,4.6-3.42,11.89,3.67,14.35,6.3,2.19,13,3.3,19.28,5.46s10.08,6.93,10.15,13.74c.06,6.57-2.73,11.79-9,14.64-2.42,1.1-4.89,2.11-7.33,3.15Z"/><path class="cls-1" d="M322.25,252.93c6.75-17.27,13.61-34.49,20.14-51.84,1.38-3.66,3-5.94,7.08-4.93,1.36.34,3.19,1.3,3.63,2.44,7.07,18.27,13.95,36.62,20.89,55-5.84,1.9-8.36-.37-10-5.5-3.73-11.66-3.93-11.59-16.05-11.59h-.63c-11.12,0-11.51-.12-14.81,10.75-1.73,5.71-4.59,7.94-10.25,7ZM357.7,230c-3.08-8.93-6-17.48-9.5-27.5-3.5,10.06-6.47,18.6-9.56,27.5Z"/><path class="cls-1" d="M398.1,255.46c-13.93-5.54-16.52-9.45-16.52-25.09,0-10.75.05-21.5.09-32.25a8.11,8.11,0,0,1,.48-1.66l6.12-.46c0,5.6-.1,10.79,0,16,.2,8.62,0,17.3,1,25.84.9,7.9,6.63,11.56,15.51,11.33,8.08-.21,12.85-3.94,13.55-12,.76-8.79.6-17.67.76-26.51.09-4.6,0-9.2,0-14.18l5.94-.41a7.2,7.2,0,0,1,.77,2c.05,12.65.22,25.3,0,37.94-.17,10.78-6.52,16.68-16.39,19.44Z"/><path class="cls-1" d="M873.5,50.56C860,64.62,847.78,77.65,835.17,90.31c-3.44,3.45-3.88,5.79-1.24,10,13.79,22.07,27.22,44.35,41.56,67.84h-8.68c-10.32,0-20.63-.17-30.94.1-3.7.09-5.49-1.23-7.09-4.47-6.32-12.8-13-25.43-19.5-38.12-.94-1.82-1.93-3.62-3.22-6-5.94,6.28-11.56,11.93-16.78,17.94-1.3,1.51-1.74,4.15-1.79,6.3-.21,7.77-.08,15.55-.08,23.8H751.62V51h35.55V94.42a45.18,45.18,0,0,0,3.65-3.28c10.28-12,20.63-23.89,30.73-36a11.59,11.59,0,0,1,10.16-4.67C845.13,50.76,858.56,50.56,873.5,50.56Z"/><path class="cls-1" d="M576.87,167.74c-.47-1.27-1-2.59-1.48-4-4.73-15.17-4.73-15.17-20.82-15.17-7,0-13.93-.31-20.84.2-1.94.15-4.52,2.35-5.4,4.26-2.17,4.68-2.15,11.65-5.58,14.13s-10.09.89-15.33,1c-6.51.07-13,0-20.44,0,2.1-5.66,3.95-10.7,5.84-15.73C504.9,120.25,517.05,88.09,529,55.86c1.44-3.89,3.06-5.62,7.52-5.43,9.88.41,19.8,0,29.69.27,1.76,0,4.5,1.55,5.07,3,14.43,37.76,28.63,75.61,43.07,114Zm-39.65-44.53H563.3l-13-42.57Z"/><path class="cls-1" d="M732,85l-31.11,7c-1.73-3-3.09-6.09-5.12-8.65-5.93-7.46-14.09-9-22.77-6.92-10,2.38-15.53,9.91-16.46,19.43a124.72,124.72,0,0,0,.75,30c1.58,10.81,8.31,16.35,17.37,17,12.69.94,19.61-2.94,24.19-13.68,1.14-2.69,2-5.51,3.13-8.76l30.8,9.33c-5.08,24.32-21.22,38.49-45,39.78-19.23,1-38,.3-52.56-15.12-9.36-9.88-14.16-21.8-15.52-35-1.28-12.64-.76-25.31,3.85-37.33,7.73-20.14,23.29-30.73,44.09-32.45a108.83,108.83,0,0,1,33.65,2.57C717.77,56.11,726.4,69,732,85Z"/><path class="cls-1" d="M576.25,245.21c5.52-15,10.82-28,15-41.36,2.13-6.85,5.36-9.33,12.5-7.17V253.8h-6v-45l-1.47-.51c-.73,1.68-1.56,3.32-2.18,5-4.35,12-8.53,24.08-13.09,36-.73,1.9-3,4.4-4.66,4.42s-4-2.47-4.71-4.35c-4.52-11.72-8.67-23.59-13-35.4a12,12,0,0,0-3.28-5.32v44.87h-6.56V196.89c9.32-1.79,9.31-1.79,12.29,6.48C565.93,216.71,570.77,230.05,576.25,245.21Z"/><path class="cls-1" d="M681.2,254.13V196.71c9.8,0,19.21-.23,28.6.08,5.81.19,10.12,3.55,11.5,9.15,1.46,5.93.85,11.79-4.83,15.82-.62.44-1.18,1-1.82,1.5,8.79,5.26,11.34,10.39,9.36,18.58-1.81,7.52-8.35,12.14-17.66,12.27C698.18,254.22,690,254.13,681.2,254.13Zm6.74-6.32c7,0,13.35.26,19.63-.07,6.08-.32,9.65-4.37,9.78-10.25.12-5.41-3-9.37-8.64-9.71-6.84-.42-13.72-.1-20.77-.1Zm-.07-26.23c7.16-.38,13.81-.39,20.36-1.18,5-.61,6.8-4.6,6.69-9.21-.1-4.83-2.91-8.12-7.62-8.49-6.37-.5-12.8-.13-19.43-.13Z"/><path class="cls-1" d="M803,196.38h37.27c.09,1.91.16,3.53.27,5.79h-30.8v19H838v6.25h-28.3v20.26H840.3v6.13H803Z"/><path class="cls-1" d="M478.69,196.08v6H460.36v51.6h-7.53V202.41H435c-.55-3.42-1.83-6.39,3.23-6.36C451.49,196.14,464.71,196.08,478.69,196.08Z"/><path class="cls-1" d="M757.53,196.28h6.91V247.8h29.07v5.89h-36Z"/><path class="cls-1" d="M743,253.88c-1.24.09-2.25.22-3.25.21a26,26,0,0,1-2.67-.33V196.45l5.92-.38Z"/><path class="cls-1" d="M133.72,52.44c3.84-1.8,8.09-3.39,11.91-5.69,5.51-3.32,5.31-5.92-.43-9-1.59-.84-3.52-1-5.92-1.72l2.11,7c-4.14-.59-7.87-1.57-11.6-1.55-7.23,0-14.66-.26-21.65,1.22A63.15,63.15,0,0,0,80.85,56c-2.47,2-5.51,3.37-8.25,5.08a15.5,15.5,0,0,0-3.43,2.46c-1.71,1.88-1.34,3.33,1.07,4.26,2.8,1.09,5.72,1.89,8.54,2.93a22.55,22.55,0,0,1,3,1.6l-.05,1c-1.86.53-3.69,1.14-5.57,1.59-5,1.2-5.42,1.8-5.56,6.9,0,.77-.74,2.14-1.24,2.19a76.86,76.86,0,0,1-9.71.41c-.81,0-1.6-1.13-2.4-1.74a17.21,17.21,0,0,1,2.5-1c1.55-.35,3.14-.52,4.71-.77-.7-4.54-2.78-6.24-6.65-4.81a42.6,42.6,0,0,0-10.36,5.41c-3.23,2.36-2.75,5.62.87,7.48,2.26,1.17,4.9,1.61,7.51,2.42a1.81,1.81,0,0,1-.51.79c-4.5,3.33-3.9,9.54,1.3,11.9,2.75,1.24,5.67,2.1,8.5,3.17,7.66,2.91,12,14.37,8.18,21.5a3,3,0,0,1-1.57,1c-.33.12-.79-.1-1.18-.21-2.5-.69-4.94-.41-6.51,1.67-1,1.33,1.49,6.3,3.29,7.4,2,1.25,4.25.63,5.85-1.34,3-3.76,6.11-7.52,9.39-11.07,1.64-1.78,2.73-3.57,2.29-6C84,115.55,83,110.83,82,106.12c-.3-1.45-.79-2.86-1.37-4.89.91.57,1.34.68,1.51,1,3.72,5.89,7.7,11.65,11,17.75,2.75,5,1.91,6.73-3,9.5A35.53,35.53,0,0,0,73.71,150c-.72,2.19-2,3.06-3.73,1.67-3.29-2.65-6.79-5.28-9.33-8.59-2.95-3.87-5.13-8.38-7.32-12.77-1.16-2.31.17-3.15,2.65-3.69a64,64,0,0,0,11-3.79,3,3,0,0,0,.9-2.81,43.72,43.72,0,0,0-5.55-8.49c-2.12-2.31-4.17-1.47-5.09,1.56a18.77,18.77,0,0,0-.54,2.36c-.12.79-.14,1.6-.28,3.36-1.29-1.33-2.32-2-2.82-3-1.58-3-2.82-6.14-6.23-7.91-1.19-.61-1.7-2.83-2.19-4.41A13,13,0,0,1,44.62,99c.15-2.48-1.09-3.92-2.94-5.24-2.09-1.5-4-3.2-6.21-5C40.86,82,46.07,76,54,72.73a9.18,9.18,0,0,0,4.87-5.28C60.61,60.75,64.74,55.89,70,52s10-8.15,12.77-14.31c.8-1.75,3.08-3.32,5-4a137.31,137.31,0,0,1,37.05-7.27c6.52-.32,13.11.82,19.67,1.27,7.48.51,14.32,3.16,20.92,6.48a2.91,2.91,0,0,1,1.23,2.37,4.49,4.49,0,0,1-1.44,2.57,58.64,58.64,0,0,1-17.86,12.36A20.48,20.48,0,0,1,133.72,52.44Z"/><path class="cls-1" d="M88.29,142.71a36.43,36.43,0,0,1-1.75,4.34c-2.39,4.33-5.27,8.46-5.24,13.71v2.88c1.32-.51,2.78-.61,3.17-1.31,2.68-4.83,7.21-7.58,11.5-10.61,1.73-1.23,3.49-2.43,5.31-3.52,3.42-2,4.67-5,3.66-8.79-1.39-5.15-3.08-10.23-4.59-15.35-.52-1.79-.88-3.62-1.31-5.44l.86-.55,7.32,6.05.83-.7c-1.34-10.23-7.89-17.94-13-26.7a15.54,15.54,0,0,1,3.18,2.07,75.82,75.82,0,0,1,6.5,7.62c7.13,10,13.73,20.3,18.75,31.54,2.15,4.83,1.73,6.1-2.57,9a237.49,237.49,0,0,0-45.26,40c-3.07,3.51-6.17,7-9.4,10.37-2.18,2.27-3.59,2.14-5.45-.34a82.48,82.48,0,0,1-14.35-30.53c-.4-1.66-.05-3.51-.05-5.27l.81-.48a31.57,31.57,0,0,1,3.89,3.37c2.09,2.48,3.82,5.26,6,7.69,2.55,2.89,4,2.54,5.11-1,2.19-7,6.58-12.47,12-17.27,3.78-3.37,7.58-6.74,11.4-10.07a13,13,0,0,1,1.94-1.17Z"/><path class="cls-1" d="M145.13,94.8a11.88,11.88,0,0,1-1.53-2.47c-.73-2.3-1.21-4.68-1.91-7-1.62-5.38-3.15-10.8-5-16.09-2.9-8.16-1.7-10,6.9-10.1a18.43,18.43,0,0,0,4.2-.43c12-3,23.19-7.54,32.64-15.81a76.66,76.66,0,0,1,6.79-4.8l.93.87c-2.41,3.36-4.78,6.74-7.25,10.05-1.45,1.95-3.15,3.71-4.53,5.7a15.38,15.38,0,0,0-1.27,3.58c11.28-2.33,20.54-7.09,28.19-14.9a8.35,8.35,0,0,1,4-2c-3,7.63-8.26,13.2-14.14,18.37a97.87,97.87,0,0,1-37.91,20.89c-5.44,1.57-8.5,4.73-8.58,10.55a15.63,15.63,0,0,1-.74,3.24Z"/><path class="cls-1" d="M106.55,86.42a136.64,136.64,0,0,1,25.12,20.47c1.49-1.86,1.27-3.18,0-4.77a19.66,19.66,0,0,1-2-4.15l.79-.73a35.64,35.64,0,0,1,5.18,3.65c3.15,3.14,6.18,6.43,9,9.86,4.17,5,5.23,5.4,11.72,3.61,9.9-2.73,19.72-5.89,29.78-7.78,8.4-1.58,17.08-1.64,25.64-2.27a15.49,15.49,0,0,1,3.73.66l.06.81c-2,.48-3.89,1-5.84,1.43-20.61,4.85-40.49,11.64-59.14,21.81-2.92,1.59-6,2.89-8.93,4.47-1.58.86-2.64.62-3.55-.85a35.9,35.9,0,0,1-2.25-3.6c-5.64-12.18-13.54-22.76-22.63-32.54-2.71-2.91-5.07-6.15-7.59-9.24Z"/><path class="cls-1" d="M170.8,83.78c12-3,20.53-11.4,30.11-18.08,3.9-2.71,4.19-3.1,7.78.1,6.64,5.93,13,12.2,19.22,18.57,3.39,3.47,6.26,7.45,9.34,11.22a26.91,26.91,0,0,1,1.61,2.76c-2.81-.18-5.08.1-7.06-.53-11.29-3.55-22.79-3.21-34.32-2.18-11,1-21.91,2.23-32.94,3.11,13.54-8.63,28.79-11.53,44.57-12.27-1.06-7.1-5.19-9.6-11.46-7.55-4.78,1.57-9.51,3.35-14.33,4.82A19.38,19.38,0,0,1,170.8,83.78Z"/><path class="cls-1" d="M126,58.76c-1.53-3.74-3.09-6.48-7.2-5-.23,1.57-.49,3.25-.67,4.47-2.88-.28-6.29-1.66-8.18-.52s-2.61,4.82-3.89,7.51a15.7,15.7,0,0,1-8.85-5.7,3.44,3.44,0,0,1,.1-3.32C103.24,50,110,45.51,119.23,47.52A9.14,9.14,0,0,1,126,58.76Z"/><path class="cls-1" d="M120.62,77.64c.35-1.35.65-2.7,1.06-4,1-3.14,2-6.29,3.16-9.36.37-1,1.4-1.67,2.13-2.49l1.29.66c-.36,4-.39,8-1.18,11.88C126.44,77.51,124.33,78.33,120.62,77.64Z"/></g></g></svg>